<svg width="63" height="63" viewBox="0 0 63 63" fill="none" xmlns="http://www.w3.org/2000/svg">
<path d="M21.735 14.3062L17.0625 11.9438L20.37 5.25H42.6037L45.9375 11.9438L41.265 14.28L39.375 10.5H23.625L21.735 14.3062ZM48.8775 21H36.9862L34.9125 13.125H28.0875L26.0137 21H14.1225L10.7625 27.6938L15.4612 30.03L17.3775 26.25H45.6224L47.5125 30.0562L52.2112 27.72L48.8775 21ZM46.6462 57.75H41.2125L40.5825 55.3875L31.5 41.7375L22.3912 55.3875L21.7875 57.75H16.3537L23.94 28.875H29.3737L28.4287 32.4188L31.5 37.0125L34.5449 32.4188L33.6262 28.875H39.06L46.6462 57.75ZM29.925 39.375L27.5625 35.8312L24.465 47.5912L29.925 39.375ZM38.535 47.565L35.4375 35.805L33.075 39.375L38.535 47.565Z" fill="white"/>
</svg>
