<svg width="107" height="48" viewBox="0 0 107 48" fill="none" xmlns="http://www.w3.org/2000/svg">
<path d="M2.11421 26.427C28.4693 10.824 44.4591 12.2055 50.48 25.9212" stroke="black" stroke-width="5"/>
<line x1="50.542" y1="25.7426" x2="52.3444" y2="29.5375" stroke="black" stroke-width="1.2"/>
<path d="M105.686 33.3668C79.3321 48.9646 63.3429 47.5835 57.3224 33.8724" stroke="black" stroke-width="5"/>
<line y1="-0.6" x2="4.19997" y2="-0.6" transform="matrix(-0.42912 -0.903247 0.903343 -0.428918 57.8022 33.7937)" stroke="black" stroke-width="1.2"/>
<g clip-path="url(#clip0_54276_35793)">
<path d="M65.209 22.4642L70.1502 15.9364L65.0601 13.3599L76.2386 4.84555L77.1802 5.12897L72.239 11.6568L77.3291 14.2333L66.1506 22.7476L65.209 22.4642Z" fill="black"/>
</g>
<g clip-path="url(#clip1_54276_35793)">
<path d="M70.413 31.1238L74.906 27.9056L72.141 25.225L81.0527 21.9758L81.6029 22.3472L77.1099 25.5653L79.875 28.2459L70.9632 31.4951L70.413 31.1238Z" fill="black"/>
</g>
<g clip-path="url(#clip2_54276_35793)">
<path d="M56.7251 19.6267L57.336 14.134L53.4939 14.3979L57.036 5.59852L57.68 5.43764L57.0692 10.9304L60.9112 10.6664L57.3691 19.4658L56.7251 19.6267Z" fill="black"/>
</g>
<defs>
<clipPath id="clip0_54276_35793">
<rect width="16" height="24" fill="white" transform="translate(66.9929) rotate(16.752)"/>
</clipPath>
<clipPath id="clip1_54276_35793">
<rect width="10.8007" height="16.2011" fill="white" transform="translate(76.0632 17) rotate(34.0156)"/>
</clipPath>
<clipPath id="clip2_54276_35793">
<rect width="10.8007" height="16.2011" fill="white" transform="translate(50 5.98193) rotate(-14.0258)"/>
</clipPath>
</defs>
</svg>
