<svg viewBox="-74.99999999999989 225 1575 989.9999999999999" fill="none" xmlns="http://www.w3.org/2000/svg" xmlns:xlink="http://www.w3.org/1999/xlink" overflow="visible" width="1575px" height="989.9999999999999px"><g id="Master/Spot Illustration/Drifting"><g id="Background" transform="translate(-82 155.8) scale(0.86 0.8600000290643601)"><g id="Background/Speed"><g id="speed"><g id="bg"><path id="Path" d="M276 530.72H86C84.067 530.72 82.5 529.153 82.5 527.22C82.5 525.287 84.067 523.72 86 523.72H276C277.933 523.72 279.5 525.287 279.5 527.22C279.5 529.153 277.933 530.72 276 530.72V530.72Z" fill="#D1D9DB"/><path id="Path_2" d="M426.5 300V300C402.21 299.77 379.43 299.43 357.41 299.11C295.32 298.19 236.67 297.32 166.82 299.37H166.72C164.787 299.4 163.195 297.858 163.165 295.925C163.135 293.992 164.677 292.4 166.61 292.37C236.61 290.37 295.34 291.19 357.51 292.11C379.51 292.43 402.29 292.77 426.51 293C428.443 293 430.01 294.567 430.01 296.5C430.01 298.433 428.443 300 426.51 300H426.5Z" fill="#D1D9DB"/><path id="Path_3" d="M1037.76 458.72C1018.28 458.72 998.827 458.447 979.4 457.9C977.467 457.845 975.945 456.233 976 454.3C976.055 452.367 977.667 450.845 979.6 450.9C1048.3 452.83 1117.65 451.33 1185.74 446.45C1187.67 446.312 1189.35 447.767 1189.49 449.7C1189.63 451.633 1188.17 453.312 1186.24 453.45C1137.16 457 1087.43 458.72 1037.76 458.72Z" fill="#D1D9DB"/><path id="Path_4" d="M385.5 625.31H248.88C246.947 625.31 245.38 623.743 245.38 621.81C245.38 619.877 246.947 618.31 248.88 618.31H385.5C387.433 618.31 389 619.877 389 621.81C389 623.743 387.433 625.31 385.5 625.31Z" fill="#D1D9DB"/><path id="Shape" fill-rule="evenodd" clip-rule="evenodd" d="M215 468.34C221.734 469.95 228.636 470.752 235.56 470.73C259.659 470.73 283.503 461.748 306.821 452.965L307.55 452.69C336.05 441.84 365.53 430.62 394.35 436.69C396.233 437.068 398.07 435.858 398.465 433.979C398.86 432.099 397.666 430.252 395.79 429.84C364.96 423.35 334.51 434.93 305.06 446.13C274.69 457.7 245.92 468.58 216.69 461.58C210.755 460.218 205.096 457.851 199.96 454.58C205.373 452.536 210.309 449.401 214.46 445.37C224.78 434.92 224.25 420.4 217.85 412.92C213.797 408.415 207.895 406.028 201.85 406.45C194.791 406.705 188.217 410.106 183.93 415.72C177.07 425.23 177.72 439.84 185.49 450.47C185.74 450.8 186 451.14 186.26 451.47L186.26 451.47C185.4 451.68 184.54 451.89 183.68 452.08C151.031 459.554 117.324 461.246 84.0901 457.08C82.1709 456.84 80.4203 458.201 80.1801 460.12C79.9398 462.039 81.3009 463.79 83.2201 464.03C117.258 468.295 151.78 466.563 185.22 458.91C187.433 458.41 189.64 457.857 191.84 457.25C199.18 463.45 208.07 466.68 215 468.34ZM202.11 413.41H202.83C206.467 413.235 209.994 414.682 212.46 417.36C217.92 423.77 215.29 434.42 209.41 440.36C205.21 444.65 199.66 447.36 193.66 449.36C192.746 448.395 191.895 447.373 191.11 446.3C185.08 438.05 184.44 426.9 189.58 419.78C192.595 415.891 197.191 413.554 202.11 413.41Z" fill="#D1D9DB"/><path id="Path_5" d="M1284.18 326.5H1187C1185.07 326.5 1183.5 324.933 1183.5 323C1183.5 321.067 1185.07 319.5 1187 319.5H1284.18C1286.11 319.5 1287.68 321.067 1287.68 323C1287.68 324.933 1286.11 326.5 1284.18 326.5V326.5Z" fill="#D1D9DB"/><path id="Path_6" d="M1287 360.13C1272.92 360.13 1258.84 359.757 1244.77 359.01C1243.52 358.942 1242.4 358.212 1241.83 357.095C1241.27 355.978 1241.34 354.644 1242.02 353.595C1242.71 352.546 1243.9 351.942 1245.15 352.01C1295.37 354.704 1345.74 352.537 1395.54 345.54C1396.78 345.361 1398.02 345.857 1398.79 346.839C1399.56 347.822 1399.76 349.143 1399.29 350.304C1398.83 351.466 1397.78 352.291 1396.54 352.47C1360.25 357.582 1323.65 360.142 1287 360.13Z" fill="#D1D9DB"/><path id="Path_7" d="M961.1 584.34C959.167 584.37 957.575 582.828 957.545 580.895C957.515 578.962 959.057 577.37 960.99 577.34L1370.6 563.84C1372.53 563.776 1374.15 565.292 1374.22 567.225C1374.28 569.158 1372.76 570.776 1370.83 570.84L961.22 584.33L961.1 584.34Z" fill="#D1D9DB"/><path id="Path_8" d="M1092.73 721.64C1064.32 721.64 1035.98 721.19 1007.73 720.29C1006.48 720.251 1005.35 719.547 1004.75 718.445C1004.16 717.342 1004.2 716.008 1004.86 714.945C1005.52 713.881 1006.7 713.251 1007.95 713.29C1086.95 715.81 1167.01 714.79 1245.84 710.29C1247.77 710.18 1249.43 711.657 1249.54 713.59C1249.65 715.523 1248.17 717.18 1246.24 717.29C1195.35 720.18 1144 721.64 1092.73 721.64Z" fill="#D1D9DB"/><path id="Shape_2" fill-rule="evenodd" clip-rule="evenodd" d="M1275.07 512.01C1283.84 514.068 1292.81 515.105 1301.82 515.1C1324.81 515.094 1347.3 508.474 1366.63 496.03C1367.34 496.64 1368.09 497.21 1368.86 497.75C1382.02 506.88 1399.35 506.24 1411.24 504.96C1417.12 504.324 1423.04 503.429 1428.77 502.564L1428.86 502.55L1428.86 502.55C1439.12 501 1449.71 499.4 1460.12 499.31C1478.35 499.09 1493.75 504.24 1503.48 513.66C1504.88 514.834 1506.96 514.727 1508.23 513.417C1509.51 512.106 1509.56 510.033 1508.35 508.66C1494.18 494.94 1474.24 492.17 1460.05 492.34C1449.15 492.43 1438.31 494.07 1427.81 495.66C1422.13 496.52 1416.25 497.41 1410.49 498.03C1399.72 499.19 1384.09 499.83 1372.85 492.03L1372.65 491.88C1373.35 491.36 1374.06 490.83 1374.75 490.29C1379.83 486.34 1386 480.84 1388.28 473.2C1390.56 465.56 1387.94 455.28 1379.56 451.98C1373.79 449.72 1366.64 451.6 1361.64 456.67C1357.08 461.33 1354.95 467.85 1355.64 475.03C1356.23 480.746 1358.34 486.199 1361.76 490.82C1336.86 506.4 1305.18 511.92 1276.68 505.2C1274.82 504.811 1272.99 505.973 1272.56 507.82C1272.12 509.668 1273.23 511.527 1275.07 512.01ZM1366.63 461.53C1368.65 459.382 1371.44 458.114 1374.39 458C1375.29 457.985 1376.19 458.145 1377.03 458.47C1381.48 460.22 1383.01 466.54 1381.61 471.12C1379.86 476.88 1374.74 481.42 1370.49 484.73C1369.55 485.46 1368.63 486.17 1367.63 486.87C1364.86 483.221 1363.13 478.886 1362.63 474.33C1362.26 470.73 1362.63 465.58 1366.63 461.53Z" fill="#D1D9DB"/><path id="Path_9" d="M459.77 334.12C453.1 334.12 440.61 334.12 428.12 334.06C415.63 334 403.12 334 396.5 334C394.567 334 393 332.433 393 330.5C393 328.567 394.567 327 396.5 327C403.16 327 415.65 327 428.14 327.06C440.63 327.12 453.14 327.12 459.77 327.12C461.703 327.12 463.27 328.687 463.27 330.62C463.27 332.553 461.703 334.12 459.77 334.12Z" fill="#D1D9DB"/><path id="Shape_3" fill-rule="evenodd" clip-rule="evenodd" d="M618.07 146C617.557 146 617.047 145.98 616.54 145.94C611.166 145.706 606.241 142.87 603.34 138.34C600.927 134.33 600.3 129.493 601.61 125C603.47 118.1 609.44 110.9 617.08 106.19C613.196 104.422 609.041 103.327 604.79 102.95C595.95 102.09 586.79 103.71 578.02 105.27L424.1 132.48C422.226 132.757 420.472 131.493 420.142 129.628C419.811 127.763 421.025 125.973 422.88 125.59L576.8 98.33L576.854 98.3205C586.117 96.6835 595.689 94.9919 605.46 95.94C612.247 96.5101 618.799 98.6941 624.57 102.31C647.82 92.1 676.09 93.59 698.31 105.88C725.97 93.88 758 103.18 785.71 113.88L789.21 115.24L789.228 115.247C815.332 125.405 842.326 135.909 868.57 129.81C869.788 129.526 871.066 129.914 871.921 130.827C872.776 131.74 873.079 133.039 872.716 134.237C872.353 135.434 871.378 136.346 870.16 136.63C841.793 143.219 813.776 132.312 786.679 121.763L786.67 121.76L783.18 120.4C757.18 110.3 729.85 102.25 705.69 110.48C706.5 111.06 707.31 111.65 708.1 112.27C708.201 112.348 708.298 112.431 708.39 112.52C713.105 117.374 713.7 124.895 709.808 130.43C705.916 135.965 698.637 137.948 692.474 135.153C686.312 132.358 683.01 125.575 684.61 119C685.717 115.37 687.992 112.206 691.08 110C672.109 101.025 650.322 100.073 630.64 107.36C631.2 107.97 631.73 108.59 632.23 109.24C639.35 118.39 639.63 131.37 632.9 139.43C629.15 143.676 623.735 146.075 618.07 146ZM623.76 110.4L622.37 111.13C615.51 114.84 609.89 121.13 608.37 126.75C607.411 129.563 607.864 132.666 609.589 135.086C611.313 137.507 614.098 138.949 617.07 138.96C620.992 139.327 624.862 137.848 627.54 134.96C632.13 129.46 631.77 120.06 626.72 113.55C625.831 112.425 624.84 111.384 623.76 110.44V110.4ZM691.33 120.88C692.07 118.25 694.31 115.89 698 113.82C699.939 115.024 701.814 116.325 703.62 117.72C705.44 119.56 705.54 122.42 704.99 124.56C704.44 126.7 702.91 129.21 700.3 129.93C697.69 130.65 695.1 129.22 693.55 127.65C692 126.08 690.59 123.51 691.33 120.88Z" fill="#D1D9DB"/><path id="Path_10" d="M1148.16 426.93H1108.16C1106.23 426.93 1104.66 425.363 1104.66 423.43C1104.66 421.497 1106.23 419.93 1108.16 419.93H1148.16C1150.09 419.93 1151.66 421.497 1151.66 423.43C1151.66 425.363 1150.09 426.93 1148.16 426.93V426.93Z" fill="#D1D9DB"/><path id="Path_11" d="M1105 622.63C1103.07 622.649 1101.48 621.098 1101.47 619.165C1101.45 617.232 1103 615.649 1104.93 615.63L1293.08 611.9H1293.15C1295.08 611.881 1296.67 613.432 1296.69 615.365C1296.7 617.298 1295.15 618.881 1293.22 618.9L1105.07 622.63H1105Z" fill="#D1D9DB"/><path id="Path_12" d="M1006.2 231.13C1002.19 231.147 998.184 230.708 994.27 229.82C992.387 229.384 991.214 227.503 991.65 225.62C992.086 223.737 993.967 222.564 995.85 223C1011.17 226.53 1026.41 221.32 1042.54 215.81C1049.34 213.49 1056.36 211.09 1063.39 209.41C1099.88 200.67 1137.39 211.07 1170.56 220.25C1171.82 220.533 1172.82 221.486 1173.16 222.73C1173.51 223.974 1173.14 225.306 1172.21 226.197C1171.27 227.088 1169.93 227.393 1168.7 226.99C1136.38 217.99 1099.7 207.9 1065.02 216.22C1058.31 217.82 1051.45 220.17 1044.81 222.44C1032.24 226.73 1019.34 231.13 1006.2 231.13Z" fill="#D1D9DB"/><path id="Path_13" d="M1449.75 681.3H1449.69L1404.47 680.54C1403.22 680.519 1402.08 679.832 1401.47 678.738C1400.86 677.644 1400.89 676.31 1401.53 675.238C1402.17 674.166 1403.34 673.519 1404.59 673.54L1449.81 674.29C1451.06 674.301 1452.21 674.978 1452.83 676.066C1453.44 677.154 1453.43 678.489 1452.8 679.566C1452.16 680.644 1451 681.301 1449.75 681.29V681.3Z" fill="#D1D9DB"/><path id="Path_14" d="M1421.59 709.64H1421.4L1355.48 706.12C1353.55 706.018 1352.06 704.368 1352.17 702.435C1352.27 700.502 1353.92 699.018 1355.85 699.12L1421.78 702.64C1423.03 702.674 1424.17 703.373 1424.76 704.472C1425.36 705.572 1425.32 706.907 1424.67 707.972C1424.01 709.038 1422.84 709.674 1421.59 709.64V709.64Z" fill="#D1D9DB"/></g></g></g></g><g id="Sign" transform="translate(700 320) scale(1 1)"><g id="Sign/Marker"><g id="marker"><g id="signs"><path id="Path" d="M51.4904 540.83C58.9404 506.91 75.0004 484.1 102.17 469C122.17 457.89 147.05 451.72 176.01 450.66C200.75 449.76 229.42 451.26 229.7 451.27C230.76 451.321 231.673 452.035 231.977 453.052C232.281 454.069 231.909 455.166 231.05 455.79C230.47 456.21 173.05 498.21 160.9 513.11C145.85 531.64 135.74 557.88 133.9 583.3C132.15 607.09 147.98 650.38 159.53 681.99C163.34 692.4 166.63 701.4 168.97 708.71C177.53 735.42 220.61 845.44 221.04 846.55C221.341 847.32 221.242 848.188 220.776 848.87C220.31 849.553 219.537 849.961 218.71 849.96H180.71C179.975 849.963 179.276 849.641 178.8 849.08C149.24 814.22 126.56 777 102.54 737.6L96.7904 728.17C79.3404 699.68 64.6604 658.79 55.1304 630.51C45.2204 601.19 44.1404 574.36 51.4904 540.83Z" fill="#E03B36"/><path id="Path_2" d="M173.86 652.93C173.479 652.144 173.532 651.217 174 650.48C174.473 649.746 175.297 649.313 176.17 649.34H178.06C215.844 649.445 246.67 619.112 247.174 581.33C247.679 543.549 217.674 512.404 179.9 511.5C178.94 511.481 178.078 510.908 177.69 510.03C177.293 509.159 177.429 508.137 178.04 507.4C198.96 482.26 260.72 492.58 263.34 493.03C264.022 493.144 264.624 493.54 265 494.12L318.74 575.87C319.271 576.688 319.271 577.742 318.74 578.56L265.15 664.56C264.793 665.133 264.219 665.537 263.56 665.68C249.342 668.584 234.88 670.134 220.37 670.31C200.84 670.37 180.6 666.72 173.86 652.93Z" fill="#E03B36"/><path id="Shape" fill-rule="evenodd" clip-rule="evenodd" d="M134.74 728.17C117.69 699.04 102.69 659 93.1004 630.55C83.2104 601.19 82.1304 574.36 89.4904 540.83C96.9304 506.91 113.04 484.1 140.17 469.04C160.2 457.93 185 451.76 214 450.7C237.16 449.85 261 456.85 284.83 471.5C306 484.5 319.87 497.5 328.46 512.5C340.33 533.21 345.18 560.26 342.18 588.65C338.76 620.52 327.76 650.57 315.76 681.12C306.42 704.97 294.19 730.18 278.42 758.18C260.749 789.425 241.481 819.738 220.69 849C220.234 849.611 219.523 849.98 218.76 850H218.65C217.916 849.999 217.218 849.678 216.74 849.12C186.29 813.17 161.93 774.76 134.74 728.17ZM152.7 553.208C141.825 578.507 147.05 607.851 165.99 627.84H166C178.541 641.146 195.881 648.887 214.16 649.34H216.05C253.832 649.438 284.652 619.104 285.154 581.325C285.655 543.547 255.652 512.405 217.88 511.5H216C188.463 511.51 163.575 527.909 152.7 553.208Z" fill="#FF625A"/><path id="Path_3" d="M292.19 851H97.5801C96.1994 851 95.0801 849.881 95.0801 848.5C95.0801 847.119 96.1994 846 97.5801 846H292.19C293.571 846 294.69 847.119 294.69 848.5C294.69 849.881 293.571 851 292.19 851Z" fill="#1B1812"/></g></g></g></g><g id="Sign" transform="translate(11 320) scale(1 1)"><g id="Sign/Warning"><g id="warning"><g id="signs"><path id="Path" d="M197.519 821.53C194.001 821.53 191.149 818.678 191.149 815.16V815.16L189.529 404.08C189.523 402.703 188.406 401.59 187.029 401.59H167.609C166.232 401.59 165.114 402.703 165.109 404.08L163.489 815.17C163.483 818.686 160.635 821.534 157.119 821.54C147.834 821.551 140.31 829.075 140.299 838.36V841.18C140.304 846.054 144.254 850.004 149.129 850.01H205.509C210.383 850.004 214.333 846.054 214.339 841.18V838.36C214.333 829.071 206.808 821.541 197.519 821.53V821.53Z" fill="#A3B6B7"/><path id="Path_2" d="M296.459 382.32L206.999 227.41C200.875 216.796 189.553 210.258 177.299 210.258C165.046 210.258 153.724 216.796 147.599 227.41L58.1794 382.32C52.0578 392.931 52.0601 406.001 58.1854 416.61C64.3108 427.219 75.6291 433.756 87.8794 433.76H266.759C279.01 433.756 290.328 427.219 296.453 416.61C302.579 406.001 302.581 392.931 296.459 382.32V382.32Z" fill="#FA4A1B"/><path id="Path_3" d="M272.06 386.69L190.62 245.64C187.875 240.89 182.806 237.964 177.32 237.964C171.834 237.964 166.764 240.89 164.02 245.64L82.5798 386.69C79.8566 391.44 79.8673 397.28 82.608 402.019C85.3487 406.759 90.4049 409.681 95.8798 409.69H258.75C264.226 409.685 269.286 406.764 272.029 402.024C274.772 397.283 274.784 391.441 272.06 386.69V386.69Z" fill="#F6F6F6"/><path id="Path_4" d="M216.66 321.55C214.86 320.443 212.864 319.693 210.78 319.34C208.075 318.76 205.336 318.349 202.58 318.11L201.15 312.45C200.81 311.111 199.449 310.3 198.11 310.64C196.771 310.98 195.96 312.341 196.3 313.68L197.51 318.44C197.333 318.486 197.16 318.543 196.99 318.61C196.544 318.783 196.116 318.997 195.71 319.25L192.71 315.84C192.132 315.12 191.204 314.777 190.296 314.948C189.389 315.12 188.65 315.778 188.374 316.659C188.099 317.541 188.332 318.502 188.98 319.16L192.35 322.96C191.913 323.794 191.577 324.676 191.35 325.59C187.46 325.71 183.64 325.59 179.62 325.4C178.62 325.4 177.53 325.31 176.47 325.28C168.57 324.99 160.55 325.08 152.65 325.54C149.74 325.71 146.42 326.08 143.97 328.34C142.481 329.805 141.464 331.682 141.05 333.73L134.32 341.06C133.384 342.076 133.449 343.659 134.465 344.595C135.481 345.531 137.064 345.466 138 344.45L140.17 342.08C139.483 353.855 140.187 365.67 142.27 377.28C142.431 378.605 142.912 379.871 143.67 380.97C143.686 383.762 144.056 386.541 144.77 389.24C145.064 390.335 146.056 391.098 147.19 391.1C147.406 391.098 147.62 391.071 147.83 391.02C149.164 390.663 149.956 389.294 149.6 387.96C149.198 386.425 148.924 384.86 148.78 383.28H149.31C149.79 383.28 150.23 383.28 150.57 383.28L152.9 383.14L153.19 388.52C153.254 389.848 154.35 390.891 155.68 390.89H155.82C157.198 390.815 158.254 389.638 158.18 388.26L157.89 382.85L188.55 381V387.34C188.55 388.721 189.669 389.84 191.05 389.84C192.431 389.84 193.55 388.721 193.55 387.34V380.7L199.25 380.37C199.52 380.37 199.87 380.37 200.25 380.29L200.16 386.08C200.147 386.742 200.397 387.382 200.857 387.859C201.317 388.336 201.948 388.609 202.61 388.62V388.62C203.973 388.615 205.083 387.523 205.11 386.16L205.26 376.82C205.575 375.853 205.701 374.834 205.63 373.82L205.19 352.28C205.19 350.66 205.19 348.86 205.3 346.94C205.37 345.33 205.42 343.66 205.43 341.94C206.664 341.427 207.926 340.983 209.21 340.61C210.4 340.25 211.63 339.87 212.85 339.38C217.05 337.69 219.85 334.94 220.69 331.62C221.544 327.754 219.946 323.759 216.66 321.55V321.55Z" fill="#1B1812"/><path id="Path_5" d="M247.409 851H107.229C105.848 851 104.729 849.881 104.729 848.5C104.729 847.119 105.848 846 107.229 846H247.409C248.789 846 249.909 847.119 249.909 848.5C249.909 849.881 248.789 851 247.409 851Z" fill="#1B1812"/></g></g></g></g><g id="Master/Vehicles/Medium Vehicle" transform="translate(-69 260) scale(1 1)"><g id="Master/Vehicles/Medium Vehicle"><g id="Medium Vehicle" transform="scale(1 1)"><g id="Medium Vehicle/Hatchback Packed"><g id="hatchback packed"><g id="cars"><path id="Path" d="M806.73 722.11C817.24 641.46 814.41 556.6 799.99 476.56L749.87 475.81C742.61 475.7 734.64 475.81 729.12 480.56C725.21 483.91 723.29 488.96 721.52 493.8L642.22 710.73C640.07 716.64 647.39 723.44 653.3 725.56C659.21 727.68 665.68 726.5 671.96 726.3C716 724.84 762.71 723.57 806.73 722.11Z" fill="#305F67"/><path id="Path_2" d="M828.431 691.44C826.853 684.573 824.927 677.791 822.661 671.12C820.304 663.949 817.155 657.063 813.271 650.59L813.081 650.25C808.147 641.501 800.67 634.459 791.641 630.06C784.011 626.48 775.761 625.58 769.421 625.19C760.756 624.59 752.055 624.764 743.421 625.71C735.21 626.649 727.409 629.802 720.851 634.83C718.591 636.5 716.431 638.35 714.331 640.14C709.721 644.08 705.331 647.81 700.111 649.8C691.901 652.92 683.181 652.8 673.941 652.64H670.581C668.061 652.64 662.991 652.5 662.991 652.5C661.949 652.473 661.003 653.101 660.621 654.07C660.232 655.032 660.479 656.135 661.241 656.84C663.701 659.12 665.121 665.27 664.071 669.09L662.681 672.94L663.681 673.94C664.332 674.591 664.571 675.549 664.301 676.43L662.151 683.43C661.394 687.495 658.719 690.944 654.971 692.69L671.221 696.56L673.351 720.78C673.469 722.068 674.547 723.055 675.841 723.06H828.241C829.581 723.056 830.682 721.999 830.741 720.66C831.114 710.863 830.339 701.056 828.431 691.44V691.44Z" fill="#7FA0BF"/><path id="Path" d="M662.66 672.9L664.05 669.05C665.1 665.23 663.68 659.05 661.22 656.8C660.984 656.579 660.794 656.314 660.66 656.02C653.53 655.17 646.21 654.46 639 656.02C632.863 657.304 627.051 659.826 621.92 663.43C616.38 667.35 613.06 671.49 610.81 677.24C608.56 682.99 608.64 688.54 611.04 692.89C614.43 699.06 619.52 702.48 624.92 702.48C626.341 702.477 627.752 702.248 629.1 701.8C633.24 700.45 638.58 696.58 641.35 693.63C642.252 692.678 643.1 691.676 643.89 690.63C646.106 692.323 648.802 693.269 651.59 693.33C652.405 693.338 653.217 693.227 654 693C657.91 691.82 661.42 687.63 662.08 683.4L664.23 676.4C664.5 675.519 664.262 674.561 663.61 673.91L662.66 672.9Z" fill="#b17606"/><path id="Path_3" d="M647.18 692.2C646.23 692.208 645.358 691.674 644.933 690.823C644.508 689.973 644.604 688.956 645.18 688.2C647.49 685.01 648.47 682.04 648.11 679.35C647.923 678.258 647.642 677.184 647.27 676.14C646.931 675.157 646.647 674.155 646.42 673.14C646.232 671.83 647.098 670.601 648.394 670.336C649.69 670.071 650.969 670.862 651.31 672.14C651.507 672.985 651.747 673.819 652.03 674.64C652.483 675.968 652.817 677.333 653.03 678.72C653.56 682.72 652.27 686.91 649.19 691.17C648.721 691.812 647.975 692.194 647.18 692.2V692.2Z" fill="#1B1812"/><path id="Path_4" d="M672.439 679.05C672.125 679.053 671.812 678.995 671.519 678.88C670.24 678.37 669.611 676.924 670.109 675.64C672.109 670.64 672.209 661.39 669.469 656.46C669.035 655.679 669.051 654.726 669.51 653.96C669.969 653.194 670.802 652.731 671.695 652.745C672.588 652.76 673.405 653.249 673.839 654.03C677.509 660.62 677.179 671.33 674.769 677.46C674.394 678.419 673.469 679.051 672.439 679.05V679.05Z" fill="#6786A5"/><path id="Path_5" d="M700.68 692.38C700.361 692.378 700.046 692.317 699.75 692.2C699.134 691.951 698.642 691.468 698.383 690.856C698.124 690.245 698.12 689.555 698.37 688.94C702.608 678.467 708.334 668.66 715.37 659.82C716.229 658.738 717.802 658.556 718.885 659.415C719.967 660.274 720.149 661.848 719.29 662.93C712.547 671.395 707.061 680.789 703 690.82C702.617 691.764 701.699 692.381 700.68 692.38Z" fill="#6786A5"/><path id="Path" d="M802.001 578.24V578.24C800.204 576.907 798.07 576.104 795.841 575.92C794.901 575.8 793.951 575.73 792.991 575.69L793.081 575.25C793.531 572.96 794.461 568.19 791.301 565.12C789.481 563.36 787.071 562.95 784.941 562.7C773.801 561.355 762.54 561.355 751.401 562.7C748.281 563.1 744.741 563.87 742.211 566.58C739.451 569.58 738.451 573.58 737.571 577.15C737.441 577.69 737.311 578.22 737.171 578.73C735.479 585.127 734.144 591.614 733.171 598.16C732.611 602.01 732.441 606.35 735.441 609.37C737.901 611.84 741.291 612.18 744.541 612.31L773.151 613.48C773.801 613.48 774.501 613.48 775.241 613.48C777.773 613.611 780.288 612.991 782.471 611.7C786.391 609.11 787.371 604.11 787.951 601.12L788.111 600.34C790.482 600.579 792.877 600.271 795.111 599.44C799.504 597.763 802.928 594.225 804.461 589.78C805.801 586.1 805.511 581.1 802.001 578.24Z" fill="#b17606"/><path id="Path_6" d="M756.61 602.61C754.387 602.614 752.198 602.064 750.24 601.01C749.066 600.332 748.646 598.841 749.295 597.65C749.943 596.458 751.423 596.002 752.63 596.62C754.771 597.786 757.317 597.951 759.59 597.07C761.863 596.19 763.634 594.354 764.43 592.05C764.728 591.182 765.478 590.548 766.383 590.4C767.288 590.251 768.202 590.613 768.76 591.34L769.38 592.13C769.788 592.654 769.97 593.318 769.888 593.976C769.805 594.634 769.465 595.233 768.94 595.64C768.67 595.849 768.361 596.002 768.03 596.09C766.505 598.655 764.169 600.64 761.39 601.73C759.865 602.316 758.244 602.614 756.61 602.61V602.61Z" fill="#1B1812"/><path id="Shape" fill-rule="evenodd" clip-rule="evenodd" d="M676.92 680C679.813 684.636 681.959 689.698 683.28 695C684.461 700.314 684.896 705.766 684.57 711.2V712.66C684.632 714.308 684.491 715.957 684.15 717.57C683.435 720.424 682.458 723.206 681.23 725.88C679.079 730.908 675.979 735.475 672.1 739.33C666.72 744.54 658.55 746.33 651.55 746.33C649.79 746.332 648.033 746.215 646.29 745.98C634 744.27 624.13 734.37 619.13 718.82C614.11 703.1 615.75 686.75 623.4 676.1C632.99 662.66 651.31 658.99 664.99 667.66C665.54 667.94 666.03 668.29 666.54 668.66C670.688 671.746 674.211 675.595 676.92 680ZM646.14 728.9C653.71 732.21 661.34 730.42 664.71 724.42V724.46C668.47 717.84 670.32 707.29 668.92 700.4C667.74 694.8 666.08 690.52 663.74 687.33C660.389 682.64 655.022 679.804 649.26 679.68C647.515 679.672 645.782 679.97 644.14 680.56C636.14 683.47 630.5 693.5 631.14 703.9C631.79 714.9 638.14 725.39 646.14 728.9Z" fill="#1B1812"/><path id="Path" d="M647.001 673.64C646.718 672.82 646.478 671.985 646.281 671.14C645.871 669.23 646.341 664.14 647.181 663.21C648.741 661.77 649.421 660.29 649.181 658.78C648.895 657.248 647.829 655.978 646.371 655.43C645.99 655.242 645.565 655.159 645.141 655.19C643.07 655.302 641.01 655.573 638.981 656C632.843 657.284 627.032 659.806 621.901 663.41C616.361 667.33 613.041 671.47 610.791 677.22C608.541 682.97 608.621 688.52 611.021 692.87C614.411 699.04 619.501 702.46 624.901 702.46C626.321 702.457 627.733 702.228 629.081 701.78C633.221 700.43 638.561 696.56 641.331 693.61C646.461 688.15 648.711 682.8 648.031 677.72C647.808 676.332 647.464 674.967 647.001 673.64Z" fill="#b17606"/><path id="Path_7" d="M640.55 693.26C640.009 693.261 639.482 693.086 639.05 692.76C632.62 687.93 626.55 678.88 627.47 669.57C627.605 668.189 628.834 667.18 630.215 667.315C631.595 667.45 632.605 668.679 632.47 670.06C631.74 677.44 636.77 684.77 642.07 688.76C642.931 689.406 643.282 690.53 642.941 691.55C642.601 692.571 641.646 693.26 640.57 693.26H640.55Z" fill="#1B1812"/><path id="Path_8" d="M631.361 700.52C630.944 700.519 630.535 700.412 630.171 700.21C623.171 696.41 618.861 687.3 618.241 680.27C618.116 678.889 619.135 677.669 620.516 677.545C621.896 677.421 623.116 678.439 623.241 679.82C623.731 685.39 627.171 692.88 632.581 695.82C633.59 696.365 634.099 697.527 633.816 698.638C633.532 699.75 632.528 700.526 631.381 700.52H631.361Z" fill="#1B1812"/><path id="Path_9" d="M692.769 723.1C686.209 712.18 675.029 704.17 661.299 700.54C651.199 697.87 640.779 697.92 630.709 697.96C628.709 697.96 626.779 697.96 624.819 697.96C578.209 697.71 552.069 698.29 551.819 698.3C550.468 698.338 549.389 699.438 549.379 700.79L549.289 725.01C549.284 725.676 549.545 726.316 550.015 726.787C550.485 727.259 551.124 727.523 551.789 727.52V727.52L690.639 726.88C691.54 726.874 692.368 726.385 692.809 725.6C693.248 724.82 693.232 723.865 692.769 723.1Z" fill="#1B1812"/><path id="Path_10" d="M784.23 681.89C783.959 681.285 783.459 680.814 782.84 680.579C782.221 680.345 781.533 680.367 780.93 680.64C779.668 681.208 778.372 681.699 777.05 682.11C777.445 677.578 777.585 673.027 777.47 668.48C777.431 667.099 776.281 666.011 774.9 666.05C773.519 666.088 772.431 667.239 772.47 668.62C772.602 673.53 772.418 678.443 771.92 683.33C764.09 684.7 755.59 684.15 747.28 683.59C744.08 683.38 740.77 683.16 737.57 683.06C734.91 682.98 730.57 682.9 727.2 682.83H724.46H724.41C723.029 682.83 721.91 683.949 721.91 685.33C721.91 686.711 723.029 687.83 724.41 687.83H727.16C730.5 687.89 734.66 687.97 737.32 688.06C745.26 696.42 749.5 709.54 747.64 720.06C747.403 721.411 748.293 722.702 749.64 722.96C749.786 722.974 749.934 722.974 750.08 722.96C751.291 722.959 752.327 722.092 752.54 720.9C754.43 710.23 751.08 697.74 744.1 688.36L746.98 688.54C751.58 688.85 756.24 689.16 760.85 689.16C768.52 689.16 776.07 688.3 783.02 685.16C784.242 684.577 784.779 683.128 784.23 681.89V681.89Z" fill="#6786A5"/><path id="Path" d="M736.94 720.07C738.8 709.5 735.03 698.84 726.33 690.07L723.93 687.66L721.01 687.53C712.01 687.12 702.74 686.69 693.86 689.68C676.68 695.44 666.22 706.29 664.41 720.22C664.302 720.943 664.522 721.676 665.01 722.22C665.485 722.761 666.17 723.07 666.89 723.07H739.41C738.67 723.072 737.968 722.747 737.491 722.181C737.015 721.616 736.813 720.868 736.94 720.14V720.07Z" fill="#b17606"/><path id="Path_11" d="M677.759 723V723C677.095 722.992 676.46 722.72 675.997 722.243C675.533 721.766 675.279 721.125 675.289 720.46C675.508 711.173 680.432 702.633 688.359 697.79C689.554 697.111 691.073 697.523 691.76 698.713C692.447 699.903 692.045 701.425 690.859 702.12C684.433 706.063 680.451 713.002 680.289 720.54C680.267 721.917 679.136 723.017 677.759 723Z" fill="#1B1812"/><path id="Path_12" d="M689.691 723C689.567 723.01 689.444 723.01 689.321 723C688.665 722.906 688.073 722.554 687.677 722.023C687.281 721.492 687.113 720.825 687.211 720.17C688.471 711.63 694.471 703.67 703.211 698.88C703.995 698.451 704.948 698.473 705.711 698.938C706.475 699.403 706.932 700.24 706.911 701.133C706.891 702.027 706.395 702.841 705.611 703.27C698.181 707.27 693.141 713.9 692.111 720.89C691.922 722.087 690.902 722.976 689.691 723Z" fill="#1B1812"/><path id="Path_13" d="M711.5 280.51C711.614 277.884 713.652 275.748 716.27 275.51C758.54 271.769 801.075 272.161 843.27 276.68C847.11 277.09 851.27 277.68 853.91 280.52C856.73 283.52 856.91 288.13 856.83 292.27C856.53 325.57 855.37 358.85 853.35 392.11C853.15 395.53 852.79 399.27 850.35 401.7C847.91 404.13 844.35 404.52 840.93 404.79C833.096 405.397 825.26 405.903 817.42 406.31C800.546 407.17 783.663 407.533 766.77 407.4C758.33 407.327 749.89 407.137 741.45 406.83L735.12 406.57C733.56 406.5 731.9 406.1 730.37 406.13C728.84 406.16 727.04 407.38 725.54 407.95C723.734 408.661 721.84 409.125 719.91 409.33C716.09 409.68 711.91 408.4 709.77 405.2C707.95 402.47 707.98 398.95 708.07 395.67L708.55 378.13L709.95 327.29L710.66 301.87L711.01 289.15C711.12 286.28 711.37 283.38 711.5 280.51Z" fill="#D0A885"/><path id="Path_14" d="M770.589 384.54H770.509C769.846 384.519 769.218 384.235 768.764 383.751C768.311 383.268 768.068 382.623 768.089 381.96L771.089 275.54C771.128 274.159 772.279 273.071 773.659 273.11C775.04 273.149 776.128 274.299 776.089 275.68L773.089 382.11C773.051 383.463 771.943 384.54 770.589 384.54V384.54Z" fill="#C69981"/><path id="Path_15" d="M798.211 275C800.211 277.69 800.121 281.58 800.071 285.34V285.46C800.024 289.6 799.964 293.74 799.891 297.88L799.811 303.61C799.788 304.951 800.831 306.07 802.171 306.14C811.171 306.62 828.061 307.59 828.061 307.59H828.201C829.391 307.591 830.419 306.756 830.661 305.59C830.821 304.74 834.581 285.24 830.001 275.45C819.281 274.523 808.538 273.857 797.771 273.45C797.742 274.001 797.897 274.546 798.211 275V275Z" fill="#AC6040"/><path id="Path_16" d="M727.65 280.05C727.209 284.369 727.126 288.717 727.4 293.05C727.482 294.233 728.377 295.199 729.55 295.37L746.89 297.77H747.23C747.943 297.771 748.622 297.469 749.098 296.938C749.573 296.407 749.8 295.698 749.72 294.99C748.909 287.97 749.359 280.861 751.05 274C751.096 273.773 751.113 273.541 751.1 273.31C743.527 273.576 735.963 273.973 728.41 274.5C728.1 276.34 727.84 278.18 727.65 280.05Z" fill="#AC6040"/><path id="Path_17" d="M622.001 322.64H621.911C620.452 322.616 619.062 322.014 618.048 320.966C617.033 319.917 616.477 318.509 616.501 317.05L616.711 303.63C616.771 300.12 616.841 295.75 618.711 291.63C623.121 281.63 634.711 281.63 640.931 281.63H659.751C663.131 281.63 668.801 281.63 673.051 285.33C677.891 289.55 678.221 296.21 678.391 299.8L679.131 314.8C679.227 316.765 678.268 318.632 676.615 319.698C674.961 320.764 672.865 320.867 671.115 319.968C669.365 319.069 668.227 317.305 668.131 315.34L667.401 300.34C667.301 298.4 667.121 294.77 665.821 293.64C664.681 292.64 661.581 292.64 659.741 292.64H640.861C634.281 292.64 629.961 293.22 628.691 296.08C627.771 298.18 627.691 301.08 627.691 303.84L627.481 317.26C627.416 320.243 624.984 322.63 622.001 322.64V322.64Z" fill="#8E4637"/><path id="Path_18" d="M753.599 391.64L751.509 332.42C751.239 324.74 750.589 317.42 745.679 312C739.749 305.5 730.229 305 721.769 305C698.769 305 675.589 305.85 653.179 306.63C621.979 307.7 589.729 308.82 557.749 307.91C549.749 307.68 541.639 312.91 537.659 320.91C534.029 328.2 533.499 336.51 533.039 343.84C532.469 352.96 531.739 362.24 531.039 371.21C529.619 389.21 528.159 407.83 527.879 426.21C527.809 430.32 529.419 434.58 532.539 438.54C536.239 443.24 546.899 443.81 550.079 443.88C576.289 444.41 600.079 444.77 623.079 445.12C654.079 445.59 683.449 446.04 717.819 446.86H719.069C730.599 446.86 740.439 443.01 746.199 436.2C751.959 429.39 752.619 420.41 752.699 414.13C752.699 411.13 752.939 408.02 753.139 404.96C753.459 400.54 753.749 396 753.599 391.64Z" fill="#AC6040"/><path id="Path_19" d="M597.89 443.84C596.596 443.839 595.519 442.849 595.41 441.56C594.33 429.33 594.41 416.91 594.56 404.9L595.17 338.65C595.25 329.57 595.33 320.18 597.66 311.06C597.853 310.164 598.52 309.446 599.399 309.188C600.278 308.93 601.228 309.173 601.874 309.822C602.521 310.471 602.761 311.422 602.5 312.3C600.33 320.83 600.25 329.91 600.16 338.7L599.56 404.95C599.45 416.84 599.33 429.13 600.39 441.12C600.448 441.782 600.24 442.44 599.812 442.948C599.384 443.457 598.772 443.774 598.11 443.83L597.89 443.84Z" fill="#8E4637"/><path id="Path_20" d="M878.301 368.8C873.621 363.74 867.031 363.14 864.411 363.12L826.411 362.76C817.481 362.66 740.951 364.22 725.021 364.69C708.221 365.19 691.171 365.56 674.351 365.78C665.951 365.89 657.421 365.97 649.011 366.02C647.011 366.02 639.011 366.18 632.761 366.3C627.139 366.385 622.52 370.761 622.131 376.37C621.701 382.24 621.191 389.93 621.131 393.17L620.891 432.91C621.097 438.06 624.047 442.704 628.621 445.08C631.981 446.64 636.901 446.46 641.231 446.29C642.521 446.29 643.731 446.2 644.711 446.22C659.571 446.427 674.407 446.527 689.221 446.52C727.221 446.52 764.971 445.93 801.801 445.34C821.961 445.02 842.801 444.69 863.531 444.46V444.46C871.441 444.38 876.401 439.79 877.141 431.9L881.491 385.32C882.001 380.05 882.651 373.49 878.301 368.8Z" fill="#68373E"/><path id="Path_21" d="M625.76 390.12C624.379 390.161 623.226 389.076 623.185 387.695C623.143 386.314 624.229 385.161 625.61 385.12C628.857 384.918 631.864 383.343 633.879 380.79C635.895 378.236 636.728 374.945 636.17 371.74C635.932 370.379 636.843 369.082 638.205 368.845C639.566 368.608 640.862 369.519 641.1 370.88C641.906 375.487 640.71 380.22 637.812 383.891C634.914 387.562 630.588 389.824 625.92 390.11L625.76 390.12Z" fill="#1B1812"/><path id="Path_22" d="M853.43 441.71C853.111 441.713 852.794 441.652 852.5 441.53C851.219 441.016 850.596 439.561 851.11 438.28C854.977 429.167 863.961 423.288 873.86 423.39C875.238 423.439 876.319 424.591 876.28 425.97C876.264 426.635 875.982 427.266 875.497 427.721C875.012 428.176 874.364 428.417 873.7 428.39C865.865 428.269 858.742 432.919 855.7 440.14C855.329 441.073 854.434 441.692 853.43 441.71V441.71Z" fill="#1B1812"/><path id="Path_23" d="M875.749 389.26H875.439C870.515 388.65 866.105 385.913 863.373 381.771C860.641 377.628 859.861 372.497 861.239 367.73C861.621 366.402 863.006 365.634 864.334 366.015C865.663 366.396 866.431 367.782 866.049 369.11C865.092 372.47 865.646 376.08 867.567 378.998C869.488 381.916 872.585 383.851 876.049 384.3C876.943 384.353 877.739 384.88 878.14 385.68C878.54 386.48 878.483 387.433 877.99 388.18C877.497 388.927 876.643 389.353 875.749 389.3V389.26Z" fill="#1B1812"/><path id="Path_24" d="M639.859 439.07C639.733 439.08 639.606 439.08 639.479 439.07C638.116 438.86 637.18 437.584 637.389 436.22C638.049 431.88 637.389 428.42 635.389 425.95C632.619 422.54 628.149 421.95 626.389 421.83C625.009 421.753 623.952 420.571 624.029 419.19C624.107 417.809 625.289 416.753 626.669 416.83C631.534 416.972 636.116 419.149 639.299 422.83C642.229 426.45 643.299 431.21 642.379 437.01C642.159 438.222 641.091 439.095 639.859 439.07Z" fill="#1B1812"/><path id="Path_25" d="M731.4 417C730.574 416.979 729.748 417.026 728.93 417.14C729.43 407.96 730.194 398.803 731.22 389.67C732.459 390.003 733.737 390.171 735.02 390.17C739.125 390.152 743.075 388.604 746.1 385.83C750.36 381.89 752.91 375.7 753.27 368.41C753.337 367.029 752.271 365.856 750.89 365.79C749.51 365.724 748.337 366.789 748.27 368.17C748.1 371.63 747.16 378.05 742.71 382.17C740.01 384.66 735.44 386.04 731.81 384.65C732.477 379.263 733.234 373.89 734.08 368.53C734.296 367.166 733.364 365.885 732 365.67C730.636 365.454 729.356 366.386 729.14 367.75C728.334 372.877 727.607 378.03 726.96 383.21H726.88C723.287 384.093 719.498 382.932 717.016 380.187C714.535 377.442 713.76 373.557 715 370.07C715.349 369.216 715.2 368.239 714.611 367.529C714.022 366.819 713.091 366.49 712.187 366.674C711.283 366.859 710.554 367.526 710.29 368.41C708.551 373.336 709.484 378.812 712.757 382.884C716.029 386.957 721.175 389.047 726.36 388.41C725.187 398.63 724.344 408.883 723.83 419.17C723.55 419.38 723.283 419.607 723.03 419.85C722.817 419.705 722.585 419.591 722.34 419.51C716.97 418.064 711.234 419.502 707.18 423.31C703.243 426.689 701.361 431.883 702.22 437C702.461 438.162 703.483 438.996 704.67 439C704.828 438.999 704.986 438.982 705.14 438.95C705.794 438.831 706.374 438.456 706.749 437.907C707.125 437.359 707.266 436.683 707.14 436.03C706.566 432.605 707.853 429.133 710.52 426.91C713.273 424.263 717.203 423.233 720.9 424.19C721.724 424.439 722.618 424.242 723.26 423.67C723.374 423.739 723.49 423.803 723.61 423.86C723.39 429.193 723.26 434.527 723.22 439.86C723.218 440.523 723.478 441.16 723.945 441.631C724.412 442.101 725.047 442.367 725.71 442.37V442.37C727.083 442.37 728.199 441.263 728.21 439.89C728.25 433.997 728.4 428.103 728.66 422.21C729.526 421.991 730.418 421.897 731.31 421.93C734.73 421.99 738.59 423.51 740.5 425.53C744.07 429.32 744.31 435.23 743.35 439.53C743.201 440.178 743.317 440.86 743.671 441.423C744.026 441.986 744.591 442.384 745.24 442.53C745.421 442.569 745.605 442.589 745.79 442.59C746.976 442.589 747.997 441.752 748.23 440.59C749.84 433.45 748.31 426.59 744.14 422.1C741.31 419.17 736.19 417.09 731.4 417Z" fill="#1B1812"/><path id="Path_26" d="M634.241 800.48C633.051 800.48 604.991 800.11 596.241 800.38C589.531 800.58 572.851 803.94 562.851 830.61C558.851 842.39 558.431 861.16 561.781 874.27C565.971 890.66 576.891 907.86 595.101 907.86C595.531 907.86 595.971 907.86 596.401 907.86C615.151 907.03 633.961 907.86 634.151 907.86C634.833 907.894 635.499 907.644 635.991 907.17C636.481 906.699 636.76 906.05 636.761 905.37V803C636.769 802.329 636.506 801.683 636.032 801.209C635.557 800.735 634.912 800.472 634.241 800.48V800.48Z" fill="#1B1812"/><path id="Path_27" d="M605.369 902.08C598.549 902.08 590.369 901.55 589.929 901.53C589.036 901.473 588.241 900.944 587.844 900.141C587.447 899.339 587.508 898.386 588.004 897.641C588.5 896.897 589.356 896.473 590.249 896.53C590.369 896.53 602.249 897.29 609.069 897C609.962 896.961 610.809 897.401 611.289 898.155C611.77 898.909 611.812 899.862 611.399 900.655C610.987 901.448 610.182 901.961 609.289 902C608.089 902.05 606.759 902.08 605.369 902.08Z" fill="#3F3931"/><path id="Path_28" d="M585.52 896.45C584.139 896.469 583.004 895.366 582.985 893.985C582.965 892.604 584.069 891.469 585.45 891.45L603.15 890.99C604.043 890.967 604.88 891.422 605.347 892.184C605.814 892.945 605.839 893.898 605.412 894.684C604.986 895.469 604.173 895.967 603.28 895.99L585.58 896.45H585.52Z" fill="#3F3931"/><path id="Path_29" d="M576.85 884.85C575.469 884.85 574.35 883.731 574.35 882.35C574.35 880.969 575.469 879.85 576.85 879.85L596.22 879.48C597.594 879.469 598.726 880.556 598.77 881.93C598.783 882.593 598.532 883.234 598.073 883.713C597.613 884.191 596.983 884.467 596.32 884.48L576.94 884.85H576.85Z" fill="#3F3931"/><path id="Path_30" d="M922.241 800.48C921.051 800.48 892.991 800.11 884.241 800.38C877.531 800.58 860.851 803.94 850.851 830.61C846.851 842.39 846.431 861.16 849.781 874.27C853.971 890.66 864.891 907.86 883.101 907.86C883.531 907.86 883.971 907.86 884.401 907.86C903.151 907.03 921.961 907.86 922.151 907.86C922.833 907.894 923.499 907.644 923.991 907.17C924.481 906.699 924.76 906.05 924.761 905.37V803C924.769 802.329 924.506 801.683 924.032 801.209C923.557 800.735 922.912 800.472 922.241 800.48Z" fill="#1B1812"/><path id="Path_31" d="M893.369 902.08C886.549 902.08 878.369 901.55 877.929 901.53C877.036 901.473 876.241 900.944 875.844 900.141C875.447 899.339 875.508 898.386 876.004 897.641C876.5 896.897 877.356 896.473 878.249 896.53C878.369 896.53 890.249 897.29 897.069 897C897.962 896.961 898.809 897.401 899.289 898.155C899.77 898.909 899.812 899.862 899.399 900.655C898.987 901.448 898.182 901.961 897.289 902C896.089 902.05 894.759 902.08 893.369 902.08Z" fill="#3F3931"/><path id="Path_32" d="M873.52 896.45C872.139 896.469 871.004 895.366 870.985 893.985C870.965 892.604 872.069 891.469 873.45 891.45L891.15 890.99C892.043 890.967 892.88 891.422 893.347 892.184C893.814 892.945 893.839 893.898 893.412 894.684C892.986 895.469 892.173 895.967 891.28 895.99L873.58 896.45H873.52Z" fill="#3F3931"/><path id="Path_33" d="M864.85 884.85C863.469 884.85 862.35 883.731 862.35 882.35C862.35 880.969 863.469 879.85 864.85 879.85L884.22 879.48C885.594 879.469 886.726 880.556 886.77 881.93C886.783 882.593 886.532 883.234 886.073 883.713C885.613 884.191 884.983 884.467 884.32 884.48L864.94 884.85H864.85Z" fill="#3F3931"/><path id="Path_34" d="M801.17 844.06C801.032 842.791 799.957 841.832 798.68 841.84H693.52C692.246 841.843 691.178 842.803 691.04 844.07C689.92 854.47 690.55 865.75 692.73 874.27C696.92 890.66 707.84 907.86 726.05 907.86C726.48 907.86 726.92 907.86 727.35 907.86C739.06 907.34 750.8 907.47 758.01 907.63C760.18 908.168 762.406 908.444 764.64 908.45C766.274 908.448 767.903 908.301 769.51 908.01C779.36 906.21 788.35 899.1 794.18 888.5C800.68 876.66 803.1 861.3 801.17 844.06Z" fill="#1B1812"/><path id="Path_35" d="M736.369 902.08C729.549 902.08 721.369 901.55 720.929 901.53C720.036 901.473 719.241 900.944 718.844 900.141C718.447 899.339 718.508 898.386 719.004 897.641C719.5 896.897 720.356 896.473 721.249 896.53C721.369 896.53 733.249 897.29 740.069 897C740.962 896.961 741.809 897.401 742.289 898.155C742.77 898.909 742.812 899.862 742.399 900.655C741.987 901.448 741.182 901.961 740.289 902C739.089 902.05 737.759 902.08 736.369 902.08Z" fill="#3F3931"/><path id="Path_36" d="M716.52 896.45C715.139 896.469 714.004 895.366 713.985 893.985C713.965 892.604 715.069 891.469 716.45 891.45L734.15 890.99C735.043 890.967 735.88 891.422 736.347 892.184C736.814 892.945 736.839 893.898 736.412 894.684C735.986 895.469 735.173 895.967 734.28 895.99L716.58 896.45H716.52Z" fill="#3F3931"/><path id="Path_37" d="M707.85 884.85C706.469 884.85 705.35 883.731 705.35 882.35C705.35 880.969 706.469 879.85 707.85 879.85L727.22 879.48C728.594 879.469 729.726 880.556 729.77 881.93C729.783 882.593 729.532 883.234 729.073 883.713C728.613 884.191 727.983 884.467 727.32 884.48L707.94 884.85H707.85Z" fill="#3F3931"/><path id="Path_38" d="M724.34 867.65H704.26C702.879 867.65 701.76 866.531 701.76 865.15C701.76 863.769 702.879 862.65 704.26 862.65H724.34C725.72 862.65 726.84 863.769 726.84 865.15C726.84 866.531 725.72 867.65 724.34 867.65V867.65Z" fill="#3F3931"/><path id="Path_39" d="M418.5 697.05C416.71 691.05 411.72 687.18 407.86 685.05C397.025 678.997 383.817 679.039 373.02 685.16C362.274 691.557 356.008 703.428 356.79 715.91C357.479 722.854 360.382 729.392 365.07 734.56C371.07 741.46 377.49 744.96 383.99 744.96C386.657 744.943 389.291 744.378 391.73 743.3C403.16 738.38 409.52 727.8 414.73 717.08C417.61 711 420.55 704 418.5 697.05Z" fill="#2697A8"/><path id="Shape_2" fill-rule="evenodd" clip-rule="evenodd" d="M1004.86 755.77C1005.05 759.11 1005.18 762.4 1005.25 765.55C1005.47 772.874 1005.24 780.205 1004.55 787.5C1004.27 790.3 1004.08 793.32 1003.96 797.01C1003.86 799.77 1003.78 802.6 1003.78 805.33C1003.73 808.98 1003.67 812.75 1003.49 816.47C1003.38 817.81 1003.38 819.32 1003.38 820.92V820.924C1003.18 833.074 1002.88 851.411 985.25 856.92C978.134 859.001 970.884 860.595 963.55 861.69C961.027 862.1 954.291 860.88 947.544 859.659C940.949 858.465 934.344 857.269 931.65 857.59C912.765 859.83 896.789 863.031 884.594 865.474C874.466 867.503 866.945 869.01 862.53 869.01H677.65L636.65 859.88L573.22 869.01H347.72C312.38 869.01 307.59 866.88 302.38 857.77C297.46 849.13 295.4 831.47 295.46 826.21V824.21L295.46 824.197C295.51 817.251 295.562 810.026 298.88 803.03C304.276 791.637 314.54 783.88 323.695 776.962L324.12 776.64C330.04 772.2 366.42 743.5 371.04 739.78C380.82 731.9 387.92 724.82 393.39 717.49C394.91 715.46 396.32 713.37 397.59 711.29C405.36 698.51 410.54 684.24 415.59 669.51C420.599 654.913 425.572 640.048 430.406 625.6C430.765 624.527 431.123 623.457 431.48 622.39L432.213 620.201C447.504 574.491 463.299 527.277 482 482C487.72 467.657 497.897 455.531 511.03 447.41C522.25 440.3 551.15 440.36 568.41 440.41H575.92C590.14 440.14 678.14 440.18 691.14 440.68C713.22 441.54 737.25 441.88 766.75 441.75C784.054 441.671 819.911 441.26 841.825 441.009L842.64 441L861.86 440.78C875.89 440.71 894.94 443.32 905.72 449.32C917.85 456.09 927.33 471.88 941.94 509.64C951.17 533.51 958.96 557.91 965.36 578.64C972.49 601.79 979.07 625.35 984.9 648.79L985.67 651.87C986.097 653.602 986.526 655.34 986.957 657.085C990.162 670.07 993.449 683.387 996.27 696.61C998.8 708.53 1000.74 719.23 1002.18 729.33C1003.51 738.64 1004.39 747.29 1004.86 755.77ZM739.24 724.208C761.967 723.525 784.693 722.841 806.73 722.11C817.24 641.46 814.41 556.6 799.99 476.56L749.87 475.81C742.61 475.7 734.64 475.83 729.12 480.56C725.21 483.91 723.29 488.96 721.52 493.8C695.094 566.113 668.66 638.423 642.22 710.73C640.07 716.64 647.38 723.43 653.3 725.56C657.862 727.201 662.744 726.871 667.617 726.542C669.069 726.444 670.519 726.346 671.96 726.3C693.938 725.571 716.59 724.89 739.24 724.208Z" fill="#87DEED"/><path id="Path_40" d="M850.47 719C858.2 639.22 852.59 556.57 841.07 477.25C856.97 475.49 873.96 476.57 883.89 477.53C889.176 478.049 893.744 481.44 895.77 486.35C901.21 499.47 911.77 525.67 914.77 537.84C928.52 594.51 939.52 649.54 947.5 711.84C915.41 718.35 887.77 720.28 850.47 719Z" fill="#B5F7FD"/><path id="Path_41" d="M918.641 554.16C900.641 568.83 884.251 585.45 873.261 605.76C865.631 619.86 860.801 635.35 854.001 649.84C853.801 673.02 852.691 696.11 850.471 718.96C866.611 719.53 880.931 719.49 894.591 718.74C904.001 708.93 904.791 690.74 911.891 679.13C919.461 666.77 924.891 654.61 937.621 646.52C932.141 615 925.791 584.7 918.641 554.16Z" fill="white"/><path id="Path_42" d="M904.73 520.33C905.877 519.463 907.037 518.62 908.21 517.8C904.35 507.34 899.77 495.99 896.55 488.19C881.88 498.95 867.75 510.42 855.98 524.19C853.29 527.35 850.7 530.65 848.16 534C849.7 548.94 850.96 563.94 851.94 579C854.58 575.6 857.2 572.17 859.82 568.76C873.27 551.25 887.11 533.65 904.73 520.33Z" fill="white"/><path id="Path_43" d="M417.999 720.21C420.869 722.65 425.729 722.65 427.429 722.65H556.869C567.979 722.65 577.469 722.51 580.549 721.65C586.164 720.169 591.266 717.177 595.299 713C597.099 711.1 598.349 708.2 599.509 705.85C600.919 703 602.069 700.04 603.299 697.11C612.909 674.27 622.469 651.4 631.659 628.39C646.259 591.81 659.926 554.88 672.659 517.6C674.899 511.053 677.109 504.497 679.289 497.93C679.959 495.93 682.169 488.37 682.939 486.57C684.402 483.173 684.642 479.374 683.619 475.82C682.759 472.99 680.669 473.08 678.099 472.7C669.899 471.49 661.589 470.8 653.329 470.13C636.769 468.797 620.173 468.18 603.539 468.28C586.906 468.38 570.326 469.187 553.799 470.7C543.039 471.707 532.319 473.017 521.639 474.63C514.119 475.77 506.159 477.33 499.709 481.63C497.967 482.634 496.616 484.199 495.879 486.07C494.193 489.303 492.636 492.597 491.209 495.95C488.369 502.68 485.989 509.59 483.619 516.49L416.869 710.68C415.999 713.24 415.089 717.78 417.999 720.21Z" fill="#B5F7FD"/><path id="Path_44" d="M963.471 853.22C963.861 837.09 962.751 822.64 954.171 808.56C945.591 794.48 925.921 785 909.571 791.19C896.721 796.05 889.571 808.62 885.751 820.79C881.931 832.96 880.241 845.91 873.391 856.94C870.294 861.809 866.133 865.912 861.221 868.94H862.531C873.791 868.94 926.951 867.54 963.531 861.62C963.342 858.824 963.322 856.019 963.471 853.22V853.22Z" fill="#1B1812"/><path id="Path_45" d="M677.651 869C677.172 868.147 676.777 867.249 676.471 866.32C675.111 862.13 675.361 857.64 675.471 853.24C675.861 837.11 674.751 822.66 666.171 808.58C657.591 794.5 637.921 785.02 621.571 791.21C608.721 796.07 601.571 808.64 597.751 820.81C593.931 832.98 592.241 845.93 585.391 856.96C582.294 861.829 578.133 865.932 573.221 868.96L677.651 869Z" fill="#1B1812"/><path id="Path_46" d="M496.17 844.06C496.032 842.791 494.957 841.832 493.68 841.84H388.52C387.246 841.843 386.178 842.803 386.04 844.07C384.92 854.47 385.55 865.75 387.73 874.27C391.92 890.66 402.84 907.86 421.05 907.86C421.48 907.86 421.92 907.86 422.35 907.86C434.06 907.34 445.8 907.47 453.01 907.63C455.18 908.168 457.406 908.444 459.64 908.45C461.274 908.448 462.903 908.301 464.51 908.01C474.36 906.21 483.35 899.1 489.18 888.5C495.68 876.66 498.1 861.3 496.17 844.06Z" fill="#1B1812"/><path id="Path_47" d="M431.369 902.08C424.549 902.08 416.369 901.55 415.929 901.53C415.036 901.473 414.241 900.944 413.844 900.141C413.447 899.339 413.508 898.386 414.004 897.641C414.5 896.897 415.356 896.473 416.249 896.53C416.369 896.53 428.249 897.29 435.069 897C435.962 896.961 436.809 897.401 437.289 898.155C437.77 898.909 437.812 899.862 437.399 900.655C436.987 901.448 436.182 901.961 435.289 902C434.089 902.05 432.759 902.08 431.369 902.08Z" fill="#3F3931"/><path id="Path_48" d="M411.52 896.45C410.139 896.469 409.004 895.366 408.985 893.985C408.965 892.604 410.069 891.469 411.45 891.45L429.15 890.99C430.043 890.967 430.88 891.422 431.347 892.184C431.814 892.945 431.839 893.898 431.412 894.684C430.986 895.469 430.173 895.967 429.28 895.99L411.58 896.45H411.52Z" fill="#3F3931"/><path id="Path_49" d="M402.85 884.85C401.469 884.85 400.35 883.731 400.35 882.35C400.35 880.969 401.469 879.85 402.85 879.85L422.22 879.48C423.594 879.469 424.726 880.556 424.77 881.93C424.783 882.593 424.532 883.234 424.073 883.713C423.613 884.191 422.983 884.467 422.32 884.48L402.94 884.85H402.85Z" fill="#3F3931"/><path id="Path_50" d="M419.34 867.65H399.26C397.879 867.65 396.76 866.531 396.76 865.15C396.76 863.769 397.879 862.65 399.26 862.65H419.34C420.72 862.65 421.84 863.769 421.84 865.15C421.84 866.531 420.72 867.65 419.34 867.65Z" fill="#3F3931"/><path id="Path_51" d="M610.359 721.46C610.016 721.468 609.675 721.403 609.359 721.27C608.744 721.018 608.255 720.531 608 719.917C607.745 719.304 607.745 718.614 607.999 718C608.149 717.66 622.509 683 627.269 668.61C647.479 607.61 679.189 524.79 706.159 462.51C706.711 461.245 708.184 460.668 709.449 461.22C710.714 461.772 711.291 463.245 710.739 464.51C683.829 526.68 652.189 609.34 632.019 670.2C627.199 684.74 613.219 718.51 612.619 719.94C612.232 720.849 611.347 721.444 610.359 721.46Z" fill="#305F67"/><path id="Path_52" d="M513.67 828.26C512.421 828.257 511.365 827.337 511.19 826.1C509.28 812.03 508.13 798.47 515.01 787.32C519.71 779.69 527.39 774.74 534.17 770.32L597.93 729.23C598.681 728.718 599.65 728.654 600.461 729.062C601.273 729.47 601.799 730.286 601.836 731.193C601.874 732.101 601.416 732.957 600.64 733.43L536.88 774.53C530.55 778.61 523.37 783.23 519.27 789.89C513.27 799.64 514.36 812.24 516.15 825.38C516.328 826.745 515.374 827.998 514.01 828.19C513.899 828.223 513.786 828.246 513.67 828.26Z" fill="#305F67"/><path id="Path_53" d="M571.77 800.27C570.869 800.265 570.039 799.777 569.596 798.992C569.154 798.206 569.167 797.243 569.63 796.47C577.491 783.722 590.122 774.646 604.71 771.26C606.058 770.959 607.394 771.807 607.695 773.155C607.996 774.502 607.148 775.839 605.8 776.14C592.537 779.217 581.055 787.469 573.91 799.06C573.458 799.81 572.646 800.269 571.77 800.27Z" fill="#305F67"/><path id="Path_54" d="M636.651 774.28C636.417 774.281 636.185 774.247 635.961 774.18L630.611 772.65C629.714 772.437 629.007 771.749 628.771 770.859C628.535 769.968 628.808 769.02 629.481 768.391C630.154 767.762 631.118 767.554 631.991 767.85L637.331 769.37C638.54 769.703 639.315 770.881 639.143 772.123C638.971 773.365 637.905 774.288 636.651 774.28V774.28Z" fill="#305F67"/><path id="Path_55" d="M686.91 832.71C685.8 832.707 684.824 831.975 684.51 830.91L678.01 808.59C674.92 797.96 671.17 787.19 662.51 782.39C661.34 781.75 660.07 781.21 658.73 780.63C656.01 779.64 653.477 778.197 651.24 776.36C646.04 771.66 645.51 764.89 645 758.36C644.65 753.92 644.32 749.72 642.64 746.22C642.254 745.414 642.327 744.464 642.832 743.727C643.337 742.99 644.196 742.578 645.087 742.647C645.978 742.716 646.764 743.254 647.15 744.06C649.23 748.4 649.61 753.26 649.98 757.97C650.44 763.8 650.87 769.3 654.59 772.67C656.431 774.12 658.494 775.265 660.7 776.06C662.144 776.652 663.556 777.32 664.93 778.06C675.26 783.77 679.43 795.6 682.81 807.23L688.81 827.71C704.09 827.34 719.81 826.71 735 826.17C750.38 825.59 766.27 824.99 781.74 824.62C789.3 809.3 794.05 790.28 795.14 770.86C795.19 769.967 795.713 769.168 796.511 768.765C797.31 768.362 798.263 768.415 799.011 768.905C799.76 769.395 800.19 770.247 800.14 771.14C798.98 791.81 793.79 812.08 785.53 828.22C785.113 829.039 784.279 829.562 783.36 829.58C767.46 829.95 751.06 830.58 735.2 831.17C719.34 831.76 702.93 832.38 687.01 832.75L686.91 832.71Z" fill="#305F67"/><path id="Path_56" d="M805.42 826.16C804.039 826.188 802.897 825.091 802.87 823.71C802.842 822.329 803.939 821.188 805.32 821.16L842.74 819.66C844.12 819.605 845.284 820.679 845.34 822.06C845.395 823.441 844.32 824.605 842.94 824.66L805.52 826.15L805.42 826.16Z" fill="#305F67"/><path id="Path_57" d="M857.099 810.28C856.928 810.28 856.756 810.259 856.589 810.22C855.929 810.088 855.351 809.695 854.985 809.13C854.62 808.565 854.498 807.876 854.649 807.22C859.009 786.518 873.308 769.303 892.859 761.22C893.693 760.848 894.664 760.96 895.391 761.513C896.118 762.066 896.486 762.971 896.35 763.875C896.214 764.778 895.597 765.535 894.739 765.85C876.821 773.399 863.694 789.193 859.549 808.19C859.342 809.385 858.313 810.264 857.099 810.28V810.28Z" fill="#305F67"/><path id="Path_58" d="M932.999 762.68C932.556 762.68 932.122 762.562 931.739 762.34C926.911 759.518 921.288 758.366 915.739 759.06C914.358 759.237 913.096 758.261 912.919 756.88C912.742 755.499 913.718 754.237 915.099 754.06C921.763 753.211 928.52 754.59 934.319 757.98C935.297 758.55 935.77 759.705 935.472 760.797C935.175 761.889 934.181 762.645 933.049 762.64L932.999 762.68Z" fill="#305F67"/><path id="Path_59" d="M946.711 772.53C945.705 772.51 944.751 772.08 944.069 771.34C943.388 770.6 943.038 769.614 943.101 768.61C943.091 767.755 943.342 766.918 943.821 766.21C944.473 765.256 945.555 764.687 946.711 764.69C947.717 764.71 948.671 765.139 949.353 765.88C950.034 766.62 950.384 767.606 950.321 768.61C950.328 769.466 950.073 770.303 949.591 771.01C948.944 771.965 947.864 772.535 946.711 772.53Z" fill="#305F67"/><path id="Shape_3" fill-rule="evenodd" clip-rule="evenodd" d="M753.651 763.09C755.76 763.309 757.88 763.413 760.001 763.4C762.821 763.4 765.681 763.25 768.521 763.05C769.026 763.024 769.519 762.997 770.005 762.971C771.79 762.873 773.479 762.78 775.311 762.78H782.311L782.359 762.78C786.954 762.76 791.707 762.739 796.381 762.52L796.414 762.519C800.548 762.449 805.662 762.363 809.961 759.8C812.697 758.14 814.683 755.484 815.501 752.39C816.131 750.083 815.811 747.619 814.611 745.55C814.135 744.763 813.27 744.296 812.351 744.33L765.961 746.44H763.821C760.411 746.36 755.751 746.3 753.191 749.3C751.311 751.53 750.741 755.33 751.441 760.91C751.586 762.06 752.499 762.961 753.651 763.09ZM768.271 758.11C764.254 758.394 760.224 758.454 756.201 758.29H756.171C755.901 754.32 756.621 752.94 757.001 752.56C757.924 751.463 760.85 751.477 763.072 751.488C763.282 751.489 763.486 751.49 763.681 751.49H766.161L810.751 749.49C810.827 750.079 810.786 750.677 810.631 751.25C810.133 753.054 808.967 754.602 807.371 755.58C804.266 757.451 800.021 757.519 796.303 757.579L796.251 757.58H796.171C791.571 757.84 786.841 757.84 782.271 757.84C781.503 757.84 780.731 757.837 779.955 757.833C778.396 757.827 776.827 757.82 775.271 757.84C773.278 757.866 771.256 757.964 769.273 758.061C768.938 758.078 768.604 758.094 768.271 758.11Z" fill="#305F67"/><path id="Shape_4" fill-rule="evenodd" clip-rule="evenodd" d="M652.46 727.92C655.42 728.911 658.53 729.381 661.65 729.31C663.72 729.31 665.79 729.17 667.85 729.03C668.245 729.005 668.642 728.974 669.04 728.944C670.056 728.867 671.079 728.79 672.07 728.79C694.08 728.07 717.14 727.37 739.45 726.7L742.445 726.61C763.821 725.968 785.833 725.307 806.85 724.61C808.072 724.562 809.081 723.641 809.24 722.43C819.57 643.18 817.23 558.01 802.48 476.12C802.269 474.939 801.25 474.075 800.05 474.06L749.94 473.31L749.895 473.309C743.575 473.219 734.035 473.083 727.53 478.66C723.02 482.52 720.9 488.3 719.2 492.94L639.91 709.88C639.05 712.396 639.248 715.153 640.46 717.52C642.78 722.54 648.31 726.43 652.46 727.92ZM730.75 482.48C734.95 478.88 741.01 478.31 747.52 478.31L749.89 478.35L797.89 479.07C812.1 559.11 814.39 642.23 804.53 719.72C783.912 720.376 762.428 721.023 741.552 721.651L739.27 721.72C716.96 722.39 693.88 723.09 671.88 723.82C670.593 723.863 669.305 723.945 668.044 724.024C667.855 724.036 667.668 724.048 667.48 724.06C662.72 724.39 658.23 724.69 654.15 723.23C650.36 721.87 646.4 718.51 644.95 715.42C644.311 714.254 644.174 712.879 644.57 711.61L723.87 494.68L723.895 494.613C725.469 490.32 727.249 485.464 730.75 482.48Z" fill="#305F67"/><path id="Shape_5" fill-rule="evenodd" clip-rule="evenodd" d="M850.38 721.46C857.82 721.72 864.84 721.85 871.57 721.85C897.246 722.033 922.868 719.499 948.01 714.29C949.302 714.037 950.177 712.826 950.01 711.52C942.67 654.15 932.55 600.39 917.23 537.21C914.28 525.04 904 499.5 898.13 485.35C895.742 479.572 890.354 475.589 884.13 475C873 473.92 856.44 472.99 840.8 474.73C840.125 474.799 839.507 475.142 839.092 475.678C838.676 476.215 838.498 476.899 838.6 477.57C851.82 568.6 854.89 647.48 847.98 718.72C847.92 719.405 848.142 720.085 848.595 720.603C849.048 721.12 849.693 721.43 850.38 721.46ZM944.71 709.85C914.79 715.76 888.7 717.67 853.21 716.55C859.76 646.29 856.72 568.66 843.92 479.44C859.19 478.04 875.2 479.16 883.65 479.98C888.019 480.409 891.795 483.212 893.47 487.27C898.14 498.55 909.32 526.11 912.32 538.39C927.39 600.53 937.41 653.53 944.71 709.85Z" fill="#305F67"/><path id="Path_60" d="M670.17 842.42C667.6 819.42 654.72 802.63 638.17 800.57C622.67 798.64 608.3 810.12 600.62 830.57C596.62 842.35 596.19 861.12 599.54 874.23C605.93 899.23 620.69 907.79 633.13 907.79C634.74 907.791 636.346 907.647 637.93 907.36C657.15 903.88 674.42 880.43 670.17 842.42Z" fill="#1B1812"/><path id="Path_61" d="M664 844.23C661.87 824.59 651.14 810.23 637.3 808.6C621.98 806.75 611.3 820.6 606.3 834.21C603.05 844.21 602.67 860.08 605.41 871.21C609.83 889.05 620.41 899.83 633.02 899.83C634.362 899.826 635.7 899.706 637.02 899.47C653.08 896.59 667.5 876.71 664 844.23Z" fill="#3F3931"/><path id="Path_62" d="M649.51 849.39C648.34 839.8 642.63 832.94 634.98 831.91C629.25 831.15 621.62 834.02 617.35 844.47C615.57 849.3 615.35 856.98 616.85 862.34C618.91 869.7 624.35 876.45 632.22 876.45C633.191 876.444 634.158 876.347 635.11 876.16C643.68 874.45 651.38 864.71 649.51 849.39Z" fill="#718F99"/><path id="Path_63" d="M646 843.47C645.02 840.525 642.898 838.096 640.11 836.73V836.73C636.42 835.07 631.94 836.23 629.91 839.36C628.41 841.67 628.28 844.82 629.55 848.22C631.16 852.56 634.92 856.6 639.82 856.6C640.69 856.596 641.555 856.472 642.39 856.23C644.086 855.791 645.511 854.643 646.3 853.08C648 849.73 646.68 845.24 646 843.47Z" fill="#A3B6B7"/><path id="Path_64" d="M958.17 842.42C955.6 819.42 942.72 802.63 926.17 800.57C910.67 798.64 896.3 810.12 888.62 830.57C884.62 842.35 884.19 861.12 887.54 874.23C893.93 899.23 908.69 907.79 921.13 907.79C922.74 907.791 924.346 907.647 925.93 907.36C945.15 903.88 962.42 880.43 958.17 842.42Z" fill="#1B1812"/><path id="Path_65" d="M952 844.23C949.87 824.59 939.14 810.23 925.3 808.6C909.98 806.75 899.3 820.6 894.3 834.21C891.05 844.21 890.67 860.08 893.41 871.21C897.83 889.05 908.41 899.83 921.02 899.83C922.362 899.826 923.7 899.706 925.02 899.47C941.08 896.59 955.5 876.71 952 844.23Z" fill="#3F3931"/><path id="Path_66" d="M937.51 849.39C936.34 839.8 930.63 832.94 922.98 831.91C917.25 831.15 909.62 834.02 905.35 844.47C903.57 849.3 903.35 856.98 904.85 862.34C906.91 869.7 912.35 876.45 920.22 876.45C921.191 876.444 922.158 876.347 923.11 876.16C931.68 874.45 939.38 864.71 937.51 849.39Z" fill="#718F99"/><path id="Path_67" d="M933 843.47C932.02 840.525 929.898 838.096 927.11 836.73V836.73C923.42 835.07 918.94 836.23 916.91 839.36C915.41 841.67 915.28 844.82 916.55 848.22C918.16 852.56 921.92 856.6 926.82 856.6C927.69 856.596 928.555 856.472 929.39 856.23C931.086 855.791 932.511 854.643 933.3 853.08C935 849.73 933.68 845.24 933 843.47Z" fill="#A3B6B7"/><path id="Path_68" d="M483.54 786.93H483.23C435.904 781.18 388.056 781.18 340.73 786.93C339.837 787.037 338.954 786.66 338.415 785.94C337.876 785.22 337.761 784.267 338.115 783.44C338.469 782.613 339.237 782.037 340.13 781.93C387.858 776.13 436.112 776.13 483.84 781.93C485.221 782.013 486.273 783.199 486.19 784.58C486.107 785.961 484.921 787.013 483.54 786.93V786.93Z" fill="#305F67"/><path id="Path_69" d="M337.33 792.24C332.839 792.148 328.505 793.893 325.33 797.07C322.33 799.94 319.15 805.15 319.16 809.81C319.11 812.151 320.042 814.407 321.73 816.03C324.487 818.655 328.164 820.091 331.97 820.03C336.086 819.99 340.071 818.583 343.3 816.03C346.92 813.13 350.43 808.03 349.42 802.28C348.47 796.85 343.26 792.52 337.33 792.24Z" fill="#F6F1BD"/><path id="Path_70" d="M492.239 793.88C488.162 791.012 482.957 790.268 478.239 791.88C473.677 793.502 469.96 796.894 467.929 801.29C466.761 803.675 466.267 806.334 466.499 808.98C466.879 812.72 468.089 815.35 470.199 817.04C473.075 819.491 476.694 820.9 480.469 821.04H480.999C485.153 820.752 489.085 819.059 492.149 816.24C494.938 813.936 496.88 810.77 497.669 807.24C498.53 802.118 496.429 796.949 492.239 793.88V793.88Z" fill="#F6F1BD"/><path id="Path_71" d="M404.101 803.28C402.72 803.418 401.489 802.411 401.351 801.03C401.212 799.649 402.22 798.418 403.601 798.28C407.395 797.508 411.292 797.372 415.131 797.88C416.024 797.998 416.786 798.583 417.131 799.416C417.475 800.248 417.349 801.201 416.801 801.916C416.252 802.63 415.364 802.998 414.471 802.88C411.185 802.442 407.849 802.557 404.601 803.22C404.436 803.254 404.269 803.275 404.101 803.28V803.28Z" fill="#305F67"/><path id="Path_72" d="M983.5 911H318.5C317.119 911 316 909.881 316 908.5C316 907.119 317.119 906 318.5 906H983.5C984.881 906 986 907.119 986 908.5C986 909.881 984.881 911 983.5 911V911Z" fill="#1B1812"/><path id="Path_73" d="M702.74 705.42C701.262 698.397 697.491 692.065 692.02 687.42C682.3 679.52 667.14 678.98 655.14 686.09C645.14 692.01 637.4 702.73 633.32 716.25C631.75 721.45 632.26 725.76 632.97 730.08C633.68 734.4 635.51 740.6 639.9 744.22V744.22C646.988 749.901 655.817 752.963 664.9 752.89C672.061 752.936 679.094 750.998 685.22 747.29C699 738.79 706.33 721.18 702.74 705.42Z" fill="#2697A8"/><path id="Path_74" d="M1002.06 787.23C1002.74 780.041 1002.97 772.817 1002.75 765.6C1002.68 762.367 1002.55 759.137 1002.37 755.91C1001.88 747.13 1000.95 738.38 999.71 729.68C999.08 725.31 998.36 720.96 997.6 716.61C996.513 716.565 995.425 716.625 994.35 716.79C990.58 717.333 987.304 719.66 985.55 723.04C983.55 726.93 983.63 731.93 983.77 736.61C984.11 748.31 984.443 760.007 984.77 771.7C984.88 775.21 985.02 778.9 986.49 781.91C988.94 786.91 994.26 788.39 998.87 787.91C999.93 787.81 1000.98 787.64 1002.03 787.45C1002.05 787.41 1002.05 787.32 1002.06 787.23Z" fill="#C14C63"/><path id="Shape_6" fill-rule="evenodd" clip-rule="evenodd" d="M984.279 783.01C986.589 787.8 991.379 790.54 997.279 790.54C997.879 790.54 998.509 790.513 999.169 790.46C1000.43 790.34 1001.64 790.13 1002.56 789.96C1003.64 789.745 1004.45 788.847 1004.56 787.75V787.48C1005.24 780.191 1005.48 772.867 1005.26 765.55C1005.19 762.41 1005.06 759.12 1004.87 755.77C1004.4 747.33 1003.52 738.64 1002.19 729.33C1001.62 725.34 1000.95 721.18 1000.08 716.18C999.872 715.012 998.875 714.149 997.689 714.11C996.445 714.064 995.2 714.134 993.969 714.32C989.407 714.981 985.444 717.804 983.329 721.9C981.159 726.16 981.119 731.11 981.279 736.68L982.279 771.77C982.282 771.834 982.284 771.898 982.287 771.962C982.415 775.348 982.572 779.497 984.279 783.01ZM994.749 719.26L995.509 719.16C996.199 723.18 996.749 726.68 997.189 730.05C998.499 739.21 999.369 747.72 999.829 756.05C1000.01 759.35 1000.14 762.58 1000.21 765.66C1000.4 772.228 1000.23 778.801 999.689 785.35L998.609 785.47C996.899 785.63 991.119 785.81 988.699 780.81C987.432 778.215 987.33 774.723 987.24 771.648L987.239 771.63L986.239 736.54C986.119 732.57 985.979 727.64 987.749 724.17C989.147 721.494 991.757 719.663 994.749 719.26Z" fill="#C14C63"/><path id="Path_75" d="M553.001 681.14C572.371 655.64 584.801 623.92 610.541 604.86C623.161 595.51 638.471 589.66 650.441 579.75C658.154 559.123 665.574 538.39 672.701 517.55C674.941 511.003 677.151 504.447 679.331 497.88C680.069 495.887 680.68 493.85 681.161 491.78C681.568 489.964 682.179 488.199 682.981 486.52C684.443 483.123 684.683 479.324 683.661 475.77C682.801 472.94 680.711 473.03 678.141 472.65C676.141 472.36 674.221 472.11 672.261 471.87C666.481 485.65 656.181 497.66 644.421 507.11C628.531 519.87 610.001 528.72 592.001 538.27C564.411 552.93 537.131 570.11 518.671 595.27C506.431 612 498.521 631.68 485.421 647.73C469.421 667.34 447.071 679.98 423.781 690.55L416.881 710.61C415.991 713.2 415.101 717.74 417.961 720.17C420.821 722.6 425.691 722.61 427.391 722.61H506.391C524.429 711.883 540.249 697.807 553.001 681.14Z" fill="white"/><path id="Path_76" d="M450.57 622.39C457.013 618.765 463.097 614.536 468.74 609.76C485.64 595.54 498.88 577.54 512.12 559.86C525.36 542.18 539.01 524.43 556.49 510.86C569.19 501.04 583.61 493.7 596.93 484.71C604.14 479.969 610.807 474.449 616.81 468.25C612.397 468.183 607.98 468.16 603.56 468.18C588.933 468.267 574.327 468.917 559.74 470.13C541.08 483.67 522.51 497.62 507.74 515.31C494.43 531.31 483.86 550.65 467.57 562.97L446.42 624.52C447.84 623.87 449.21 623.15 450.57 622.39Z" fill="white"/><path id="Shape_7" fill-rule="evenodd" clip-rule="evenodd" d="M427.379 725.15H556.869C569.489 725.15 577.999 725 581.249 724.08C587.316 722.471 592.819 719.214 597.149 714.67C598.863 712.646 600.259 710.373 601.289 707.93L601.789 706.93C602.856 704.709 603.807 702.421 604.728 700.206L604.789 700.06C604.998 699.543 605.212 699.031 605.428 698.517C605.491 698.365 605.555 698.213 605.619 698.06C614.309 677.4 624.389 653.29 633.989 629.29C648.539 592.85 662.359 555.54 675.059 518.39C677.299 511.83 679.529 505.21 681.689 498.69C681.873 498.163 682.152 497.253 682.487 496.164C682.571 495.889 682.659 495.604 682.749 495.31L682.899 494.823C683.713 492.183 684.827 488.565 685.269 487.54C686.958 483.6 687.231 479.197 686.039 475.08C684.81 471.032 681.642 470.62 679.332 470.32L679.329 470.32L678.489 470.2C670.009 468.95 661.269 468.24 653.559 467.62C637.029 466.28 620.209 465.66 603.559 465.76C586.909 465.86 570.099 466.7 553.559 468.24C542.799 469.25 531.929 470.58 521.269 472.19C513.859 473.31 505.329 474.89 498.329 479.54C496.233 480.778 494.594 482.662 493.659 484.91C491.909 488.25 490.329 491.63 488.909 494.98C486.084 501.647 483.708 508.543 481.407 515.221L481.249 515.68L414.509 709.87C412.689 715.15 413.329 719.62 416.329 722.15C419.899 725.15 425.379 725.15 427.379 725.15ZM603.579 470.72H607.089C622.439 470.72 637.909 471.34 653.109 472.65L653.435 472.676C660.956 473.29 669.508 473.987 677.709 475.2L678.629 475.33C680.898 475.579 680.949 475.748 681.195 476.567L681.199 476.58C682.052 479.557 681.847 482.737 680.619 485.58C680.089 486.85 679.129 489.92 677.919 493.85C677.509 495.26 677.129 496.48 676.919 497.13C674.759 503.63 672.529 510.24 670.299 516.78C657.609 553.85 643.819 591.09 629.299 627.45C619.719 651.46 609.649 675.49 600.969 696.13L600.129 698.13C599.239 700.32 598.289 702.58 597.239 704.7L596.719 705.77C595.892 707.741 594.791 709.586 593.449 711.25C589.742 715.112 585.044 717.879 579.869 719.25C576.639 720.14 563.289 720.14 556.869 720.14H427.369C425.979 720.14 421.729 720.14 419.559 718.3C417.629 716.66 418.819 712.65 419.229 711.45L485.969 517.26L486.085 516.924C488.369 510.289 490.726 503.439 493.509 496.88C494.869 493.66 496.409 490.4 498.089 487.17L498.103 487.144C499.161 485.157 499.327 484.845 501.089 483.67C507.279 479.59 515.139 478.09 522.029 477.09C532.589 475.5 543.359 474.18 554.029 473.18C570.419 471.65 587.089 470.82 603.579 470.72Z" fill="#305F67"/><path id="Path_77" d="M505.751 707.73C506.628 707.551 507.343 706.918 507.627 706.069C507.911 705.221 507.72 704.285 507.127 703.614C506.534 702.944 505.628 702.641 504.751 702.82L437.111 715.9C435.777 716.181 434.914 717.478 435.17 718.817C435.426 720.155 436.708 721.042 438.051 720.81L469.701 714.69L466.151 719.05C465.331 720.124 465.514 721.655 466.563 722.507C467.612 723.358 469.148 723.223 470.031 722.2L476.661 714.07C476.854 713.83 477 713.555 477.091 713.26L505.751 707.73Z" fill="#305F67"/><path id="Path_78" d="M573.901 708.16C573.816 707.501 573.472 706.903 572.944 706.499C572.416 706.095 571.749 705.919 571.091 706.01L503.921 714.92C502.54 715.011 501.494 716.204 501.586 717.585C501.677 718.966 502.87 720.011 504.251 719.92H504.581L535.741 715.78C534.837 716.767 534.008 717.82 533.261 718.93C532.493 720.079 532.802 721.632 533.951 722.4C535.099 723.168 536.653 722.859 537.421 721.71C539.004 719.333 541.043 717.293 543.421 715.71C543.826 715.441 544.142 715.058 544.331 714.61L571.751 710.97C572.409 710.883 573.005 710.538 573.408 710.011C573.811 709.484 573.989 708.818 573.901 708.16Z" fill="#305F67"/><path id="Path_79" d="M559.31 849.64C558.66 843.88 557.49 837.26 553.72 831.81C549.972 826.526 543.868 823.42 537.39 823.5H316.6C316.418 823.5 316.237 823.52 316.06 823.56C313.445 824.008 310.784 824.125 308.14 823.91C306.53 823.85 304.88 823.79 303.22 823.85C296.94 824.09 292.07 826.31 289.52 830.1C287.32 833.37 287.09 837.23 287.03 840.91C286.991 845.422 287.201 849.932 287.66 854.42C288.624 864.864 297.411 872.84 307.9 872.79H525.09C527.15 872.79 530.02 873.06 532.8 873.31C535.8 873.58 538.88 873.87 541.34 873.87H541.9C547.78 873.76 552.9 871.49 555.98 867.67C560.14 862.44 560 855.29 559.31 849.64Z" fill="#305F67"/><path id="Path_80" d="M1008 798.35C1004.06 794.35 998.331 794.35 993.251 794.9C986.481 795.59 979.611 797 975.251 802.58C971.161 807.82 970.841 815.13 970.601 820.46L969.601 842.73C969.241 850.38 968.701 861.95 979.501 863.73C981.483 864.073 983.49 864.247 985.501 864.25C994.931 864.25 1001.77 860.25 1005.07 856.25C1009.94 850.4 1010.7 842.42 1011.07 834.06L1011.98 814.94C1012.35 809.2 1012.29 802.62 1008 798.35Z" fill="#305F67"/></g></g></g></g><g id="Hair" transform="translate(656 467) scale(1 1)"><g id="Hair/Wavy"><g id="long"><g id="hair"><path id="Path" d="M162.11 129.45C158.5 124.93 157.41 119.02 156.25 112.76C155.25 107.33 154.25 101.76 151.42 96.76C150.224 94.6343 148.755 92.6743 147.05 90.93V90.93V90.93C137.97 80.93 124.99 78.21 112.47 76.25C107.4 75.46 101.95 74.85 96.5499 75.78C90.3999 76.84 85.1499 79.94 82.1499 84.27C78.4799 89.56 78.4299 96.78 82.0299 101.42C86.0299 106.59 92.8499 107.61 99.6199 107.94C101.09 108.01 102.92 108.04 104.98 108.04C114.83 108.04 130.19 107.32 139.68 106.79C140.43 106.79 141.18 106.89 141.92 106.98C144.149 107.164 146.283 107.968 148.08 109.3C151.56 112.16 151.85 117.16 150.61 120.85C149.077 125.296 145.653 128.833 141.26 130.51C139.026 131.341 136.631 131.649 134.26 131.41L134.1 132.19C133.52 135.19 132.54 140.19 128.62 142.77C126.437 144.062 123.923 144.681 121.39 144.55H120.3C120.66 145.01 121.04 145.46 121.45 145.89C124.839 149.386 129.501 151.359 134.37 151.36C135.227 151.361 136.083 151.298 136.93 151.17C138.029 150.993 138.875 150.106 139 149L139.68 144.66C144.419 146.802 149.451 148.224 154.61 148.88C155.493 148.993 156.37 148.628 156.911 147.921C157.453 147.215 157.578 146.274 157.24 145.45L152.94 135.01C155.743 134.918 158.51 134.347 161.12 133.32C161.853 133.024 162.402 132.398 162.599 131.632C162.797 130.867 162.619 130.053 162.12 129.44L162.11 129.45Z" fill="#796235"/></g></g></g></g><g id="Facial Hair" transform="translate(656 466) scale(220 200)"><g id="Facial Hair/None" stroke="none" stroke-width="1" fill="none" fill-rule="evenodd" fill-opacity="0"/></g><g id="Accessories" transform="translate(656 462) scale(1 1)"><g id="Accessories/Hat"><g id="hat"><g id="hair"><path id="Path" d="M141.11 100.31L140.79 98.52C139.33 90.43 137.67 81.26 130.56 76.08C122.47 70.19 109.68 71.57 105.95 72.08C92.5198 74.08 84.6098 82.6 82.4298 97.31C82.2434 98.5856 83.0576 99.7938 84.3098 100.1C96.0982 102.941 108.184 104.361 120.31 104.33C126.556 104.356 132.799 103.992 139 103.24C139.683 103.158 140.302 102.796 140.71 102.241C141.117 101.686 141.276 100.987 141.15 100.31H141.11Z" fill="#796235"/><path id="Path" d="M150.86 97.7C150.377 97.2288 149.724 96.9727 149.05 96.99C121.05 97.7 95.87 97.99 71.05 93.9C69.8297 93.6975 68.6457 94.4215 68.27 95.6C66.86 99.93 69.54 104.31 72.9 106.4C75.96 108.3 79.41 108.74 82.97 109.06C91.13 109.8 106.23 110.43 119.7 110.43C132.61 110.43 144.02 109.85 146.3 108.24C150.67 105.16 151.59 101.78 151.59 99.49C151.595 98.8198 151.333 98.1753 150.86 97.7V97.7Z" fill="#796235"/><path id="Path" d="M118.35 96.92C109.01 96.92 98.3502 96.58 86.2702 95.92C85.377 95.87 84.5784 95.3473 84.1751 94.5488C83.7718 93.7503 83.8252 92.7973 84.3151 92.0488C84.805 91.3003 85.657 90.87 86.5502 90.92C107.16 92.09 123.4 92.25 136.2 91.42C137.093 91.3628 137.949 91.7865 138.445 92.5314C138.941 93.2764 139.002 94.2294 138.605 95.0314C138.208 95.8335 137.413 96.3628 136.52 96.42C131.09 96.74 125.05 96.92 118.35 96.92Z" fill="#412955"/></g></g></g></g></g></g></g></svg>