<svg viewBox="624 499.1322314049585 312.0000000000003 407.8512396694217" fill="none" xmlns="http://www.w3.org/2000/svg" xmlns:xlink="http://www.w3.org/1999/xlink" overflow="visible" width="312.0000000000003px" height="407.8512396694217px"><g id="Master/Stickers/Location"><g id="marker"><g id="signs"><path id="Path" d="M629.49 594.83C636.94 560.91 653 538.1 680.17 523C700.17 511.89 725.05 505.72 754.01 504.66C778.75 503.76 807.42 505.26 807.7 505.27C808.76 505.321 809.673 506.035 809.977 507.052C810.281 508.069 809.909 509.167 809.05 509.79C808.47 510.21 751.05 552.21 738.9 567.11C723.85 585.64 713.74 611.88 711.9 637.3C710.15 661.09 725.98 704.38 737.53 735.99C741.34 746.4 744.63 755.401 746.97 762.711C755.53 789.421 798.61 899.441 799.04 900.551C799.341 901.32 799.242 902.189 798.776 902.871C798.31 903.553 797.537 903.961 796.71 903.961H758.71C757.975 903.964 757.276 903.641 756.8 903.081C727.24 868.221 704.56 831 680.54 791.6L674.79 782.171C657.34 753.681 642.66 712.79 633.13 684.51C623.22 655.19 622.14 628.36 629.49 594.83Z" fill="#E03B36"/><path id="Path_2" d="M751.861 706.931C751.48 706.145 751.533 705.218 752.001 704.481C752.474 703.747 753.298 703.314 754.171 703.341H756.061C793.845 703.446 824.671 673.113 825.175 635.331C825.68 597.55 795.674 566.405 757.901 565.501C756.941 565.482 756.079 564.909 755.691 564.031C755.294 563.16 755.43 562.138 756.041 561.401C776.961 536.261 838.721 546.581 841.341 547.031C842.023 547.145 842.625 547.541 843.001 548.121L896.741 629.871C897.272 630.689 897.272 631.743 896.741 632.561L843.151 718.561C842.794 719.134 842.22 719.538 841.561 719.681C827.343 722.585 812.881 724.135 798.371 724.311C778.841 724.371 758.601 720.721 751.861 706.931Z" fill="#E03B36"/><path id="Shape" fill-rule="evenodd" clip-rule="evenodd" d="M712.74 782.17C695.69 753.04 680.69 713 671.1 684.55C661.21 655.19 660.13 628.36 667.49 594.83C674.93 560.91 691.04 538.1 718.17 523.04C738.2 511.93 763 505.76 792 504.7C815.16 503.85 839 510.85 862.83 525.5C884 538.5 897.87 551.5 906.46 566.5C918.33 587.21 923.18 614.26 920.18 642.65C916.76 674.52 905.76 704.57 893.76 735.12C884.42 758.97 872.19 784.18 856.42 812.18C838.749 843.425 819.481 873.738 798.69 903C798.234 903.611 797.523 903.98 796.76 904H796.65C795.916 903.999 795.218 903.678 794.74 903.12C764.29 867.17 739.93 828.76 712.74 782.17ZM730.7 607.208C719.825 632.507 725.05 661.851 743.99 681.84H744C756.541 695.146 773.881 702.887 792.16 703.34H794.05C831.832 703.438 862.652 673.104 863.154 635.325C863.655 597.547 833.652 566.405 795.88 565.5H794C766.463 565.51 741.575 581.909 730.7 607.208Z" fill="#FF625A"/><path id="Path_3" d="M870.19 905H675.58C674.199 905 673.08 903.881 673.08 902.5C673.08 901.119 674.199 900 675.58 900H870.19C871.571 900 872.69 901.119 872.69 902.5C872.69 903.881 871.571 905 870.19 905Z" fill="#1B1812"/></g></g></g></svg>