<svg viewBox="90 60.00000000000006 420.00000000000006 539.9999999999998" fill="none" xmlns="http://www.w3.org/2000/svg" xmlns:xlink="http://www.w3.org/1999/xlink" overflow="visible" width="420.00000000000006px" height="539.9999999999998px"><g id="Master/Hands/Phone"><g id="base"><path id="Path" d="M368.288 207.312C368.424 206.623 368.912 206.056 369.572 205.818C374.555 204.024 379.652 202.566 384.801 201.461C385.047 201.405 385.299 201.345 385.628 201.268C389.87 200.265 391.334 200.013 393.49 200.147C396.535 200.336 399.091 201.64 401.246 204.303C404.338 208.131 406.387 213.221 407.429 218.919C408.028 222.281 407.383 227.079 405.682 229.8C403.78 232.886 400.687 235.625 396.22 238.611C395.422 239.144 394.59 239.68 393.628 240.282C393.252 240.519 392.867 240.758 392.389 241.053C392.22 241.158 391.426 241.648 391.212 241.781C389.427 242.884 387.923 243.887 384.966 245.911C384.643 246.133 384.643 246.133 384.319 246.355C379.831 249.427 377.464 250.948 374.52 252.531C369.82 254.931 365.373 257.796 361.246 261.084C359.789 262.245 357.677 260.959 358.038 259.132L368.288 207.312Z" fill="#b17606"/><path id="Path" d="M381.172 325.75C394.319 323.467 418.826 315.922 423.539 311.039C428.146 306.326 429.856 299.871 429.788 291.105C429.768 288.596 429.636 286.352 429.323 282.413L429.224 281.162C428.468 272.875 426.899 264.706 424.537 256.751C421.797 247.129 417.531 244.934 405.752 245.573C393.563 246.376 381.472 248.061 369.551 250.614C368.516 250.836 367.833 251.825 367.993 252.871L378.853 324.081C379.022 325.189 380.068 325.942 381.172 325.75Z" fill="#b17606"/><path id="Path" d="M424.568 278.197C421.538 278.598 418.031 279.02 413.841 279.494C410.734 279.846 407.577 280.191 402.751 280.71C389.277 282.158 386.564 282.457 381.536 283.075C380.44 283.21 379.66 284.208 379.795 285.304C379.93 286.4 380.928 287.18 382.024 287.045C387.022 286.431 389.732 286.133 403.179 284.687C408.012 284.167 411.175 283.822 414.291 283.469C418.504 282.992 422.034 282.567 425.092 282.163C426.187 282.018 426.957 281.013 426.813 279.918C426.668 278.823 425.663 278.053 424.568 278.197Z" fill="#744b15"/><path id="Path" d="M353.648 301.286C346.272 292.094 338.898 285.361 331.189 281.374C320.379 275.77 307.952 272.16 296.514 271.744C282.869 271.247 271.213 275.223 262.893 284.201C261.074 286.168 259.623 288.641 258.254 291.963L252.462 273.122C252.042 271.756 250.366 271.259 249.268 272.175C245.438 275.372 239.9 283.143 233.02 294.383C228.391 301.947 223.98 309.696 219.526 317.818C218.385 319.904 217.212 322.237 216.004 324.813C213.032 331.152 209.91 338.816 206.468 348.037C204.835 352.415 203.191 356.972 201.25 362.467C200.447 364.739 197.44 373.316 196.755 375.253C187.139 402.428 181.36 432.211 174.948 479.511C173.69 488.804 172.668 502.602 171.852 519.734C171.302 531.279 170.878 568.645 170.565 581.01C170.455 585.338 170.367 589.356 170.299 592.963C170.275 594.226 170.255 595.347 170.239 596.313C170.233 596.652 170.23 596.849 170.225 597.197C170.221 597.449 170.221 597.449 170.22 597.502C170.204 598.616 171.103 599.529 172.218 599.53L331.148 599.7C332.253 599.701 333.15 598.805 333.15 597.7C333.15 555.141 335.414 474.746 339.426 455.947C342.645 440.902 348.527 422.444 355.166 405.905C358.282 398.125 361.992 389.707 366.99 378.895C368.49 378.663 369.98 378.369 371.457 378.015C378.578 376.258 380.672 375.708 384.336 374.522C398.537 369.926 407.062 363.4 408.58 352.824C409.816 344.226 405.878 332.63 399.754 326.757C395.364 322.549 389.265 321.45 381.163 322.409C378.747 322.695 376.393 323.116 372.985 323.825C372.471 323.932 370.766 324.291 370.525 324.341C370.183 324.412 369.872 324.477 369.583 324.536C363.363 314.466 358.908 307.843 353.648 301.286Z" fill="#b17606"/><path id="Path" d="M356.092 341.941C343.885 343.215 336.841 353.196 340.391 364.528C340.42 364.62 341.697 369.032 342.183 370.5C343.505 374.495 344.896 377.231 346.827 378.866C352.135 383.368 357.326 384.233 364.598 382.442C365.671 382.178 366.326 381.094 366.062 380.022C365.798 378.949 364.714 378.294 363.642 378.558C357.535 380.062 353.659 379.416 349.414 375.815C348.214 374.799 347.083 372.574 345.98 369.243C345.523 367.862 344.261 363.5 344.21 363.337C341.434 354.475 346.753 346.938 356.508 345.919C357.606 345.805 358.404 344.821 358.289 343.722C358.174 342.624 357.191 341.826 356.092 341.941Z" fill="#744b15"/><path id="Path" d="M346.232 347.779L346.226 347.78C335.901 349.591 305.761 351.109 292.347 350.81C290.976 350.78 289.592 350.765 287.616 350.753C287.279 350.751 287.01 350.749 286.402 350.746C273.274 350.675 267.708 350.208 261.593 347.923C253.302 344.826 247.959 338.655 245.649 328.451C243.176 317.519 241.409 305.742 239.815 290.84C239.22 285.282 238.911 282.057 237.833 270.474C237.613 268.105 237.457 266.436 237.299 264.779C235.893 249.948 234.624 233.573 232.805 207.838C232.977 210.276 231.089 183.38 230.584 176.379C229.882 166.63 229.28 158.66 228.696 151.48C227.245 133.393 227.03 115.304 229.448 108.052C232.391 98.9974 240.305 92.4622 249.703 91.2921C273.593 87.7087 303.616 84.9989 319.542 85.3305C320.967 85.3603 322.227 85.3731 324.962 85.3913C333.027 85.445 336.784 85.5413 341.533 85.9304C356.575 87.1629 367.079 91.0208 373.118 99.3142C376.41 103.844 378.357 110.386 379.574 119.204C379.879 121.412 380.133 123.719 380.38 126.395C380.474 127.421 380.564 128.453 380.675 129.79C380.655 129.544 380.88 132.265 380.939 132.958C381.013 133.825 381.078 134.547 381.142 135.217C381.19 135.75 381.19 135.75 381.239 136.282C383.248 158.238 383.307 158.871 384.137 167.073C384.703 172.66 385.261 177.828 385.836 182.765C391.064 226.993 394.198 264.3 395.369 300.485C395.903 316.815 393.467 327.92 384.999 335.191C380.981 338.622 374.438 341.374 365.855 343.69C362.321 344.644 358.59 345.483 354.542 346.272C353.019 346.568 351.521 346.845 349.827 347.146C349.132 347.269 346.723 347.691 346.232 347.779Z" fill="#1A4E66"/><path id="Path_2" d="M341.79 339.43C329.934 340.746 318.008 341.327 306.08 341.17C288.67 340.79 274.02 343.11 269.29 322.22C265.08 303.62 263.53 279.53 261.72 260.47C258.78 229.47 256.42 186.47 253.89 155.31C253.21 146.91 251.24 118.04 254.49 110.47C257.74 102.9 265.71 100.55 271.44 99.47C285.21 96.81 301.99 94.74 317.74 95.07C332.07 95.37 355.51 93.88 365.07 107.07C370.69 114.81 371.16 133.71 372.07 142.86C373.43 157.09 374.7 171.76 376.41 186.2C380.61 221.74 383.91 262.2 385.08 298.2C385.41 308.2 384.78 321.06 376.27 328.36C368.32 335.15 348.66 338.59 341.79 339.43Z" fill="white"/><path id="Path_3" d="M246.788 97.3375C241.89 100.613 240.316 108.96 240.539 122.137C240.595 125.481 240.755 128.785 241.048 133.377C241.089 134.028 241.265 136.733 241.308 137.406C241.399 138.842 241.46 139.907 241.502 140.841C241.896 149.385 242.493 159.296 243.404 172.968C243.532 174.893 243.668 176.907 243.823 179.198C243.925 180.707 244.534 189.678 244.704 192.198C245.032 197.052 245.283 200.858 245.504 204.337C247.562 237.069 250.673 271.987 254.841 310.674C255.984 321.364 258.372 331.377 261.982 338.377C262.489 339.358 263.695 339.744 264.677 339.237C265.658 338.731 266.044 337.525 265.537 336.543C262.198 330.068 259.913 320.49 258.819 310.247C254.656 271.613 251.55 236.753 249.496 204.084C249.274 200.598 249.023 196.788 248.695 191.929C248.525 189.407 247.916 180.436 247.814 178.928C247.659 176.638 247.523 174.625 247.395 172.702C246.486 159.055 245.891 149.167 245.498 140.658C245.454 139.697 245.392 138.611 245.3 137.154C245.257 136.476 245.081 133.769 245.04 133.123C244.751 128.588 244.593 125.337 244.538 122.07C244.341 110.358 245.758 102.838 249.012 100.662C249.93 100.048 250.176 98.8063 249.562 97.8881C248.948 96.97 247.706 96.7234 246.788 97.3375Z" fill="#0D323F"/><path id="Path" d="M221.233 381.359C219.718 381.324 218.792 379.682 219.544 378.367C222.139 373.83 225.092 369.029 228.751 363.336C230.254 360.998 231.813 358.606 233.886 355.447C234.548 354.439 236.975 350.746 236.782 351.04C237.942 349.275 238.806 347.956 239.645 346.672C241.786 343.392 243.535 340.673 245.146 338.107C257.681 318.14 270.731 302.213 284.8 291.243C292.858 284.961 302.414 286.579 308.462 295.134C311.631 299.608 311.778 304.679 309.673 310.715C308.846 313.088 307.829 315.292 306.026 318.831C303.698 323.398 303.705 323.385 303.041 324.895C300.63 330.382 299.081 339.831 298.739 348.636C298.596 352.398 299.034 356.686 299.989 361.567C300.73 365.354 301.73 369.29 303.134 374.167C303.427 375.187 303.731 376.224 304.115 377.522C304.216 377.863 304.874 380.08 305.058 380.704C305.442 382.004 304.449 383.301 303.093 383.269L221.233 381.359Z" fill="#b17606"/><path id="Path_4" d="M238.205 166.394C237.823 160.794 237.536 155.239 237.349 149.781C237.311 148.677 236.385 147.813 235.281 147.851C234.178 147.889 233.313 148.815 233.351 149.919C233.54 155.422 233.83 161.022 234.215 166.666C234.29 167.768 235.244 168.601 236.346 168.525C237.448 168.45 238.281 167.496 238.205 166.394Z" fill="#0D323F"/><path id="Path_5" d="M240.232 193.936C239.736 188.584 239.351 182.902 239.058 176.814C239.005 175.711 238.067 174.859 236.964 174.912C235.861 174.965 235.009 175.903 235.062 177.006C235.358 183.15 235.748 188.89 236.249 194.304C236.35 195.404 237.324 196.213 238.424 196.111C239.524 196.01 240.333 195.036 240.232 193.936Z" fill="#0D323F"/><path id="Path" d="M298.299 352.78C298.953 359.636 300.571 365.016 303.81 372.79C303.989 373.218 304.17 373.649 304.415 374.231C304.565 374.587 304.565 374.587 304.714 374.94C304.862 375.293 304.922 375.436 305.009 375.643C305.48 376.764 305.822 377.59 306.144 378.394C306.554 379.419 307.718 379.917 308.744 379.507C309.769 379.096 310.267 377.932 309.857 376.906C309.525 376.078 309.176 375.234 308.697 374.093C308.609 373.885 308.549 373.741 308.4 373.387C308.251 373.033 308.251 373.033 308.101 372.678C307.858 372.101 307.679 371.674 307.503 371.252C304.404 363.815 302.89 358.779 302.281 352.4C302.176 351.3 301.2 350.494 300.1 350.599C299.001 350.704 298.194 351.68 298.299 352.78Z" fill="#744b15"/><path id="Path" d="M221.306 375.423C223.847 370.981 226.748 366.264 230.348 360.664C231.847 358.332 233.403 355.944 235.477 352.786C236.14 351.777 238.56 348.096 238.385 348.363C239.55 346.59 240.421 345.262 241.265 343.968C243.426 340.659 245.194 337.911 246.824 335.313C247.411 334.378 247.129 333.143 246.193 332.556C245.258 331.969 244.023 332.251 243.436 333.187C241.82 335.761 240.065 338.491 237.916 341.782C237.074 343.071 236.206 344.396 235.042 346.166C235.218 345.898 232.797 349.58 232.133 350.591C230.053 353.758 228.49 356.157 226.983 358.501C223.349 364.154 220.414 368.927 217.834 373.437C217.286 374.396 217.618 375.618 218.577 376.166C219.536 376.715 220.758 376.382 221.306 375.423Z" fill="#744b15"/><path id="Path" d="M304.373 433.869C306.422 434.339 308.428 434.975 310.373 435.771C311.395 436.189 312.563 435.7 312.981 434.678C313.4 433.656 312.91 432.488 311.888 432.069C309.742 431.19 307.528 430.489 305.267 429.971C304.19 429.724 303.118 430.397 302.871 431.473C302.624 432.55 303.297 433.623 304.373 433.869Z" fill="#744b15"/></g><g id="Phone/Wear" transform="scale(1 1)"><g id="Phone/Wear/Hoodie 3"><g id="clothing"><path id="Path" d="M412.22 561.92C408.415 554.308 400.961 549.19 392.49 548.37C388.333 547.958 384.155 548.924 380.6 551.12C382.46 540.45 378.6 528.12 371 523.55C363.13 518.86 354.24 515.2 342.45 519.44C342.45 514.33 342.35 503.83 342.45 498.72C342.55 493.61 342.55 488.72 342.55 483.83C342.55 477.92 342.55 471.83 342.73 465.76C342.754 465.063 342.413 464.403 341.83 464.02C341.237 463.619 340.474 463.565 339.83 463.88C319.03 473.72 289.28 477.01 260.24 472.67C249.13 471 238 468 227.17 465.07C221.4 463.52 215.44 461.91 209.51 460.51C200.38 458.36 190.51 454.71 178.29 449.04C177.749 448.784 177.122 448.784 176.58 449.04C176.043 449.301 175.651 449.789 175.51 450.37C173.9 456.88 169.51 476.19 168.64 483.12C168.51 484.12 168.29 485.77 168.01 487.78C166.62 497.92 165.35 507.87 164.73 516C155.64 514.75 146.35 518.09 138.45 525.54C132.45 531.2 128.09 538.62 126.84 544.83C124.367 542.519 121.207 541.079 117.84 540.73C113.59 540.43 109.42 542.26 105.46 546.16C96.7004 554.78 93.2704 572.73 98.1204 584.56C101.12 591.88 106.87 599.99 114.31 599.99H387.31C401.22 599.99 407.95 589.89 411.15 584.83C415.31 577.851 415.711 569.256 412.22 561.92Z" fill="#1A4E66"/><path id="Combined Shape" fill-rule="evenodd" clip-rule="evenodd" d="M185.041 454.689C179.759 480.502 176.285 502.075 176.001 515.929C175.978 517.033 176.855 517.947 177.959 517.97C179.063 517.993 179.977 517.116 180 516.011C180.278 502.486 183.728 481.058 188.96 455.491C189.181 454.409 188.483 453.352 187.401 453.131C186.319 452.909 185.262 453.607 185.041 454.689ZM224.95 544.307C225.38 531.912 226.972 517.05 229.087 509.087C229.371 508.019 230.466 507.384 231.533 507.667C232.601 507.951 233.237 509.046 232.953 510.114C230.905 517.828 229.325 532.731 228.931 544.948C230.608 545.203 232.275 545.44 233.933 545.659L234.069 543.58L234.069 543.572C234.282 540.313 234.605 535.377 234.739 533.406C235.108 527.998 235.454 523.448 235.839 519.09C236.868 507.462 238.117 498.05 239.786 490.394C240.021 489.315 241.087 488.631 242.166 488.866C243.245 489.101 243.929 490.167 243.694 491.246C242.068 498.706 240.838 507.968 239.824 519.442C239.441 523.77 239.097 528.295 238.73 533.678C238.596 535.643 238.274 540.573 238.061 543.833L238.061 543.838L238.059 543.859L238.05 543.993L237.909 546.153C253.627 547.974 268.492 548.141 282.53 546.483C282.515 540.037 282.89 534.759 284.018 522.825C284.17 521.221 284.242 520.45 284.328 519.53C284.949 512.823 285.278 508.307 285.421 503.787C285.456 502.683 286.379 501.816 287.483 501.851C288.587 501.886 289.454 502.809 289.419 503.913C289.273 508.533 288.939 513.117 288.311 519.899C288.225 520.822 288.152 521.595 288 523.202C286.916 534.68 286.536 539.908 286.529 545.958C289.46 545.534 292.354 545.028 295.211 544.438C297.278 536.064 298.088 527.427 297.613 518.81C297.552 517.707 298.397 516.764 299.5 516.703C300.603 516.643 301.546 517.487 301.607 518.59C302.067 526.945 301.373 535.317 299.548 543.472C303.904 542.428 308.173 541.183 312.356 539.73C321.689 536.665 330.668 532.615 339.142 527.65C339.239 525.04 339.486 522.438 339.883 519.856C340.051 518.764 341.073 518.015 342.164 518.184C343.256 518.352 344.005 519.373 343.837 520.464C343.41 523.241 343.167 526.042 343.11 528.851C343.096 529.541 342.727 530.174 342.135 530.528C333.132 535.899 323.564 540.259 313.636 543.52C308.523 545.296 303.288 546.769 297.93 547.951C297.509 548.239 296.981 548.365 296.448 548.269C274.95 552.776 251.488 552.638 225.982 548.535C212.347 546.337 199.434 542.33 180.247 534.989C179.652 534.762 179.036 534.534 178.253 534.251C178.166 534.22 177.934 534.136 177.654 534.035L177.623 534.024C177.131 533.847 176.504 533.621 176.261 533.533C171.525 531.815 169.074 530.621 167.005 528.662C164.257 526.06 163.131 522.57 163.716 517.94C163.854 516.844 164.855 516.068 165.951 516.206C167.047 516.344 167.823 517.345 167.684 518.441C166.915 524.533 169.232 526.728 177.625 529.773C177.863 529.859 178.48 530.082 178.972 530.258C179.269 530.365 179.52 530.456 179.613 530.489C180.417 530.78 181.054 531.015 181.675 531.252C186.902 533.252 191.652 535 196.071 536.528C196.832 524.992 199.262 509.831 203.017 490.44C203.227 489.356 204.276 488.647 205.36 488.857C206.445 489.067 207.154 490.116 206.944 491.2C203.102 511.037 200.658 526.427 199.996 537.856C209.183 540.89 217.009 542.931 224.95 544.307ZM185.867 509.341C188.247 491.128 191.224 473.046 194.404 458.104C194.634 457.024 195.696 456.334 196.776 456.564C197.857 456.794 198.546 457.856 198.316 458.937C195.161 473.764 192.201 491.745 189.833 509.859C189.69 510.955 188.686 511.727 187.591 511.583C186.496 511.44 185.724 510.436 185.867 509.341ZM259.432 494.508C260.132 486.989 260.841 481.322 261.844 475.916C262.045 474.83 263.089 474.112 264.175 474.314C265.261 474.515 265.978 475.559 265.777 476.645C264.8 481.911 264.104 487.469 263.415 494.879C263.23 496.868 263.113 498.202 262.773 502.146C262.215 508.643 261.92 511.79 261.497 515.45C261.37 516.547 260.378 517.334 259.28 517.207C258.183 517.08 257.396 516.088 257.523 514.991C257.94 511.382 258.233 508.261 258.788 501.803C259.128 497.85 259.246 496.51 259.432 494.508ZM321.681 471.993C321.574 475.742 321.602 478.728 321.749 485.435C321.849 489.976 321.881 491.993 321.877 494.505C321.871 498.633 321.731 502.176 321.409 505.551C320.624 513.643 320.152 520.572 320.22 525.289C320.236 526.394 321.145 527.276 322.249 527.26C323.354 527.244 324.236 526.336 324.22 525.231C324.154 520.71 324.619 513.884 325.391 505.933C325.726 502.417 325.87 498.754 325.877 494.511C325.881 491.958 325.848 489.92 325.748 485.347C325.602 478.707 325.575 475.766 325.679 472.107C325.711 471.003 324.841 470.083 323.737 470.051C322.633 470.02 321.712 470.889 321.681 471.993ZM334.132 495.364C333.963 501.671 333.91 504.29 333.91 507.55C333.91 508.655 333.015 509.55 331.91 509.55C330.806 509.55 329.91 508.655 329.91 507.55C329.91 504.242 329.964 501.601 330.133 495.257C330.191 493.092 330.218 492.016 330.248 490.755C330.447 482.121 330.386 476.341 329.918 470.943C329.822 469.843 330.637 468.873 331.737 468.778C332.838 468.682 333.807 469.497 333.903 470.597C334.387 476.177 334.449 482.078 334.247 490.848C334.217 492.115 334.189 493.194 334.132 495.364Z" fill="#0D323F"/></g></g></g><g id="Phone/Item" transform="scale(1 1)"><g id="Phone/Item/Map"><g id="items"><path id="Combined Shape" fill-rule="evenodd" clip-rule="evenodd" d="M313.2 95.0098C310.768 99.3318 308.097 103.515 305.2 107.54C305.157 107.733 305.079 107.916 304.97 108.08C304.18 109.27 306.03 112.47 306.73 113.67C310.25 119.77 314.75 122.56 320.41 124.87C330.64 129.05 342.04 130.78 353.52 131.33C352.124 129.925 350.705 128.581 349.336 127.285L349.336 127.285L349.336 127.284L349.335 127.284L349.335 127.284L349.334 127.283L349.334 127.283L349.319 127.269C349.125 127.085 348.931 126.902 348.74 126.72L348.552 126.543L348.551 126.542L348.551 126.542L348.551 126.542C346.87 124.957 345.277 123.455 343.87 122C337.466 115.252 333.152 106.795 331.45 97.6498C331.34 96.9598 331.22 96.1498 331.11 95.2498C332.45 95.2898 333.8 95.3498 335.17 95.4298C335.24 95.9998 335.31 96.4798 335.4 96.9998C336.988 105.354 340.929 113.08 346.76 119.27C348.102 120.661 349.648 122.116 351.289 123.662L351.29 123.662L351.5 123.86C354.04 126.25 356.75 128.81 359.26 131.57C363.25 131.63 367.21 131.57 371.12 131.45C371.205 132.362 371.278 133.252 371.35 134.123L371.35 134.124L371.35 134.125C371.386 134.571 371.422 135.013 371.46 135.45C368.54 135.54 365.64 135.61 362.64 135.61C367.3 141.74 370.36 148.82 368.54 157.2C368.022 159.296 366.928 161.205 365.38 162.71H366.83L366.836 162.71C369.184 162.7 371.562 162.69 373.9 162.54L374.29 166.54C371.84 166.72 369.31 166.72 366.84 166.72H364.93C362.32 166.74 359.7 166.64 357.1 166.49H356.86C353.7 166.31 350.57 166.05 347.49 165.79L346.672 165.724C336.954 164.936 327.748 164.19 318.4 165.98C311.19 167.36 304.79 170.51 298.33 173.9C296.09 175.06 289.69 178.52 285.93 180.62C289.33 183.61 292.46 186.56 295.14 189.14C298.259 188.152 301.507 187.63 304.78 187.59C310.854 187.751 316.832 189.145 322.35 191.69C334.668 183.301 348.946 186.249 361.585 188.859L361.59 188.86C363.2 189.23 364.79 189.56 366.37 189.86C366.553 189.902 366.731 189.966 366.9 190.05L367.41 189.73L369.04 188.73C371.297 187.311 373.714 186.164 376.24 185.31L376.36 186.31C376.42 186.81 376.477 187.31 376.535 187.81C376.592 188.31 376.65 188.81 376.71 189.31C374.778 190.012 372.927 190.921 371.19 192.02L369.54 193.02L369.532 193.025C365.475 195.583 361.638 198.002 358.7 201.91C357.158 203.999 355.739 206.176 354.45 208.43C360.16 210.977 366.279 212.487 372.52 212.89C374.74 213.01 376.99 212.98 379.24 212.89L379.63 216.89C377.21 216.96 374.77 217 372.35 216.89C365.489 216.455 358.764 214.781 352.5 211.95C350.75 215.27 349.15 218.68 347.58 222.04L347.402 222.417L347.402 222.417C344.447 228.691 341.378 235.207 337.33 241.04C337.095 241.371 336.856 241.731 336.608 242.102L336.608 242.103L336.607 242.104L336.607 242.105C336.496 242.271 336.384 242.44 336.27 242.61C334.865 244.825 333.272 246.916 331.51 248.86C334.829 250.623 338.014 252.629 341.04 254.86C342.8 256.15 344.5 257.54 346.17 259C353.46 253.7 360.11 250.15 366.66 248C369.99 246.9 373.38 245.93 376.66 245L381.9 243.44C382.009 244.788 382.109 246.146 382.209 247.504L382.21 247.51L377.7 248.81C376.949 249.03 376.192 249.249 375.432 249.469C372.913 250.198 370.359 250.938 367.87 251.76C361.16 254.104 354.847 257.46 349.15 261.71C350.97 263.42 352.76 265.17 354.51 266.9C356.83 269.19 359.21 271.53 361.64 273.73C364.961 272.593 368.461 271.667 371.884 270.762L371.891 270.761L372.589 270.576L372.99 270.47L374.63 270.04C377.593 269.237 380.597 268.592 383.63 268.11C383.71 269.44 383.79 270.78 383.86 272.11C380.94 272.58 378.16 273.24 375.7 273.89L374.05 274.33C371.12 275.09 368.12 275.89 365.24 276.77L366.12 277.48C371.074 281.378 376.53 284.593 382.34 287.04C383.089 287.357 383.857 287.628 384.64 287.85C384.7 289.25 384.76 290.65 384.81 292.04C383.429 291.7 382.075 291.258 380.76 290.72C374.631 288.141 368.879 284.747 363.66 280.63C359.482 277.23 355.502 273.594 351.74 269.74L351.731 269.732C349.834 267.854 347.917 265.957 345.92 264.12C344.42 265.27 342.88 266.49 341.31 267.8C337.708 270.854 334.363 274.198 331.31 277.8C331.206 278.127 331.016 278.421 330.76 278.65L329.97 279.35C327.91 281.8 325.88 284.33 323.81 286.92L323.424 287.401C321.285 290.071 319.083 292.819 316.81 295.47C314.756 297.876 312.83 300.25 311.03 302.59C310.961 300.865 310.568 299.168 309.87 297.59C311.12 296.03 312.42 294.45 313.78 292.87C314.826 291.623 315.87 290.366 316.91 289.1C316.1 289.56 315.28 290.01 314.44 290.42C312.049 291.604 309.547 292.549 306.97 293.24C305.893 291.992 304.655 290.893 303.29 289.97C306.545 289.36 309.701 288.307 312.67 286.84C317.907 284.044 322.761 280.582 327.11 276.54C330.643 272.263 334.541 268.302 338.76 264.7C340.186 263.54 341.566 262.433 342.9 261.38C341.52 260.19 340.12 259.05 338.69 258C335.183 255.44 331.451 253.204 327.54 251.32C327.11 251.273 326.708 251.082 326.4 250.78C319.034 247.424 311.117 245.441 303.04 244.93C298.071 244.603 293.081 244.821 288.16 245.58C288.59 250.36 289.09 255.58 289.8 260.88L290.22 261.22C290.623 261.565 290.872 262.055 290.914 262.584C290.955 263.113 290.784 263.637 290.44 264.04C290.388 264.098 290.331 264.152 290.27 264.2C291.5 272.43 293.33 280.64 296.27 287.53C294.855 287.408 293.43 287.492 292.04 287.78C289.04 280.29 287.25 271.59 286.04 263.02C283.185 260.866 280.023 259.154 276.66 257.94C273.334 256.679 269.89 255.758 266.38 255.19C264.668 255.001 262.94 255.042 261.24 255.31C261.08 253.51 260.92 251.68 260.76 249.82C260.977 249.728 261.195 249.636 261.414 249.545C261.976 249.309 262.54 249.072 263.11 248.82C265.63 247.71 268.24 246.8 270.77 245.92L272 245.49C275.866 244.111 279.826 243.011 283.85 242.2L283.55 238.81C282.83 230.46 282.08 221.83 278.94 214.46C277.696 211.224 275.627 208.369 272.94 206.18C267.621 210.57 262.817 215.548 258.62 221.02C258.473 219.1 258.336 217.17 258.21 215.23C261.524 211.207 265.189 207.486 269.16 204.11C265.65 202.82 261.66 202.81 257.39 203.44L257.12 199.44C262.7 198.65 268.1 198.82 272.77 201.24C277.571 197.55 282.734 194.357 288.18 191.71C287.09 191.29 286.01 190.85 284.95 190.41C280.78 188.68 276.85 187.05 272.54 186.92C267.084 186.64 261.622 187.317 256.4 188.92C256.353 188.21 256.304 187.501 256.254 186.793L256.254 186.793L256.254 186.793L256.254 186.793L256.254 186.793L256.254 186.793L256.254 186.793L256.254 186.792L256.254 186.792C256.209 186.133 256.163 185.475 256.12 184.82C261.491 183.302 267.075 182.671 272.65 182.95C277.694 183.09 282.15 184.936 286.466 186.724L286.48 186.73L287.32 187.08C283.109 183.143 278.686 179.441 274.07 175.99C269.13 172.36 263 170.28 258.21 168.87L257.42 168.64L254.92 167.92C254.871 167.293 254.824 166.669 254.778 166.049L254.778 166.049C254.719 165.265 254.661 164.486 254.6 163.71C255.844 164.011 257.062 164.367 258.262 164.716L258.48 164.78C257.185 159.385 257.121 152.936 257.062 146.995L257.06 146.78L257.054 146.108C257.037 144.04 257.021 142.095 256.94 140.29C256.88 139.08 256.79 137.89 256.68 136.71L254.47 136.86L252.88 136.94C252.868 136.558 252.854 136.175 252.839 135.789C252.805 134.849 252.77 133.897 252.77 132.94C253.24 132.89 253.72 132.89 254.17 132.89L256.17 132.76C255.552 128.646 254.454 124.618 252.9 120.76C253.004 118.38 253.258 116.008 253.66 113.66C254.416 114.766 255.084 115.93 255.66 117.14C257.887 122.035 259.399 127.224 260.15 132.55C264.79 132.23 269.22 131.71 273.47 129.71C278.246 127.597 282.732 124.882 286.82 121.63C294.96 114.83 301.92 106.36 308.53 95.0998C310.09 95.0098 311.65 95.0098 313.2 95.0098ZM267.58 251.32C271.133 251.937 274.622 252.884 278 254.15C280.56 255.082 283.019 256.271 285.34 257.7C284.87 253.74 284.51 249.88 284.18 246.26C280.495 247.01 276.867 248.012 273.32 249.26L272.08 249.69C270.58 250.21 269.08 250.75 267.58 251.32ZM287.78 241.56L287.51 238.5C287.51 238.168 287.47 237.831 287.431 237.496C287.408 237.297 287.384 237.098 287.37 236.9C288.49 238.231 289.71 239.474 291.02 240.62C291.185 240.759 291.38 240.898 291.566 241.031L291.567 241.031L291.65 241.09C290.38 241.22 289.09 241.37 287.8 241.56H287.78ZM362.29 192.96L360.78 192.65H360.79L360.764 192.645C349.132 190.246 337.142 187.774 326.69 193.59C330.6 195.53 334.45 197.73 338.24 199.92C340.77 201.38 343.16 202.75 345.54 204.03C347.17 204.91 348.93 205.81 350.78 206.7C352.208 204.189 353.785 201.765 355.5 199.44C357.417 196.945 359.707 194.759 362.29 192.96ZM295.03 193.28C298.149 192.151 301.433 191.54 304.75 191.47C315.528 191.47 326.008 197.504 336.14 203.338L336.23 203.39C338.67 204.79 341.23 206.25 343.63 207.56C345.25 208.43 347 209.33 348.84 210.21C347.09 213.54 345.5 216.93 343.94 220.27C341 226.55 337.94 233.05 334.02 238.73C333.814 239.024 333.605 239.335 333.388 239.657C333.236 239.883 333.08 240.115 332.92 240.35C331.38 242.66 329.51 245.44 327.67 246.95C319.966 243.501 311.704 241.469 303.28 240.95C302.78 240.95 302.28 240.95 301.77 240.88C301.491 240.673 301.164 240.542 300.82 240.5C298.209 240.131 295.728 239.132 293.59 237.59C291.07 235.47 287.01 230.59 286.59 228.01C286.546 227.732 286.443 227.466 286.29 227.23C285.665 222.334 284.415 217.538 282.57 212.96C281.178 209.429 278.995 206.265 276.19 203.71C281.688 199.513 287.747 196.107 294.19 193.59C294.479 193.547 294.755 193.441 295 193.28H295.03ZM294.55 171.24C294.609 171.112 294.683 170.991 294.77 170.88H294.78C303.58 160.05 300.69 142.45 298.22 129.1C294.82 129.58 291.46 130.23 287.98 130.91L285.92 131.31C284.23 131.67 282.54 132.14 280.76 132.67C278.036 133.594 275.219 134.215 272.36 134.52H272.12C268.384 135.674 264.516 136.346 260.61 136.52C260.72 137.73 260.82 138.94 260.87 140.18C261 142.24 261 144.46 261 146.81C261.05 153.51 261.12 161.05 263 166.24C267.765 167.71 272.278 169.902 276.38 172.74C278.52 174.37 280.66 176.04 282.66 177.74C285.5 176.12 291.15 173.05 294.55 171.24ZM323.89 130.36C334.5 133.84 345.99 135.15 357.38 135.43C362.53 141.43 366.33 148.31 364.6 156.23C363.583 159.606 360.629 162.035 357.12 162.38C353.99 162.2 350.86 161.94 347.8 161.68L347.75 161.676L347.75 161.676C337.915 160.847 327.782 159.993 317.62 161.93C311.984 163.112 306.534 165.053 301.42 167.7C306.89 155.92 304.42 140.7 302.2 128.63H302.2H302.2H302.2H302.2C303.03 128.56 303.86 128.49 304.7 128.44C311.158 128.16 317.624 128.806 323.9 130.36H323.89ZM304.47 124.47C306.718 124.345 308.971 124.345 311.22 124.47H311.23C307.96 122.148 305.239 119.137 303.26 115.65C302.618 114.576 302.05 113.46 301.56 112.31C297.903 116.827 293.821 120.983 289.37 124.72C288.29 125.62 287.17 126.45 286.05 127.23L287.22 127C292.904 125.76 298.668 124.915 304.47 124.47ZM278.68 288.53C281.44 289.13 284.1 289.63 286.68 290C286.03 290.4 285.403 290.834 284.8 291.3C283.51 292.31 282.22 293.38 280.93 294.49C275.847 291.188 270.172 288.902 264.22 287.76C264.08 286.38 263.95 285.01 263.82 283.641L263.82 283.64L263.82 283.64C268.943 284.624 273.918 286.267 278.62 288.53H278.68ZM382.79 318.4C376.399 319.014 369.975 319.205 363.56 318.97C363.455 316.815 363.228 314.668 362.88 312.54C362.254 308.127 361.131 303.799 359.53 299.64C364.943 298.453 370.459 297.799 376 297.69C377.91 297.69 380 297.81 381.93 297.94C382.956 298.006 383.996 298.066 385.05 298.12C385.05 297.197 385.006 296.27 384.963 295.344C384.944 294.935 384.925 294.527 384.91 294.12L382.19 293.96C380.19 293.82 378.04 293.69 375.96 293.7C365.44 293.79 355.22 296.3 345.74 298.99C337.758 301.303 330.379 305.334 324.12 310.8C319.561 309.159 315.17 307.083 311.01 304.6C310.896 306.021 310.645 307.427 310.26 308.8C313.66 310.727 317.2 312.398 320.85 313.8C320.24 314.42 319.63 315.04 319.04 315.68C315.212 319.64 311.82 323.998 308.92 328.68C307.92 330.48 305.06 335.86 302.47 341.12C303.66 341.12 304.87 341.12 306.09 341.17H306.91C309.14 336.7 311.41 332.37 312.39 330.66C315.149 326.247 318.37 322.14 322 318.41C323 317.35 324 316.34 325 315.36C326.62 315.92 328.28 316.47 330 317C339.609 320.094 349.552 322.034 359.62 322.78C359.674 327.309 359.184 331.828 358.16 336.24C359.62 335.85 361.08 335.43 362.53 334.98C363.274 331.023 363.642 327.005 363.63 322.98C365.25 323.04 366.91 323.08 368.63 323.08C372.43 323.08 376.49 322.92 380.84 322.58C381.607 321.244 382.259 319.846 382.79 318.4ZM331.2 313.18C330.29 312.9 329.4 312.62 328.52 312.33C333.928 307.98 340.149 304.75 346.82 302.83C349.67 302.02 352.59 301.24 355.56 300.53C357.819 306.362 359.168 312.507 359.56 318.75C349.922 318.002 340.404 316.133 331.2 313.18ZM369.54 119.23C364.119 116.855 359.188 113.491 355 109.31C351.563 105.76 348.892 101.543 347.15 96.9198C348.841 97.2681 350.511 97.7155 352.15 98.2598C353.601 101.294 355.525 104.079 357.85 106.51C360.919 109.588 364.452 112.166 368.32 114.15C368.79 115.75 369.19 117.46 369.54 119.23Z" fill="#EAF3F3"/><path id="Combined Shape_2" fill-rule="evenodd" clip-rule="evenodd" d="M331.884 220.019C335.596 212.636 337.559 207.447 338.477 201.494C340.431 188.685 335.59 176.279 324.903 172.533C320.719 171.062 312.437 172.097 308.285 174.352C304.9 176.149 302.013 178.79 299.913 182.019C295.242 189.645 296.645 200.437 301.793 210.987C306.477 220.15 312.285 228.651 319.095 236.318C319.96 237.292 321.51 237.192 322.243 236.115C322.312 236.014 322.439 235.826 322.617 235.563C322.911 235.125 323.239 234.634 323.593 234.102C324.602 232.58 325.612 231.027 326.557 229.532C326.742 229.238 326.924 228.948 327.101 228.664C328.371 226.627 329.378 224.911 330.057 223.598C331.017 221.731 331.388 221.006 331.884 220.019ZM325.579 199.86L325.577 199.861C320.97 205.629 309.488 202.593 307.54 196.308C305.641 190.176 307.986 183.88 312.942 181.677C317.27 179.758 323.158 181.77 326.395 185.835C329.2 189.353 328.741 195.909 325.579 199.86Z" fill="#FC6E47"/></g></g></g><g id="Phone/Effect" transform="scale(1 1)"><g id="Phone/Effect/Like"><g id="addons"><path id="Combined Shape" fill-rule="evenodd" clip-rule="evenodd" d="M456.256 140.36H445.34C437.6 140.36 433.01 138.736 430.727 133.337C429.24 129.808 428.521 125.64 428.226 120.2C428.127 118.378 428.09 116.999 428.028 113.719C427.985 111.406 427.958 110.326 427.902 109.11C427.831 107.528 427.76 106.344 427.56 103.262C427.339 99.852 427.244 98.181 427.173 96.1892C426.952 89.9934 427.249 85.1203 428.324 80.5563C429.786 74.424 433.352 70.3684 438.75 68.0943C442.965 66.3185 447.954 65.6727 454.84 65.6511C456.482 65.646 457.854 65.6677 460.653 65.7307C463.317 65.7907 464.351 65.8089 465.68 65.8099C475.18 65.8099 484.417 66.2613 494.13 67.1789C498.932 67.6368 500.919 68.9536 502.599 73.1822C503.576 75.6441 504.026 78.5035 504.124 81.9755C504.173 83.6861 504.144 85.1658 504.042 87.8926C504.025 88.3479 504.017 88.5723 504.009 88.7913C503.825 93.9376 503.859 98.9567 504.064 106.449C504.091 107.442 504.114 108.22 504.167 110.036C504.278 113.862 504.325 115.595 504.37 117.749C504.495 123.934 503.542 130.387 501.359 134.187C499.6 137.287 496.549 139.038 492.329 139.812C489.289 140.369 486.264 140.427 480.582 140.229C480.35 140.221 480.167 140.215 479.754 140.2C476.761 140.093 474.714 140.046 473.07 140.078C469.792 148.993 468.059 153.077 465.229 157.833C464.347 159.314 462.13 159.061 461.605 157.419C461.307 156.487 461.019 155.595 460.559 154.175C460.279 153.311 460.136 152.87 459.999 152.445C458.566 148.015 457.716 145.3 456.869 142.367C456.709 141.814 456.502 141.139 456.256 140.36Z" fill="#EAF3F3"/><path id="Path" d="M469.634 86.8123C475.156 81.8508 481.474 79.4701 486.863 82.995C491.503 86.0219 492.105 93.3326 489.655 98.5311C486.542 105.058 480.866 112.082 473.73 119.038C472.745 119.99 471.421 121.115 469.813 122.385C469.382 122.725 468.934 123.074 468.469 123.43C466.967 124.58 465.362 125.758 463.758 126.902C463.196 127.302 462.675 127.67 462.207 127.996C461.925 128.193 461.722 128.333 461.612 128.409C460.892 128.903 459.934 128.873 459.247 128.334C451.052 121.913 442.79 106.676 442.481 96.6767C442.299 91.1931 444.295 86.0474 447.734 83.3113C451.68 80.1709 456.737 80.6955 461.252 85.0337C463.222 86.9424 464.391 89.8046 464.851 93.0468C466.447 90.3466 467.978 88.2972 469.634 86.8123Z" fill="#FC6E47"/></g></g></g></g></svg>