<svg viewBox="0 0 599.9999999999999 599.9999999999999" fill="none" xmlns="http://www.w3.org/2000/svg" xmlns:xlink="http://www.w3.org/1999/xlink" overflow="visible" width="599.9999999999999px" height="599.9999999999999px"><g id="Master/Spot Illustrations/Phone"><g id="Background" style="mix-blend-mode:soft-light" transform="scale(1 1)"><g id="Background/PieChart"><path id="Path" d="M282.34 215.68C282.12 222.11 281.88 228.76 281.73 235.26C281.57 242.12 283.61 254.35 285.34 263.41V263.41C286.93 271.708 293.336 278.244 301.6 280C314.6 282.77 332.95 286.6 346.23 289.17C359.74 291.77 373.46 294.52 386.72 297.17C415.72 303 445.8 309.03 475.59 313.88C479.93 314.58 484.48 315.43 488.87 316.25C500.01 318.33 511.54 320.47 522.54 320.92C523.54 320.92 524.67 321.04 525.88 321.13C528.12 321.28 530.62 321.46 533.14 321.46C538.64 321.46 544.25 320.63 547.5 316.97C551.79 312.13 552.66 301.68 553.36 293.28C553.51 291.46 553.66 289.73 553.82 288.33C556.01 269.73 555.27 253.11 551.37 232.73C550.43 227.84 549.65 222.81 548.9 217.94C547.38 208.11 545.8 197.94 542.82 188.14C536.82 168.43 527.45 153.45 514.29 135.67C487.29 99.2204 455.07 79.3504 414.95 60.6704C386.99 47.6372 356.538 40.8141 325.69 40.6704H325.13C322.43 40.6704 319.41 40.4404 316.18 40.1904C303.03 39.1904 286.64 37.9004 282.18 52.7304C280 60.2304 280.14 69.2604 280.29 78.0004C280.36 82.4504 280.42 86.6604 280.17 90.4304C279.4 102.03 281.8 148.98 282.52 160.55C283.65 178.76 283 197.53 282.34 215.68Z" fill="#EAF3F3"/><path id="Path_2" d="M559.88 379C558.302 375.585 555.42 372.945 551.88 371.67C545.599 369.255 539.144 367.32 532.57 365.88C512.57 362.04 492.38 357.67 471.73 353.15C460.41 350.68 448.81 348.53 437.6 346.45C425.14 344.14 412.27 341.75 399.77 338.91C389.16 336.51 350.15 323 327.83 315.16C324.689 314.099 321.226 315.282 319.391 318.043C317.555 320.804 317.805 324.455 320 326.94C339.78 349.02 351.66 362.4 353.44 364.61C365.44 379.53 401.07 421.96 420.19 444.75L428.24 454.34C432.49 459.42 437.24 464.73 441.87 469.87C449.73 478.62 457.87 487.68 464.38 496.54C468.88 502.65 472.79 505.54 477.07 506.01C477.429 506.047 477.789 506.063 478.15 506.06C481.63 506.06 485.23 504.36 489.1 500.88C507.17 484.64 527.64 464.11 542.49 435.01C546.44 427.25 555.38 403.35 560.35 389.8C561.646 386.282 561.476 382.392 559.88 379Z" fill="#EAF3F3"/><path id="Path_3" d="M363.11 431.51L361.11 429.21C339.81 404.57 317.78 379.1 295.27 354.82L292.05 351.36C276.84 335 256 312.63 255.8 298.94C255.65 288.86 255.46 276.94 255.24 263.87C254.18 199.24 252.74 110.74 254.65 78.5995C254.874 74.9199 253.539 71.316 250.973 68.6696C248.406 66.0233 244.845 64.5788 241.16 64.6895C233.24 64.9195 222.41 65.4695 215.75 66.7695C207.83 68.3095 169.75 79.0595 141.61 99.8795C123.29 113.44 108.55 127.6 92.0401 144.68C77.3901 159.84 64.1201 181.81 57.5001 193.55C50.6501 205.73 33.1901 258.6 32.2901 275.28C30.7001 304.65 29.8601 338.72 40.0001 371.38C50.5601 405.38 70.0901 436.15 99.7101 465.48C136.24 501.65 173.98 522.71 218.49 531.74C237.961 535.624 257.673 538.18 277.49 539.39C279.63 539.523 281.83 539.59 284.09 539.59C300.29 539.59 319.33 536.26 340.82 529.68C357.651 524.38 373.828 517.191 389.04 508.25C392.71 506.1 398.21 501.77 405.39 495.39C407.838 493.228 409.3 490.163 409.437 486.9C409.575 483.637 408.377 480.459 406.12 478.1C394.81 466.19 374.17 444.29 363.11 431.51Z" fill="#EAF3F3"/></g></g><g id="Master/Hands/Phone" transform="scale(1 1)"><g id="Master/Hands/Phone"><g id="base"><path id="Path" d="M368.288 207.312C368.424 206.623 368.912 206.056 369.572 205.818C374.555 204.024 379.652 202.566 384.801 201.461C385.047 201.405 385.299 201.345 385.628 201.268C389.87 200.265 391.334 200.013 393.49 200.147C396.535 200.336 399.091 201.64 401.246 204.303C404.338 208.131 406.387 213.221 407.429 218.919C408.028 222.281 407.383 227.079 405.682 229.8C403.78 232.886 400.687 235.625 396.22 238.611C395.422 239.144 394.59 239.68 393.628 240.282C393.252 240.519 392.867 240.758 392.389 241.053C392.22 241.158 391.426 241.648 391.212 241.781C389.427 242.884 387.923 243.887 384.966 245.911C384.643 246.133 384.643 246.133 384.319 246.355C379.831 249.427 377.464 250.948 374.52 252.531C369.82 254.931 365.373 257.796 361.246 261.084C359.789 262.245 357.677 260.959 358.038 259.132L368.288 207.312Z" fill="#fcb7a0"/><path id="Path" d="M381.172 325.75C394.319 323.467 418.826 315.922 423.539 311.039C428.146 306.326 429.856 299.871 429.788 291.105C429.768 288.596 429.636 286.352 429.323 282.413L429.224 281.162C428.468 272.875 426.899 264.706 424.537 256.751C421.797 247.129 417.531 244.934 405.752 245.573C393.563 246.376 381.472 248.061 369.551 250.614C368.516 250.836 367.833 251.825 367.993 252.871L378.853 324.081C379.022 325.189 380.068 325.942 381.172 325.75Z" fill="#fcb7a0"/><path id="Path" d="M424.568 278.197C421.538 278.598 418.031 279.02 413.841 279.494C410.734 279.846 407.577 280.191 402.751 280.71C389.277 282.158 386.564 282.457 381.536 283.075C380.44 283.21 379.66 284.208 379.795 285.304C379.93 286.4 380.928 287.18 382.024 287.045C387.022 286.431 389.732 286.133 403.179 284.687C408.012 284.167 411.175 283.822 414.291 283.469C418.504 282.992 422.034 282.567 425.092 282.163C426.187 282.018 426.957 281.013 426.813 279.918C426.668 278.823 425.663 278.053 424.568 278.197Z" fill="#dc8173"/><path id="Path" d="M353.648 301.286C346.272 292.094 338.898 285.361 331.189 281.374C320.379 275.77 307.952 272.16 296.514 271.744C282.869 271.247 271.213 275.223 262.893 284.201C261.074 286.168 259.623 288.641 258.254 291.963L252.462 273.122C252.042 271.756 250.366 271.259 249.268 272.175C245.438 275.372 239.9 283.143 233.02 294.383C228.391 301.947 223.98 309.696 219.526 317.818C218.385 319.904 217.212 322.237 216.004 324.813C213.032 331.152 209.91 338.816 206.468 348.037C204.835 352.415 203.191 356.972 201.25 362.467C200.447 364.739 197.44 373.316 196.755 375.253C187.139 402.428 181.36 432.211 174.948 479.511C173.69 488.804 172.668 502.602 171.852 519.734C171.302 531.279 170.878 568.645 170.565 581.01C170.455 585.338 170.367 589.356 170.299 592.963C170.275 594.226 170.255 595.347 170.239 596.313C170.233 596.652 170.23 596.849 170.225 597.197C170.221 597.449 170.221 597.449 170.22 597.502C170.204 598.616 171.103 599.529 172.218 599.53L331.148 599.7C332.253 599.701 333.15 598.805 333.15 597.7C333.15 555.141 335.414 474.746 339.426 455.947C342.645 440.902 348.527 422.444 355.166 405.905C358.282 398.125 361.992 389.707 366.99 378.895C368.49 378.663 369.98 378.369 371.457 378.015C378.578 376.258 380.672 375.708 384.336 374.522C398.537 369.926 407.062 363.4 408.58 352.824C409.816 344.226 405.878 332.63 399.754 326.757C395.364 322.549 389.265 321.45 381.163 322.409C378.747 322.695 376.393 323.116 372.985 323.825C372.471 323.932 370.766 324.291 370.525 324.341C370.183 324.412 369.872 324.477 369.583 324.536C363.363 314.466 358.908 307.843 353.648 301.286Z" fill="#fcb7a0"/><path id="Path" d="M356.092 341.941C343.885 343.215 336.841 353.196 340.391 364.528C340.42 364.62 341.697 369.032 342.183 370.5C343.505 374.495 344.896 377.231 346.827 378.866C352.135 383.368 357.326 384.233 364.598 382.442C365.671 382.178 366.326 381.094 366.062 380.022C365.798 378.949 364.714 378.294 363.642 378.558C357.535 380.062 353.659 379.416 349.414 375.815C348.214 374.799 347.083 372.574 345.98 369.243C345.523 367.862 344.261 363.5 344.21 363.337C341.434 354.475 346.753 346.938 356.508 345.919C357.606 345.805 358.404 344.821 358.289 343.722C358.174 342.624 357.191 341.826 356.092 341.941Z" fill="#dc8173"/><path id="Path" d="M346.232 347.779L346.226 347.78C335.901 349.591 305.761 351.109 292.347 350.81C290.976 350.78 289.592 350.765 287.616 350.753C287.279 350.751 287.01 350.749 286.402 350.746C273.274 350.675 267.708 350.208 261.593 347.923C253.302 344.826 247.959 338.655 245.649 328.451C243.176 317.519 241.409 305.742 239.815 290.84C239.22 285.282 238.911 282.057 237.833 270.474C237.613 268.105 237.457 266.436 237.299 264.779C235.893 249.948 234.624 233.573 232.805 207.838C232.977 210.276 231.089 183.38 230.584 176.379C229.882 166.63 229.28 158.66 228.696 151.48C227.245 133.393 227.03 115.304 229.448 108.052C232.391 98.9974 240.305 92.4622 249.703 91.2921C273.593 87.7087 303.616 84.9989 319.542 85.3305C320.967 85.3603 322.227 85.3731 324.962 85.3913C333.027 85.445 336.784 85.5413 341.533 85.9304C356.575 87.1629 367.079 91.0208 373.118 99.3142C376.41 103.844 378.357 110.386 379.574 119.204C379.879 121.412 380.133 123.719 380.38 126.395C380.474 127.421 380.564 128.453 380.675 129.79C380.655 129.544 380.88 132.265 380.939 132.958C381.013 133.825 381.078 134.547 381.142 135.217C381.19 135.75 381.19 135.75 381.239 136.282C383.248 158.238 383.307 158.871 384.137 167.073C384.703 172.66 385.261 177.828 385.836 182.765C391.064 226.993 394.198 264.3 395.369 300.485C395.903 316.815 393.467 327.92 384.999 335.191C380.981 338.622 374.438 341.374 365.855 343.69C362.321 344.644 358.59 345.483 354.542 346.272C353.019 346.568 351.521 346.845 349.827 347.146C349.132 347.269 346.723 347.691 346.232 347.779Z" fill="#1A4E66"/><path id="Path_2" d="M341.79 339.43C329.934 340.746 318.008 341.327 306.08 341.17C288.67 340.79 274.02 343.11 269.29 322.22C265.08 303.62 263.53 279.53 261.72 260.47C258.78 229.47 256.42 186.47 253.89 155.31C253.21 146.91 251.24 118.04 254.49 110.47C257.74 102.9 265.71 100.55 271.44 99.47C285.21 96.81 301.99 94.74 317.74 95.07C332.07 95.37 355.51 93.88 365.07 107.07C370.69 114.81 371.16 133.71 372.07 142.86C373.43 157.09 374.7 171.76 376.41 186.2C380.61 221.74 383.91 262.2 385.08 298.2C385.41 308.2 384.78 321.06 376.27 328.36C368.32 335.15 348.66 338.59 341.79 339.43Z" fill="white"/><path id="Path_3" d="M246.788 97.3375C241.89 100.613 240.316 108.96 240.539 122.137C240.595 125.481 240.755 128.785 241.048 133.377C241.089 134.028 241.265 136.733 241.308 137.406C241.399 138.842 241.46 139.907 241.502 140.841C241.896 149.385 242.493 159.296 243.404 172.968C243.532 174.893 243.668 176.907 243.823 179.198C243.925 180.707 244.534 189.678 244.704 192.198C245.032 197.052 245.283 200.858 245.504 204.337C247.562 237.069 250.673 271.987 254.841 310.674C255.984 321.364 258.372 331.377 261.982 338.377C262.489 339.358 263.695 339.744 264.677 339.237C265.658 338.731 266.044 337.525 265.537 336.543C262.198 330.068 259.913 320.49 258.819 310.247C254.656 271.613 251.55 236.753 249.496 204.084C249.274 200.598 249.023 196.788 248.695 191.929C248.525 189.407 247.916 180.436 247.814 178.928C247.659 176.638 247.523 174.625 247.395 172.702C246.486 159.055 245.891 149.167 245.498 140.658C245.454 139.697 245.392 138.611 245.3 137.154C245.257 136.476 245.081 133.769 245.04 133.123C244.751 128.588 244.593 125.337 244.538 122.07C244.341 110.358 245.758 102.838 249.012 100.662C249.93 100.048 250.176 98.8063 249.562 97.8881C248.948 96.97 247.706 96.7234 246.788 97.3375Z" fill="#0D323F"/><path id="Path" d="M221.233 381.359C219.718 381.324 218.792 379.682 219.544 378.367C222.139 373.83 225.092 369.029 228.751 363.336C230.254 360.998 231.813 358.606 233.886 355.447C234.548 354.439 236.975 350.746 236.782 351.04C237.942 349.275 238.806 347.956 239.645 346.672C241.786 343.392 243.535 340.673 245.146 338.107C257.681 318.14 270.731 302.213 284.8 291.243C292.858 284.961 302.414 286.579 308.462 295.134C311.631 299.608 311.778 304.679 309.673 310.715C308.846 313.088 307.829 315.292 306.026 318.831C303.698 323.398 303.705 323.385 303.041 324.895C300.63 330.382 299.081 339.831 298.739 348.636C298.596 352.398 299.034 356.686 299.989 361.567C300.73 365.354 301.73 369.29 303.134 374.167C303.427 375.187 303.731 376.224 304.115 377.522C304.216 377.863 304.874 380.08 305.058 380.704C305.442 382.004 304.449 383.301 303.093 383.269L221.233 381.359Z" fill="#fcb7a0"/><path id="Path_4" d="M238.205 166.394C237.823 160.794 237.536 155.239 237.349 149.781C237.311 148.677 236.385 147.813 235.281 147.851C234.178 147.889 233.313 148.815 233.351 149.919C233.54 155.422 233.83 161.022 234.215 166.666C234.29 167.768 235.244 168.601 236.346 168.525C237.448 168.45 238.281 167.496 238.205 166.394Z" fill="#0D323F"/><path id="Path_5" d="M240.232 193.936C239.736 188.584 239.351 182.902 239.058 176.814C239.005 175.711 238.067 174.859 236.964 174.912C235.861 174.965 235.009 175.903 235.062 177.006C235.358 183.15 235.748 188.89 236.249 194.304C236.35 195.404 237.324 196.213 238.424 196.111C239.524 196.01 240.333 195.036 240.232 193.936Z" fill="#0D323F"/><path id="Path" d="M298.299 352.78C298.953 359.636 300.571 365.016 303.81 372.79C303.989 373.218 304.17 373.649 304.415 374.231C304.565 374.587 304.565 374.587 304.714 374.94C304.862 375.293 304.922 375.436 305.009 375.643C305.48 376.764 305.822 377.59 306.144 378.394C306.554 379.419 307.718 379.917 308.744 379.507C309.769 379.096 310.267 377.932 309.857 376.906C309.525 376.078 309.176 375.234 308.697 374.093C308.609 373.885 308.549 373.741 308.4 373.387C308.251 373.033 308.251 373.033 308.101 372.678C307.858 372.101 307.679 371.674 307.503 371.252C304.404 363.815 302.89 358.779 302.281 352.4C302.176 351.3 301.2 350.494 300.1 350.599C299.001 350.704 298.194 351.68 298.299 352.78Z" fill="#dc8173"/><path id="Path" d="M221.306 375.423C223.847 370.981 226.748 366.264 230.348 360.664C231.847 358.332 233.403 355.944 235.477 352.786C236.14 351.777 238.56 348.096 238.385 348.363C239.55 346.59 240.421 345.262 241.265 343.968C243.426 340.659 245.194 337.911 246.824 335.313C247.411 334.378 247.129 333.143 246.193 332.556C245.258 331.969 244.023 332.251 243.436 333.187C241.82 335.761 240.065 338.491 237.916 341.782C237.074 343.071 236.206 344.396 235.042 346.166C235.218 345.898 232.797 349.58 232.133 350.591C230.053 353.758 228.49 356.157 226.983 358.501C223.349 364.154 220.414 368.927 217.834 373.437C217.286 374.396 217.618 375.618 218.577 376.166C219.536 376.715 220.758 376.382 221.306 375.423Z" fill="#dc8173"/><path id="Path" d="M304.373 433.869C306.422 434.339 308.428 434.975 310.373 435.771C311.395 436.189 312.563 435.7 312.981 434.678C313.4 433.656 312.91 432.488 311.888 432.069C309.742 431.19 307.528 430.489 305.267 429.971C304.19 429.724 303.118 430.397 302.871 431.473C302.624 432.55 303.297 433.623 304.373 433.869Z" fill="#dc8173"/></g><g id="Phone/Wear" transform="scale(1 1)"><g id="Phone/Wear/Hoodie 1"><g id="clothing"><path id="Path" d="M412.22 561.92C408.415 554.308 400.961 549.19 392.49 548.37C388.333 547.958 384.155 548.924 380.6 551.12C382.46 540.45 378.6 528.12 371 523.55C363.13 518.86 354.24 515.2 342.45 519.44C342.45 514.33 342.35 503.83 342.45 498.72C342.55 493.61 342.55 488.72 342.55 483.83C342.55 477.92 342.55 471.83 342.73 465.76C342.754 465.063 342.413 464.403 341.83 464.02C341.237 463.619 340.474 463.565 339.83 463.88C319.03 473.72 289.28 477.01 260.24 472.67C249.13 471 238 468 227.17 465.07C221.4 463.52 215.44 461.91 209.51 460.51C200.38 458.36 190.51 454.71 178.29 449.04C177.749 448.784 177.122 448.784 176.58 449.04C176.043 449.301 175.651 449.789 175.51 450.37C173.9 456.88 169.51 476.19 168.64 483.12C168.51 484.12 168.29 485.77 168.01 487.78C166.62 497.92 165.35 507.87 164.73 516C155.64 514.75 146.35 518.09 138.45 525.54C132.45 531.2 128.09 538.62 126.84 544.83C124.367 542.519 121.207 541.079 117.84 540.73C113.59 540.43 109.42 542.26 105.46 546.16C96.7004 554.78 93.2704 572.73 98.1204 584.56C101.12 591.88 106.87 599.99 114.31 599.99H387.31C401.22 599.99 407.95 589.89 411.15 584.83C415.31 577.851 415.711 569.256 412.22 561.92Z" fill="#2AC28B"/><path id="Combined Shape" fill-rule="evenodd" clip-rule="evenodd" d="M185.041 454.689C179.759 480.502 176.285 502.075 176.001 515.929C175.978 517.033 176.855 517.947 177.959 517.97C179.063 517.993 179.977 517.116 180 516.011C180.278 502.486 183.728 481.058 188.96 455.491C189.181 454.409 188.483 453.352 187.401 453.131C186.319 452.909 185.262 453.607 185.041 454.689ZM224.95 544.307C225.38 531.912 226.972 517.05 229.087 509.087C229.371 508.019 230.466 507.384 231.533 507.667C232.601 507.951 233.237 509.046 232.953 510.114C230.905 517.828 229.325 532.731 228.931 544.948C230.608 545.203 232.275 545.44 233.933 545.659L234.069 543.58L234.069 543.572C234.282 540.313 234.605 535.377 234.739 533.406C235.108 527.998 235.454 523.448 235.839 519.09C236.868 507.462 238.117 498.05 239.786 490.394C240.021 489.315 241.087 488.631 242.166 488.866C243.245 489.101 243.929 490.167 243.694 491.246C242.068 498.706 240.838 507.968 239.824 519.442C239.441 523.77 239.097 528.295 238.73 533.678C238.596 535.643 238.274 540.573 238.061 543.833L238.061 543.838L238.059 543.859L238.05 543.993L237.909 546.153C253.627 547.974 268.492 548.141 282.53 546.483C282.515 540.037 282.89 534.759 284.018 522.825C284.17 521.221 284.242 520.45 284.328 519.53C284.949 512.823 285.278 508.307 285.421 503.787C285.456 502.683 286.379 501.816 287.483 501.851C288.587 501.886 289.454 502.809 289.419 503.913C289.273 508.533 288.939 513.117 288.311 519.899C288.225 520.822 288.152 521.595 288 523.202C286.916 534.68 286.536 539.908 286.529 545.958C289.46 545.534 292.354 545.028 295.211 544.438C297.278 536.064 298.088 527.427 297.613 518.81C297.552 517.707 298.397 516.764 299.5 516.703C300.603 516.643 301.546 517.487 301.607 518.59C302.067 526.945 301.373 535.317 299.548 543.472C303.904 542.428 308.173 541.183 312.356 539.73C321.689 536.665 330.668 532.615 339.142 527.65C339.239 525.04 339.486 522.438 339.883 519.856C340.051 518.764 341.073 518.015 342.164 518.184C343.256 518.352 344.005 519.373 343.837 520.464C343.41 523.241 343.167 526.042 343.11 528.851C343.096 529.541 342.727 530.174 342.135 530.528C333.132 535.899 323.564 540.259 313.636 543.52C308.523 545.296 303.288 546.769 297.93 547.951C297.509 548.239 296.981 548.365 296.448 548.269C274.95 552.776 251.488 552.638 225.982 548.535C212.347 546.337 199.434 542.33 180.247 534.989C179.652 534.762 179.036 534.534 178.253 534.251C178.166 534.22 177.934 534.136 177.654 534.035L177.623 534.024C177.131 533.847 176.504 533.621 176.261 533.533C171.525 531.815 169.074 530.621 167.005 528.662C164.257 526.06 163.131 522.57 163.716 517.94C163.854 516.844 164.855 516.068 165.951 516.206C167.047 516.344 167.823 517.345 167.684 518.441C166.915 524.533 169.232 526.728 177.625 529.773C177.863 529.859 178.48 530.082 178.972 530.258C179.269 530.365 179.52 530.456 179.613 530.489C180.417 530.78 181.054 531.015 181.675 531.252C186.902 533.252 191.652 535 196.071 536.528C196.832 524.992 199.262 509.831 203.017 490.44C203.227 489.356 204.276 488.647 205.36 488.857C206.445 489.067 207.154 490.116 206.944 491.2C203.102 511.037 200.658 526.427 199.996 537.856C209.183 540.89 217.009 542.931 224.95 544.307ZM185.867 509.341C188.247 491.128 191.224 473.046 194.404 458.104C194.634 457.024 195.696 456.334 196.776 456.564C197.857 456.794 198.546 457.856 198.316 458.937C195.161 473.764 192.201 491.745 189.833 509.859C189.69 510.955 188.686 511.727 187.591 511.583C186.496 511.44 185.724 510.436 185.867 509.341ZM259.432 494.508C260.132 486.989 260.841 481.322 261.844 475.916C262.045 474.83 263.089 474.112 264.175 474.314C265.261 474.515 265.978 475.559 265.777 476.645C264.8 481.911 264.104 487.469 263.415 494.879C263.23 496.868 263.113 498.202 262.773 502.146C262.215 508.643 261.92 511.79 261.497 515.45C261.37 516.547 260.378 517.334 259.28 517.207C258.183 517.08 257.396 516.088 257.523 514.991C257.94 511.382 258.233 508.261 258.788 501.803C259.128 497.85 259.246 496.51 259.432 494.508ZM321.681 471.993C321.574 475.742 321.602 478.728 321.749 485.435C321.849 489.976 321.881 491.993 321.877 494.505C321.871 498.633 321.731 502.176 321.409 505.551C320.624 513.643 320.152 520.572 320.22 525.289C320.236 526.394 321.145 527.276 322.249 527.26C323.354 527.244 324.236 526.336 324.22 525.231C324.154 520.71 324.619 513.884 325.391 505.933C325.726 502.417 325.87 498.754 325.877 494.511C325.881 491.958 325.848 489.92 325.748 485.347C325.602 478.707 325.575 475.766 325.679 472.107C325.711 471.003 324.841 470.083 323.737 470.051C322.633 470.02 321.712 470.889 321.681 471.993ZM334.132 495.364C333.963 501.671 333.91 504.29 333.91 507.55C333.91 508.655 333.015 509.55 331.91 509.55C330.806 509.55 329.91 508.655 329.91 507.55C329.91 504.242 329.964 501.601 330.133 495.257C330.191 493.092 330.218 492.016 330.248 490.755C330.447 482.121 330.386 476.341 329.918 470.943C329.822 469.843 330.637 468.873 331.737 468.778C332.838 468.682 333.807 469.497 333.903 470.597C334.387 476.177 334.449 482.078 334.247 490.848C334.217 492.115 334.189 493.194 334.132 495.364Z" fill="#1CB377"/></g></g></g><g id="Phone/Item" transform="scale(1 1)"><g id="Phone/Item/Analitics"><g id="items"><g id="Group"><path id="Path" d="M312.419 172.075C312.467 171.559 312.715 171.057 313.169 170.701C313.226 170.656 313.285 170.614 313.347 170.576C313.456 170.505 313.639 170.386 313.892 170.221C314.35 169.924 314.87 169.587 315.443 169.216C317.077 168.158 318.809 167.04 320.562 165.912C325.575 162.689 329.755 160.034 332.521 158.335L332.5 158.347C334.567 157.074 336.494 155.809 339.787 153.594C345.61 149.676 347.227 148.615 349.962 146.998C350.036 146.955 350.113 146.916 350.192 146.882L351.522 146.312C352.486 145.899 353.605 146.3 354.086 147.232C357.504 153.845 359.639 160.902 359.789 166.818C360.004 175.008 358.641 183.164 355.773 190.84C355.354 191.961 354.051 192.466 352.987 191.92L351.83 191.326C349.983 190.37 347.995 189.562 344.112 188.118C343.902 188.039 343.595 187.925 343.075 187.732C339.016 186.224 336.953 185.392 334.854 184.338C332.879 183.348 328.458 181.21 322.515 178.362C320.432 177.363 318.305 176.345 316.249 175.364C315.529 175.02 314.869 174.705 314.284 174.426C313.683 174.139 313.683 174.139 313.549 174.076C312.907 173.769 312.53 173.196 312.434 172.582C312.408 172.416 312.402 172.246 312.419 172.075Z" fill="#FF9BA5"/><path id="Path_2" d="M346.123 184.586C345.805 184.467 344.718 184.064 344.56 184.005C340.69 182.565 338.626 181.725 336.681 180.73C334.956 179.862 331.458 178.164 326.682 175.87L326.528 175.797C324.069 174.616 321.435 173.356 318.801 172.099C317.879 171.658 317.023 171.25 316.255 170.884C315.827 170.68 315.827 170.68 315.542 170.544L315.289 170.424C312.999 169.334 311.224 172.626 313.393 173.94L313.753 174.159C316.67 177.78 319.292 181.395 323.812 187.882C324.111 188.312 325.151 189.806 325.329 190.062C331.081 198.319 334.232 202.604 338.04 207.082L338.498 207.705C339.126 208.558 340.31 208.774 341.198 208.198C346.312 204.88 350.596 200.43 353.717 195.194L353.742 195.151C354.559 193.7 355.269 192.192 355.866 190.638C356.275 189.573 355.713 188.383 354.632 188.023L353.54 187.659C351.662 186.715 349.647 185.898 346.123 184.586Z" fill="#8885D2"/><path id="Path_3" d="M312.371 172.292C312.363 172.147 312.349 171.899 312.33 171.558C312.295 170.942 312.255 170.244 312.209 169.478C312.078 167.29 311.931 164.994 311.771 162.699C311.316 156.178 310.845 150.952 310.392 147.948C309.659 143.091 309.289 139.194 308.617 130.427C308.469 128.492 308.402 127.633 308.316 126.56L308.31 126.4V126.33C308.31 125.225 309.205 124.33 310.31 124.33H310.682C325.211 123.207 340.606 128.545 348.747 138.77C350.762 141.354 352.53 144.121 354.028 147.036C354.514 147.981 354.176 149.141 353.258 149.677L352.024 150.398C349.504 151.9 348.18 152.768 342.468 156.595C338.937 158.961 336.822 160.336 334.557 161.704C331.839 163.374 327.675 166.018 322.684 169.228C320.934 170.353 319.206 171.469 317.574 172.525C317.003 172.895 316.485 173.232 316.028 173.528C315.754 173.705 315.562 173.83 315.46 173.897C316.377 173.301 316.646 172.077 316.059 171.15C315.469 170.217 314.233 169.939 313.3 170.53C312.677 170.924 312.346 171.605 312.371 172.292C312.371 172.304 312.372 172.316 312.372 172.327C312.376 172.395 312.383 172.463 312.393 172.528C312.434 172.791 312.528 173.051 312.68 173.29C312.816 173.504 312.986 173.684 313.178 173.827C313.315 173.928 313.464 174.011 313.621 174.075C314.198 174.307 314.874 174.268 315.439 173.91C315.446 173.906 315.453 173.901 315.46 173.897L312.371 172.292Z" fill="#FCD400"/><path id="Path_4" d="M328.591 187.816C328.413 187.56 327.373 186.066 327.073 185.635C322.389 178.912 319.707 175.222 316.624 171.412C316.479 171.232 316.303 171.079 316.106 170.96L315.446 170.56C314.524 170.001 313.326 170.273 312.736 171.174L312.528 171.492C312.293 171.851 312.293 171.851 311.941 172.389C311.308 173.356 310.603 174.433 309.844 175.594C307.674 178.911 305.505 182.234 303.48 185.341L303.405 185.457C299.836 190.934 297.118 195.128 295.583 197.534C295.05 198.373 294.362 199.4 293.551 200.573C293.443 200.729 293.334 200.887 293.222 201.047C292.423 202.194 291.566 203.399 290.709 204.586C290.409 205.002 290.13 205.386 289.88 205.728C289.731 205.933 289.624 206.079 289.568 206.155C288.84 207.145 289.168 208.551 290.26 209.116C291.813 209.92 293.338 210.632 294.921 211.281C308 216.657 319.336 217.456 331.276 213.162C334.835 211.898 338.232 210.199 341.385 208.106C342.509 207.36 342.587 205.737 341.539 204.887L340.993 204.444C337.326 200.124 334.233 195.916 328.591 187.816Z" fill="#C44538"/><path id="Path_5" d="M310.139 124.387C301.349 125.14 293.544 127.419 287.84 131.481C282.931 134.965 278.496 140.196 274.585 146.574C269.865 154.259 267.813 166.253 269.221 175.811C271.733 192.916 277.657 202.574 290.278 209.125C291.151 209.578 292.223 209.33 292.808 208.539C292.867 208.459 292.976 208.311 293.128 208.104C293.38 207.759 293.662 207.373 293.964 206.955C294.83 205.76 295.696 204.546 296.505 203.384C296.629 203.206 296.751 203.03 296.871 202.857C297.709 201.643 298.423 200.574 298.982 199.685C300.501 197.304 303.214 193.117 306.776 187.65L306.852 187.535C308.875 184.429 311.044 181.109 313.212 177.793C313.971 176.633 314.675 175.556 315.308 174.59C315.66 174.052 315.66 174.052 315.895 173.693L316.103 173.376C316.337 173.018 316.451 172.593 316.426 172.165C316.423 172.11 316.423 172.11 316.408 171.853C316.393 171.599 316.376 171.305 316.356 170.974C316.298 170.028 316.233 168.975 316.159 167.84C315.95 164.598 315.723 161.356 315.484 158.328C315.115 153.632 314.754 149.891 314.41 147.433C313.858 143.476 313.416 139.397 312.977 134.437C312.798 132.407 312.652 130.635 312.376 127.196L312.31 126.37C312.304 125.203 311.303 124.288 310.139 124.387Z" fill="#FC6E47"/></g><path id="Path_6" d="M295.84 245.89C295.733 244.743 295.713 243.59 295.78 242.44C295.974 239.41 295.666 236.37 294.87 233.44C294.626 232.604 293.87 232.022 293 232H292.09C287 231.85 281.83 231.87 279.61 233.91C277.39 235.95 277.75 240.91 278.5 246.11C278.56 246.49 278.61 246.823 278.65 247.11C278.781 248.112 279.639 248.859 280.65 248.85H280.78C282.39 248.75 284.06 248.7 285.68 248.66C288.51 248.637 291.337 248.467 294.15 248.15C294.673 248.081 295.147 247.808 295.47 247.39C295.789 246.96 295.923 246.419 295.84 245.89V245.89Z" fill="#FC6E47"/><path id="Path_7" d="M298.55 267.14C298.102 263.466 297.357 259.834 296.32 256.28C296.068 255.434 295.292 254.853 294.41 254.85H291.75C288.22 254.85 284.56 254.78 280.68 255.09C279.657 255.172 278.862 256.014 278.84 257.04C278.833 260.316 279.168 263.584 279.84 266.79C280.02 267.79 280.2 268.72 280.32 269.63C280.46 270.624 281.316 271.36 282.32 271.35H282.41C287.41 271.14 293.15 270.8 297.25 269.29C298.136 268.969 298.677 268.073 298.55 267.14Z" fill="#C44538"/><path id="Path_8" d="M298.609 278.29C298.255 277.623 297.555 277.213 296.799 277.23C294.179 277.29 291.669 277.53 289.249 277.76C287.299 277.95 285.249 278.15 283.249 278.24C282.713 278.263 282.209 278.501 281.849 278.9C281.489 279.305 281.309 279.839 281.349 280.38L281.399 281.1C281.599 283.76 281.889 287.78 281.399 289.7C281.159 290.707 281.728 291.731 282.709 292.06C282.962 292.142 283.219 292.209 283.479 292.26L284.749 291.26C288.172 288.38 292.641 287.058 297.079 287.61C298.088 287.76 299.077 288.018 300.029 288.38C299.999 285.31 299.659 280.26 298.609 278.29Z" fill="#8885D2"/><path id="Path_9" d="M310.269 240.694C315.456 240.278 320.731 239.815 327.905 239.156C329.441 239.014 330.725 238.896 333.402 238.648C347.236 237.366 353.266 236.833 360.849 236.264C361.951 236.182 362.777 235.222 362.694 234.12C362.611 233.019 361.651 232.193 360.55 232.276C352.935 232.847 346.89 233.381 333.033 234.665C330.357 234.913 329.073 235.031 327.539 235.172C320.38 235.831 315.119 236.293 309.95 236.706C308.849 236.795 308.028 237.759 308.116 238.86C308.204 239.961 309.168 240.782 310.269 240.694Z" fill="#3B3B3B"/><path id="Path_10" d="M312.078 263.999C318.008 263.769 321.886 263.179 329.777 261.581L329.836 261.569C337.555 260.005 341.254 259.442 346.929 259.218C348.255 259.167 349.643 259.13 351.197 259.102C352.529 259.079 353.599 259.067 356.001 259.046C363.361 258.979 366.658 258.887 370.848 258.533C371.949 258.44 372.766 257.472 372.673 256.372C372.58 255.271 371.612 254.454 370.512 254.547C366.455 254.89 363.225 254.98 355.965 255.046C353.552 255.068 352.474 255.08 351.127 255.103C349.546 255.131 348.13 255.168 346.772 255.222C340.829 255.456 336.956 256.045 329.042 257.649L328.983 257.66C321.287 259.219 317.584 259.782 311.923 260.002C310.819 260.044 309.959 260.974 310.002 262.078C310.044 263.181 310.974 264.041 312.078 263.999Z" fill="#3B3B3B"/><path id="Path_11" d="M313.865 284.44C317.167 284.117 320.554 283.784 324.945 283.35C326.468 283.2 332.26 282.628 333.619 282.494C336.997 282.16 339.685 281.895 342.279 281.64C348.138 281.065 353.19 280.574 358.031 280.111C359.13 280.006 359.936 279.029 359.831 277.929C359.726 276.83 358.749 276.024 357.649 276.129C352.806 276.593 347.75 277.084 341.888 277.66C339.293 277.914 336.604 278.179 333.226 278.513C331.866 278.647 326.075 279.219 324.552 279.37C320.162 279.803 316.776 280.136 313.475 280.46C312.376 280.567 311.572 281.546 311.68 282.645C311.787 283.744 312.766 284.548 313.865 284.44Z" fill="#3B3B3B"/><path id="Path_12" d="M315.407 305.817C315.559 305.809 315.841 305.794 316.237 305.772C316.895 305.735 317.628 305.693 318.418 305.648C320.676 305.517 322.933 305.378 325.041 305.238C326.64 305.132 328.09 305.029 329.357 304.93C331.004 304.802 332.315 304.684 333.248 304.577L354.248 302.167C356.368 301.921 358.003 301.683 361.629 301.116C365.203 300.558 366.802 300.324 368.85 300.087C369.948 299.959 370.734 298.967 370.607 297.87C370.479 296.772 369.487 295.986 368.389 296.113C366.271 296.359 364.637 296.597 361.011 297.164C357.437 297.722 355.838 297.956 353.789 298.193L332.792 300.603C331.917 300.704 330.649 300.818 329.048 300.942C327.796 301.039 326.361 301.141 324.776 301.247C322.68 301.386 320.434 301.524 318.187 301.654C317.4 301.7 316.67 301.741 316.015 301.778C315.622 301.8 315.341 301.815 315.192 301.823C314.089 301.882 313.243 302.824 313.303 303.927C313.362 305.03 314.304 305.876 315.407 305.817Z" fill="#3B3B3B"/></g></g></g><g id="Phone/Effect" transform="scale(1 1)"><g id="Phone/Effect/Pop"><g id="addons"><path id="Path" d="M376.433 71.3111L386.743 49.3211C387.329 48.071 386.791 46.5824 385.541 45.9963C384.291 45.4102 382.802 45.9485 382.216 47.1986L371.906 69.1886C371.32 70.4387 371.858 71.9273 373.108 72.5134C374.358 73.0996 375.847 72.5613 376.433 71.3111Z" fill="#CCC9C6"/><path id="Path_2" d="M417.054 60.7767L395.044 76.5267C393.922 77.3302 393.663 78.8918 394.466 80.0146C395.27 81.1374 396.831 81.3963 397.954 80.5928L419.964 64.8428C421.087 64.0394 421.346 62.4778 420.542 61.3549C419.739 60.2321 418.177 59.9732 417.054 60.7767Z" fill="#CCC9C6"/><path id="Path_3" d="M404.668 106.66L424.718 106.27C426.098 106.243 427.196 105.102 427.169 103.721C427.142 102.341 426.001 101.244 424.621 101.271L404.571 101.661C403.19 101.687 402.093 102.828 402.12 104.209C402.146 105.589 403.287 106.686 404.668 106.66Z" fill="#CCC9C6"/></g></g></g></g></g></g></svg>