<svg viewBox="0 0 599.9999999999999 607.5" fill="none" xmlns="http://www.w3.org/2000/svg" xmlns:xlink="http://www.w3.org/1999/xlink" overflow="visible" width="599.9999999999999px" height="607.5px"><g id="Master/Spot Illustrations/Show"><g id="Background" style="mix-blend-mode:soft-light" transform="scale(1 1)"><g id="Background/Spark"><path id="Path" d="M325 232.16C345 231.33 384.66 228.09 385.06 228.06C386.121 227.97 386.926 227.065 386.89 226C386.2 203.92 380.82 175.19 375.65 150C372.55 135.06 361.35 83.6402 346 49.6302C345.678 48.9135 344.966 48.4518 344.18 48.4502H343.45C312.27 48.4502 280.56 54.2202 253.63 59.8802C228.98 65.0602 202.63 69.9302 173.08 74.7802C157.52 77.3302 144.62 81.0002 132.5 86.2202C131.875 86.4896 131.43 87.0585 131.318 87.73C131.207 88.4016 131.445 89.0836 131.95 89.5402C157.07 112.34 182.32 140.54 207.04 173.38C198.54 173.8 190.09 174.58 181.89 175.38C176.89 175.84 171.8 176.31 166.69 176.7C158.64 177.32 150.81 178.05 143.23 178.76C135.91 179.45 128.34 180.16 120.61 180.76C119.893 180.814 119.26 181.248 118.952 181.897C118.644 182.546 118.708 183.311 119.12 183.9C123.71 190.47 129.64 198.23 135.37 205.74C139.14 210.67 142.69 215.33 145.92 219.69C161.5 240.8 175.32 256.4 192.64 275.37C186.48 275.69 180.07 274.25 173.35 272.74C167.12 271.34 160.69 269.89 154.15 269.83V269.83C153.394 269.829 152.702 270.254 152.362 270.929C152.021 271.604 152.09 272.413 152.54 273.02C164.49 289.27 202.81 336.13 215.4 351.53L218.9 355.81C241.08 383 262.57 408.14 295.37 442.48C295.746 442.874 296.266 443.098 296.81 443.1C297.411 443.111 297.985 442.85 298.373 442.39C298.761 441.931 298.921 441.321 298.81 440.73C289.53 392.49 276.68 342.45 265.64 311.39C273.83 313.56 286.3 313.28 299.37 312.98C306.06 312.82 312.98 312.66 318.88 312.9C319.61 312.933 320.3 312.564 320.679 311.94C321.058 311.315 321.066 310.533 320.7 309.9C309.43 289.79 303.5 280 295.3 266.51C292.37 261.68 276.49 238.94 270.08 229.79C288.289 232.102 306.659 232.894 325 232.16Z" fill="#EAF3F3"/><path id="Path_2" d="M430.9 378C431.41 375.62 428.9 372.38 422.71 365C420.55 362.43 418.51 360 417.38 358.33C416.813 357.486 415.703 357.202 414.8 357.67C398 366.3 379 380.39 362.62 396.27C361.838 397.028 361.807 398.273 362.55 399.07C365.11 401.81 368.11 404.76 371.01 407.62C372.83 409.42 374.64 411.2 376.32 412.92C377.013 413.626 378.118 413.72 378.92 413.14C382.86 410.31 386.83 407.25 391.02 404.01C403.35 394.51 416.09 384.69 429.67 379.4C430.286 379.164 430.746 378.641 430.9 378Z" fill="#EAF3F3"/><path id="Path_3" d="M474 471.47C473.947 470.644 473.39 469.936 472.6 469.69C459.16 465.48 444.31 464.63 429.95 463.81C421.2 463.31 412.16 462.81 403.72 461.51C402.746 461.36 401.809 461.941 401.51 462.88C399.612 468.936 398.244 475.146 397.42 481.44C397.277 482.483 397.968 483.458 399 483.67L403.06 484.43C407.83 485.31 415.83 486.79 418.42 487.33C427.07 489.14 467.37 494.9 469.08 495.14H469.36C470.074 495.139 470.733 494.758 471.09 494.14C471.2 493.9 475 487.21 474 471.47Z" fill="#EAF3F3"/><path id="Path_4" d="M215.22 508.35C214.534 507.987 213.7 508.053 213.08 508.52C212.67 508.83 172.68 539.16 155.93 548.75C155.271 549.132 154.886 549.855 154.937 550.615C154.988 551.375 155.466 552.04 156.17 552.33C161.29 554.43 169.97 563.89 174.55 569.74C174.93 570.22 175.508 570.5 176.12 570.5C176.417 570.501 176.711 570.436 176.98 570.31C183.31 567.31 189.23 562.82 194.98 558.47C196.47 557.35 197.93 556.23 199.38 555.16C209.06 548.02 234.48 526.62 235.56 525.71C236.019 525.33 236.284 524.765 236.284 524.17C236.284 523.574 236.019 523.01 235.56 522.63C223 512.46 215.53 508.51 215.22 508.35Z" fill="#EAF3F3"/><path id="Path_5" d="M202.83 465.42C202.989 465.467 203.154 465.491 203.32 465.49C204.003 465.492 204.641 465.145 205.01 464.57L205.17 464.32C209.79 457.12 215.02 448.96 216.39 440.58C216.478 440.048 216.348 439.504 216.03 439.07C215.711 438.639 215.231 438.354 214.7 438.28C201.16 436.35 145.7 419.84 145.15 419.67C144.234 419.405 143.259 419.824 142.82 420.67C142.76 420.79 136.6 432.27 131.87 443.45C131.452 444.441 131.894 445.586 132.87 446.04C144.55 451.4 168.44 457.13 187.64 461.74C193.31 463.07 198.66 464.35 202.83 465.42Z" fill="#EAF3F3"/></g></g><g id="Master/Hands/Show" transform="scale(1 1)"><g id="Master/Hands/Show"><g id="base"><path id="Path" d="M439.61 240.732C426.519 229.687 406.456 229.461 389.738 238.02C388.533 238.639 387.291 239.299 385.963 240.023C381.599 233.952 371.682 232.643 363.058 234.927C359.602 235.846 355.474 237.376 350.455 239.522C349.067 240.115 347.616 240.753 346.041 241.461C343.953 242.399 337.088 245.558 335.87 246.106C330.21 248.646 324.468 251.278 316.218 255.099C315.423 255.467 314.59 255.853 313.636 256.295C301.811 261.777 301.367 261.982 297.006 263.982C284.344 269.789 266.342 278.971 253.693 286.055C250.154 288.044 244.204 291.479 236.51 295.962L236.207 296.139C231.726 298.75 226.945 301.548 222.176 304.346C220.507 305.325 218.959 306.234 217.57 307.05C217.269 307.227 217.044 307.36 216.794 307.507C214.776 306.425 210.759 304.272 209.42 303.556C205.965 301.707 203.09 300.175 200.311 298.705C199.442 298.246 198.594 297.798 197.762 297.36C189.965 293.257 183.556 289.989 178.255 287.447C165.151 281.155 159.812 279.021 152.789 277.992C148.33 277.338 144.085 277.502 139.895 278.572C130.074 281.078 126.459 292.743 132.314 302.741C135.79 308.668 140.15 313.524 148.851 321.936C148.913 321.995 151.437 324.431 152.157 325.129C153.401 326.336 154.414 327.331 155.366 328.285C156.287 329.209 157.129 330.073 157.918 330.905C158.711 331.746 163.186 336.451 164.477 337.825C176.712 350.843 183.035 359.63 186.001 369.695C190.694 385.635 191.83 401.728 191.83 432.29C191.83 440.553 192.033 460.33 192.382 488.135C192.423 491.402 192.466 494.752 192.51 498.176C192.659 509.685 192.818 571.519 192.978 583.022C193.033 587.048 193.085 590.745 193.132 594.031C193.148 595.181 193.162 596.198 193.175 597.071C193.187 597.954 193.187 597.954 193.19 598.139C193.206 599.232 194.097 600.11 195.19 600.11H368.52C369.636 600.11 370.536 599.197 370.52 598.081C370.509 597.305 370.509 597.305 370.459 593.813C370.41 590.418 370.356 586.635 370.297 582.561C370.13 570.921 369.963 509.281 369.807 498.417L369.803 498.108C369.522 478.603 369.309 463.834 369.19 455.691C369.051 447.24 368.777 438.383 368.365 428.377C368.048 420.687 367.744 414.286 367.076 400.856C366.275 384.721 365.944 377.711 365.615 369.195C365.93 368.912 366.282 368.597 366.668 368.251C368.065 366.998 369.622 365.596 371.298 364.079C376.087 359.744 380.876 355.353 385.348 351.173C385.89 350.667 386.425 350.166 386.952 349.67C394.846 342.253 400.663 336.494 403.695 332.976C405.638 330.72 407.761 328.371 410.285 325.666C411.464 324.403 412.701 323.093 414.261 321.451C414.93 320.747 417.627 317.916 418.305 317.203C431.688 303.124 438.443 294.9 443.882 284.766C447.205 278.607 446.675 271.093 442.44 266.459C449.011 258.408 447.249 247.179 439.61 240.732Z" fill="#ff9ba5"/><path id="Path" d="M265.321 388.997C266.072 388.955 266.619 388.911 268.07 388.784C268.94 388.708 269.392 388.671 269.903 388.634C272.251 388.467 273.895 388.506 275.316 388.822C276.394 389.062 277.462 388.383 277.702 387.305C277.942 386.226 277.263 385.158 276.185 384.918C274.303 384.499 272.322 384.452 269.62 384.644C269.08 384.683 268.612 384.722 267.721 384.8C266.315 384.923 265.792 384.965 265.099 385.003C263.996 385.064 263.152 386.008 263.213 387.111C263.274 388.214 264.218 389.058 265.321 388.997Z" fill="#484882"/><path id="Path" d="M259.386 313.345C266.662 311.6 275.614 313.178 284.401 318.381C292.416 323.127 297.089 329.749 300.68 339.228C301.071 340.261 302.225 340.782 303.258 340.39C304.291 339.999 304.811 338.844 304.42 337.812C300.537 327.56 295.358 320.22 286.439 314.939C276.786 309.223 266.777 307.459 258.454 309.455C257.379 309.713 256.717 310.792 256.975 311.866C257.233 312.94 258.312 313.602 259.386 313.345Z" fill="#484882"/><path id="Path" d="M311 278.8C334.1 278.8 359.213 286.526 378.499 299.403C379.418 300.017 380.66 299.769 381.273 298.851C381.887 297.932 381.639 296.69 380.721 296.077C360.782 282.764 334.896 274.8 311 274.8C309.895 274.8 309 275.695 309 276.8C309 277.905 309.895 278.8 311 278.8Z" fill="#484882"/><path id="Path" d="M351.801 285.345C353.521 284.269 355.245 283.169 356.979 282.041C367.305 275.329 396.343 254.413 397.707 253.482C411.029 244.386 420.192 239.891 428.825 238.825C429.921 238.69 430.7 237.691 430.565 236.595C430.43 235.499 429.431 234.72 428.335 234.855C418.903 236.02 409.262 240.749 395.452 250.178C394.014 251.16 365.028 272.039 354.799 278.688C353.084 279.803 351.38 280.89 349.679 281.955C348.743 282.541 348.459 283.775 349.045 284.711C349.631 285.647 350.865 285.931 351.801 285.345Z" fill="#484882"/><path id="Path" d="M328.077 279.144C328.983 278.494 329.822 277.89 331.258 276.857C344.193 267.554 349.735 263.631 357.279 258.538C370.235 249.791 375.171 246.7 384.38 241.86C385.358 241.347 385.734 240.137 385.22 239.16C384.706 238.182 383.497 237.806 382.519 238.32C373.149 243.244 368.11 246.4 355.041 255.222C347.453 260.345 341.89 264.283 328.923 273.61C327.487 274.642 326.648 275.246 325.743 275.896C324.846 276.54 324.641 277.79 325.285 278.687C325.93 279.584 327.18 279.789 328.077 279.144Z" fill="#484882"/><path id="Path" d="M439.215 265.804C440.167 266.364 441.393 266.046 441.953 265.095C442.514 264.143 442.196 262.917 441.244 262.356C437.901 260.389 434.129 259.265 430.254 259.082L430.126 259.08C427.022 259.133 423.667 260.187 419.916 262.106C417.334 263.427 414.7 265.074 411.405 267.347C411.303 267.417 405.362 271.601 403.916 272.545C388.675 282.518 381.649 287.029 372.799 292.422C371.856 292.997 371.557 294.227 372.132 295.171C372.706 296.114 373.937 296.413 374.88 295.838C383.779 290.416 390.83 285.888 406.105 275.894C407.618 274.905 413.627 270.673 413.676 270.64C416.84 268.457 419.341 266.893 421.737 265.667C424.964 264.016 427.75 263.136 430.131 263.081C433.334 263.242 436.451 264.176 439.215 265.804Z" fill="#484882"/></g><g id="Show/Wear" transform="scale(1 1)"><g id="Show/Wear/Hoodie 3"><g id="clothing"><path id="Path" d="M459.531 557.9C456.581 548.18 452.631 540.6 442.951 535.21C435.791 531.21 429.271 530.6 422.341 533.46C425.871 526.759 427.545 519.236 427.191 511.67C426.741 499.22 421.531 487.74 413.241 480.97C396.481 467.27 383.961 475.81 371.891 484.31C371.801 479.95 372.061 475.23 372.301 470.97C372.585 467.31 372.685 463.639 372.601 459.97C372.191 452.24 372.411 444.25 372.601 436.51C372.811 428.61 373.031 420.44 372.601 412.51C372.562 411.805 372.154 411.173 371.529 410.847C370.903 410.52 370.151 410.548 369.551 410.92C362.811 415.05 355.841 419.33 347.161 421.38C325.001 426.61 299.511 428.48 269.231 427.09C264.231 426.87 259.231 426.69 254.231 426.51C242.231 426.08 229.891 425.64 217.831 424.51C195.941 422.42 192.521 419.24 191.991 418.31C191.557 417.549 190.679 417.159 189.824 417.347C188.969 417.535 188.336 418.258 188.261 419.13C187.811 424.22 185.121 455.53 184.651 478.73C179.331 477.6 173.581 477.83 168.551 481.29C154.721 490.8 157.881 506.09 160.661 519.58C160.871 520.58 161.081 521.58 161.271 522.58C160.759 522.219 160.228 521.885 159.681 521.58C152.091 517.38 139.761 517.14 134.321 521.08C124.261 528.37 122.091 545.75 121.661 550.9C120.721 562.4 124.661 577.79 131.591 587.68C135.011 592.58 142.441 600.04 148.231 600.04H455.131C460.571 591.17 463.471 570.9 459.531 557.9Z" fill="#1A4E66"/><path id="Combined Shape" fill-rule="evenodd" clip-rule="evenodd" d="M359.41 419.5C359.41 424.974 359.52 429.359 359.843 439.082C360.327 453.597 360.421 459.972 360.09 467.956C359.85 473.774 359.361 479.175 358.573 484.37C358.407 485.462 359.158 486.482 360.25 486.647C361.342 486.813 362.362 486.062 362.528 484.97C363.339 479.622 363.84 474.078 364.087 468.121C364.423 460.005 364.328 453.563 363.841 438.949C363.519 429.27 363.41 424.915 363.41 419.5C363.41 418.395 362.515 417.5 361.41 417.5C360.306 417.5 359.41 418.395 359.41 419.5ZM194.744 425.385C194.036 431.358 193.71 437.308 193.429 447.038C193.404 447.897 193.386 448.538 193.342 450.15C193.181 455.997 193.095 458.635 192.943 461.825C192.775 465.352 192.812 472.645 193 483.575C193.036 485.679 193.077 487.888 193.126 490.397C193.148 491.511 193.2 494.093 193.243 496.231L193.244 496.242L193.244 496.269L193.245 496.305C193.274 497.747 193.299 498.975 193.307 499.392C193.337 500.903 193.36 502.131 193.377 503.139C191.32 502.107 189.996 500.993 188.862 499.41C186.338 495.889 185.393 490.101 186.281 480.79C186.386 479.69 185.58 478.714 184.48 478.609C183.381 478.504 182.404 479.311 182.299 480.41C181.328 490.593 182.421 497.291 185.611 501.741C188.194 505.345 191.278 506.999 197.797 509.147C197.892 509.178 198.135 509.258 198.42 509.351L198.461 509.365L198.472 509.368C198.921 509.515 199.451 509.689 199.663 509.759C200.663 510.086 201.7 510.426 202.898 510.82L203.267 510.942L203.295 510.951C204.585 511.376 208.627 512.708 209.934 513.137C212.611 514.015 214.826 514.734 216.951 515.413C233.001 520.536 244.826 523.542 257.246 525.261C291.175 529.975 326.569 524.074 359.125 508.913C365.33 506.028 367.798 504.535 370.275 501.549C373.448 497.724 374.98 492.42 374.98 484.67C374.98 483.565 374.085 482.67 372.98 482.67C371.876 482.67 370.98 483.565 370.98 484.67C370.98 491.56 369.706 495.97 367.196 498.996C365.23 501.366 363.105 502.651 357.437 505.286C354.174 506.806 350.883 508.23 347.567 509.558C347.957 505.352 348.029 500.434 347.869 494.255C347.81 492.011 347.735 489.933 347.593 486.434C347.408 481.878 347.374 481 347.319 479.141C347.287 478.037 346.366 477.168 345.261 477.201C344.157 477.233 343.289 478.155 343.321 479.259C343.377 481.139 343.411 482.021 343.596 486.596C343.738 490.077 343.812 492.14 343.87 494.359C344.05 501.303 343.931 506.581 343.395 510.957C343.386 511.032 343.381 511.106 343.38 511.179C327.422 517.144 310.954 520.888 294.47 522.257V457.03C294.47 455.925 293.575 455.03 292.47 455.03C291.366 455.03 290.47 455.925 290.47 457.03V522.543C279.519 523.197 268.579 522.797 257.796 521.299C255.458 520.975 253.14 520.605 250.807 520.181C250.809 520.144 250.81 520.107 250.81 520.07V504.52C250.81 503.415 249.915 502.52 248.81 502.52C247.706 502.52 246.81 503.415 246.81 504.52V519.406C243.518 518.728 240.161 517.941 236.647 517.027C236.827 516.727 236.93 516.376 236.93 516C236.93 506.093 236.958 500.746 237.083 494.323C237.268 484.861 237.637 477.283 238.248 471.833C238.371 470.735 237.581 469.745 236.483 469.622C235.385 469.499 234.396 470.29 234.273 471.387C233.645 476.988 233.271 484.67 233.084 494.245C232.958 500.702 232.93 506.068 232.93 516L232.931 516.031C228.368 514.773 223.508 513.307 218.168 511.602C216.054 510.927 213.849 510.211 211.181 509.336C209.864 508.904 205.76 507.552 204.51 507.14L204.148 507.021C202.948 506.626 201.908 506.285 200.912 505.959C200.698 505.888 200.162 505.713 199.713 505.566L199.71 505.565C199.408 505.466 199.146 505.38 199.048 505.347C198.467 505.156 197.92 504.97 197.402 504.788C197.386 503.543 197.355 501.813 197.306 499.313C197.298 498.891 197.273 497.638 197.243 496.174L197.242 496.148L197.242 496.141L197.242 496.134L197.242 496.112C197.199 493.982 197.147 491.424 197.126 490.318C197.076 487.812 197.035 485.607 196.999 483.506C196.813 472.68 196.776 465.419 196.938 462.015C197.092 458.79 197.178 456.134 197.34 450.26C197.385 448.65 197.403 448.01 197.427 447.153C197.705 437.535 198.026 431.679 198.716 425.855C198.846 424.758 198.063 423.764 196.966 423.634C195.869 423.504 194.874 424.288 194.744 425.385ZM205.492 456.619C205.603 446.057 205.896 437.382 206.456 429.901C206.538 428.799 207.498 427.973 208.6 428.056C209.701 428.138 210.527 429.098 210.445 430.199C209.892 437.581 209.602 446.177 209.492 456.661C209.433 462.23 209.426 466.814 209.443 476.363C209.449 479.881 209.45 481.255 209.45 483.05C209.45 484.155 208.555 485.05 207.45 485.05C206.346 485.05 205.45 484.155 205.45 483.05C205.45 481.258 205.449 479.886 205.443 476.369C205.426 466.805 205.433 462.209 205.492 456.619ZM348.95 453.197C349.106 439.626 349.019 432.32 348.426 424.216C348.345 423.115 349.173 422.156 350.274 422.075C351.376 421.995 352.334 422.822 352.415 423.924C353.019 432.173 353.107 439.564 352.95 453.243C352.938 454.347 352.032 455.232 350.927 455.22C349.823 455.207 348.938 454.302 348.95 453.197Z" fill="#0D323F"/></g></g></g><g id="Show/Item" transform="scale(1 1)"><g id="Show/Item/Lightbulb"><g id="items"><path id="Path" d="M293.387 248.954C295.337 255.712 300.501 260.609 306.903 260.052C313.162 259.511 318.451 253.476 318.379 247.037C318.367 245.933 317.461 245.047 316.357 245.06C315.252 245.072 314.367 245.977 314.379 247.082C314.428 251.457 310.703 255.709 306.557 256.067C302.368 256.432 298.706 252.958 297.231 247.845C296.925 246.784 295.816 246.172 294.755 246.478C293.693 246.784 293.081 247.893 293.387 248.954Z" fill="#80AAB1"/><path id="Path_2" d="M312.858 203.77H287C285.962 203.77 285.096 204.565 285.008 205.599C283.994 217.415 284.406 229.311 286.234 241.028C287.347 247.704 293.81 250.107 301.688 248.959C303.42 248.709 304.806 248.598 307.993 248.41C313.71 248.074 316.291 247.748 319.541 246.668C323.446 245.368 325.803 242.738 326.878 238.961C327.644 236.265 327.745 233.701 327.559 228.587C327.44 225.227 327.418 221.043 327.46 215.144C327.469 213.823 327.48 212.596 327.5 210.519C327.548 205.537 327.56 203.938 327.56 201.81C327.56 200.455 326.242 199.493 324.951 199.905L312.858 203.77Z" fill="#80AAB1"/><path id="Path_3" d="M324.508 209.291C317.355 209.475 308.947 212.36 301.463 217.268C294.189 222.038 288.931 226.879 286.169 231.252C285.579 232.186 285.858 233.421 286.791 234.011C287.725 234.601 288.961 234.322 289.551 233.388C291.964 229.567 296.82 225.096 303.656 220.613C310.546 216.094 318.243 213.453 324.611 213.289C325.715 213.261 326.587 212.343 326.559 211.239C326.531 210.134 325.612 209.262 324.508 209.291Z" fill="#5F8083"/><path id="Path_4" d="M291.391 244.985C296.277 236.353 314.289 225.757 325.818 223.842C326.908 223.661 327.645 222.631 327.464 221.542C327.283 220.452 326.253 219.716 325.163 219.896C312.533 221.994 293.456 233.216 287.91 243.014C287.366 243.976 287.704 245.196 288.666 245.74C289.627 246.284 290.847 245.946 291.391 244.985Z" fill="#5F8083"/><path id="Path_5" d="M302.445 247.285C306.945 241.331 317.753 235.178 325.942 233.278C327.018 233.028 327.688 231.953 327.438 230.877C327.188 229.801 326.114 229.132 325.038 229.381C316.001 231.479 304.375 238.097 299.254 244.874C298.588 245.755 298.763 247.009 299.644 247.675C300.525 248.341 301.779 248.167 302.445 247.285Z" fill="#5F8083"/><path id="Path_6" d="M295.745 210.471C292.195 212.196 286.857 217.36 284.847 220.62C284.267 221.56 284.559 222.793 285.499 223.372C286.44 223.952 287.672 223.66 288.251 222.72C289.884 220.072 294.673 215.439 297.493 214.069C298.487 213.586 298.901 212.389 298.418 211.396C297.935 210.402 296.739 209.988 295.745 210.471Z" fill="#5F8083"/><path id="Path_7" fill-rule="evenodd" clip-rule="evenodd" d="M250.557 103.474C236.476 122.212 233.805 154.344 244.359 176.238C252.169 192.415 266.339 202.762 283.454 206.112C303.236 210.021 330.299 205.229 344.727 194.167C360.724 181.928 370.127 163.952 370.31 144.549C370.516 123.081 358.959 99.5317 342.04 89.2314C314.515 72.4016 269.057 78.6801 250.557 103.474ZM284.228 202.188L284.224 202.187C268.308 199.072 255.206 189.505 247.961 174.5C238.049 153.934 240.586 123.401 253.759 105.871C270.969 82.8068 314.118 76.8472 339.957 92.646C355.603 102.172 366.504 124.382 366.31 144.511C366.139 162.654 357.336 179.484 342.295 190.991C328.847 201.303 302.949 205.888 284.228 202.188Z" fill="#FCD400"/><path id="Path_8" fill-rule="evenodd" clip-rule="evenodd" d="M265.897 139.068C270.992 135.79 276.688 137.006 281.971 141.433C285.693 144.551 289.049 149.215 290.81 153.36C293.893 151.738 296.647 149.525 298.684 146.88C294.139 141.062 292.093 132.672 296.171 127.538C298.34 124.799 302.721 123.297 305.745 125.207C308.717 127.077 308.963 130.984 307.639 136.265C306.833 139.482 305.417 143.111 304.223 145.534C304.066 145.853 303.901 146.168 303.727 146.479C304.387 147.096 305.084 147.639 305.805 148.087C308.742 149.936 313.678 151.051 318.808 151.092C320.916 144.997 323.932 140.7 328.542 138.115C331.193 136.631 334.554 135.651 337.034 135.883C340.98 136.254 342.57 139.439 340.88 144.102C338.673 150.185 332.188 153.82 323.706 154.826C323.067 154.902 322.424 154.961 321.779 155.004C321.591 155.676 321.412 156.37 321.239 157.088C320.679 159.421 320.55 160.105 319.558 165.662C319.111 168.162 318.787 170.801 318.539 173.803C318.347 176.124 318.24 177.948 318.025 182.204C317.758 187.477 317.605 189.87 317.299 192.798C317.184 193.896 316.2 194.694 315.101 194.579C314.003 194.464 313.205 193.48 313.32 192.382C313.617 189.549 313.767 187.203 314.03 182.002C314.247 177.703 314.356 175.851 314.553 173.473C314.811 170.354 315.149 167.593 315.621 164.958C316.63 159.304 316.763 158.599 317.35 156.155C317.438 155.787 317.528 155.425 317.62 155.068C312.21 154.871 307.054 153.599 303.685 151.479C302.915 151.001 302.168 150.444 301.455 149.822C298.995 152.846 295.764 155.349 292.174 157.158C294.391 163.891 295.917 170.837 296.728 177.899C296.909 179.604 297.068 181.919 297.209 184.701C297.316 186.821 297.406 189.088 297.481 191.356C297.507 192.149 297.529 192.886 297.547 193.547C297.558 193.945 297.565 194.229 297.569 194.382C297.595 195.486 296.721 196.403 295.617 196.429C294.513 196.455 293.596 195.582 293.57 194.477C293.566 194.329 293.559 194.05 293.548 193.658C293.53 193.003 293.509 192.273 293.483 191.487C293.409 189.241 293.32 186.996 293.214 184.904C293.076 182.188 292.921 179.937 292.753 178.338C291.987 171.673 290.555 165.105 288.479 158.729C281.953 161.017 274.765 161.065 269.031 157.98C261.629 153.993 258.583 143.777 265.897 139.068ZM336.66 139.866C335.113 139.721 332.501 140.482 330.498 141.604C327.26 143.42 324.922 146.469 323.164 150.862L323.235 150.854C330.375 150.007 335.531 147.117 337.119 142.738C337.979 140.366 337.782 139.971 336.66 139.866ZM299.305 130.024C300.34 128.716 302.59 127.945 303.611 128.591C305.528 129.797 303.761 137.153 300.942 143.129C298.065 138.721 296.862 133.099 299.305 130.024ZM266.001 148.397C266.73 150.842 268.714 153.266 270.927 154.458C275.604 156.974 281.627 156.888 287.143 154.957C285.634 151.387 282.645 147.216 279.402 144.499C275.325 141.083 271.446 140.254 268.062 142.431C265.881 143.836 265.254 145.892 266.001 148.397Z" fill="#FCD400"/><path id="Path_9" d="M180.299 157.689L192.159 157.399C193.263 157.372 194.136 156.455 194.109 155.351C194.082 154.246 193.165 153.373 192.061 153.4L180.201 153.69C179.097 153.717 178.224 154.634 178.251 155.738C178.278 156.843 179.195 157.716 180.299 157.689Z" fill="#FCD400"/><path id="Path_10" d="M195.62 68.1512L202.21 73.8612C203.045 74.5845 204.308 74.4942 205.031 73.6594C205.755 72.8246 205.664 71.5615 204.829 70.8382L198.239 65.1282C197.405 64.4048 196.142 64.4952 195.418 65.33C194.695 66.1648 194.785 67.4279 195.62 68.1512Z" fill="#FCD400"/><path id="Path_11" d="M363.718 33.2804L357.568 46.0204C357.088 47.0151 357.505 48.2108 358.5 48.691C359.495 49.1712 360.691 48.7541 361.171 47.7593L367.321 35.0193C367.801 34.0246 367.384 32.8289 366.389 32.3488C365.394 31.8686 364.199 32.2857 363.718 33.2804Z" fill="#FCD400"/><path id="Path_12" d="M396.02 49.176L382.85 57.956C381.931 58.5687 381.682 59.8104 382.295 60.7295C382.908 61.6485 384.15 61.8969 385.069 61.2842L398.239 52.5042C399.158 51.8915 399.406 50.6497 398.793 49.7307C398.181 48.8116 396.939 48.5633 396.02 49.176Z" fill="#FCD400"/><path id="Path_13" d="M403.724 178.595L418.134 182.045C419.208 182.302 420.288 181.64 420.545 180.566C420.802 179.491 420.14 178.412 419.066 178.155L404.656 174.705C403.581 174.448 402.502 175.11 402.245 176.184C401.988 177.258 402.65 178.338 403.724 178.595Z" fill="#FCD400"/></g></g></g></g></g></g></svg>