<svg viewBox="585 654.5041322314048 506.9999999999996 252.4793388429754" fill="none" xmlns="http://www.w3.org/2000/svg" xmlns:xlink="http://www.w3.org/1999/xlink" overflow="visible" width="506.9999999999996px" height="252.4793388429754px"><g id="Master/Stickers/Ramp"><g id="ramp"><g id="signs"><path id="Path" d="M1044.71 690.291C1044.61 681.141 1043.99 671.641 1037.86 665.071C1030.7 657.381 1019.26 657.071 1009.1 657.331L957.49 658.791C951.64 658.961 945.57 659.481 941.43 663.731C937.29 667.981 936.92 673.871 936.83 679.631L933.42 891.161C933.41 891.824 933.663 892.464 934.124 892.941C934.585 893.417 935.217 893.69 935.88 893.701V893.701C937.245 893.701 938.358 892.606 938.38 891.241V891.181L1041.9 890.081V890.081C1041.93 891.455 1043.06 892.551 1044.43 892.551C1045.09 892.546 1045.73 892.276 1046.19 891.801C1046.66 891.325 1046.91 890.685 1046.9 890.021L1044.71 690.291Z" fill="#D2DCD0"/><path id="Path_2" d="M1048.87 871.121H932.579C928.828 871.121 925.785 874.159 925.779 877.911V901.501C925.779 902.882 926.899 904.001 928.279 904.001H1053.16C1054.54 904.001 1055.66 902.882 1055.66 901.501V877.911C1055.65 874.163 1052.62 871.127 1048.87 871.121V871.121Z" fill="#A3B6B7"/><path id="Path_3" d="M777.4 684.521H729L688.75 731.231H742.57C755.137 716.398 766.769 700.798 777.4 684.521V684.521Z" fill="#FA4A1B"/><path id="Path_4" d="M597 728.401C599.449 730.24 602.428 731.233 605.49 731.231H648.38C660.963 716.402 672.609 700.801 683.25 684.521H634.8L597 728.401Z" fill="#FA4A1B"/><path id="Path_5" d="M871.58 684.521H823.14L782.89 731.231H836.71C849.29 716.399 860.936 700.799 871.58 684.521V684.521Z" fill="#FA4A1B"/><path id="Path_6" d="M965.75 684.521H917.31L877.06 731.231H930.88C943.46 716.399 955.105 700.799 965.75 684.521V684.521Z" fill="#FA4A1B"/><path id="Shape" fill-rule="evenodd" clip-rule="evenodd" d="M992.16 682.002H605.47C596.246 682.013 588.771 689.488 588.76 698.712V717.002C588.771 726.226 596.246 733.701 605.47 733.712H992.16C993.54 733.712 994.66 732.593 994.66 731.212V684.502C994.66 683.121 993.54 682.002 992.16 682.002ZM821 687.002H869.93C860.335 701.472 849.942 715.397 838.8 728.712H785L821 687.002ZM690.87 728.712H744.63L744.62 728.732C755.762 715.412 766.152 701.481 775.74 687.002H726.81L690.87 728.712ZM915.16 687.002H964.09C954.505 701.475 944.126 715.407 933 728.732H879.21C891.203 714.832 903.186 700.922 915.16 687.002ZM632.62 687.022L598.62 726.502C600.598 727.944 602.982 728.725 605.43 728.732H650.43C661.569 715.416 671.958 701.492 681.55 687.022H632.62Z" fill="#F6F6F6"/><path id="Path_7" d="M1028 710.13C1027.76 702.54 1027.26 694.51 1024.14 686.93C1020.56 678.24 1014 672.26 1006.14 670.52C994.29 667.9 983.61 672.37 977.59 682.52V682.52C976.71 684.002 975.942 685.546 975.29 687.14C971.6 696.2 971.53 706.21 971.46 715.04C971.35 730.04 978.71 741.21 991.16 744.9C993.736 745.653 996.407 746.03 999.09 746.02C1006.19 746.025 1013.07 743.509 1018.49 738.92C1027.59 731 1028.27 718.69 1028 710.13Z" fill="#A3B6B7"/><path id="Shape_2" fill-rule="evenodd" clip-rule="evenodd" d="M987.431 714.213C987.792 718.419 988.63 728.202 999.74 728.202C1007.68 728.202 1012.42 723.082 1012.39 714.512V712.992L1012.39 712.945C1012.41 706.389 1012.43 699.606 1008.58 693.062C1006.81 689.898 1003.57 687.838 999.95 687.582C996.919 687.342 993.911 688.276 991.55 690.192C990.005 691.642 988.956 693.542 988.55 695.622C987.14 700.992 986.79 706.722 987.43 714.202L987.431 714.213ZM999.74 723.202C994.86 723.202 993.01 720.792 992.41 713.792L992.38 713.902C991.82 707.012 992.12 701.802 993.38 697.012C993.538 695.873 994.069 694.818 994.89 694.012C996.236 692.986 997.913 692.494 999.6 692.632C1001.58 692.76 1003.35 693.892 1004.3 695.632C1007.42 701.002 1007.42 706.832 1007.42 713.002V714.522C1007.42 720.282 1004.84 723.202 999.74 723.202Z" fill="#F6F6F6"/><path id="Path_8" d="M1075.76 905H683.229C681.849 905 680.729 903.881 680.729 902.5C680.729 901.119 681.849 900 683.229 900H1075.76C1077.14 900 1078.26 901.119 1078.26 902.5C1078.26 903.881 1077.14 905 1075.76 905Z" fill="#1B1812"/></g></g></g></svg>