<svg viewBox="643.5 285.49586776859496 214.49999999999974 621.4876033057851" fill="none" xmlns="http://www.w3.org/2000/svg" xmlns:xlink="http://www.w3.org/1999/xlink" overflow="visible" width="214.49999999999974px" height="621.4876033057851px"><g id="Master/Stickers/Stop"><g id="stop"><g id="signs"><path id="Path" d="M775.52 875.53C772.002 875.53 769.15 872.678 769.15 869.16V869.16L767.53 458.08C767.524 456.703 766.407 455.59 765.03 455.59H745.61C744.948 455.587 744.312 455.848 743.843 456.316C743.374 456.783 743.11 457.418 743.11 458.08L741.49 869.17C741.484 872.686 738.636 875.534 735.12 875.54C725.835 875.551 718.311 883.075 718.3 892.36V895.18C718.305 900.054 722.255 904.004 727.13 904.01H783.51C788.384 904.004 792.334 900.054 792.34 895.18V892.36C792.334 883.071 784.809 875.541 775.52 875.53V875.53Z" fill="#A3B6B7"/><path id="Path_2" d="M806.12 459.802L715.69 463.722C697.05 451.852 679.85 436.162 665.31 418.612C662.168 392.343 662.312 365.785 665.74 339.552C665.74 339.552 689.74 304.942 704.74 290.832C735.927 288.459 767.219 287.775 798.48 288.782C814.27 302.442 829.74 316.232 843.31 332.572C846.979 360.164 847.984 388.046 846.31 415.832C832.92 429.422 818.34 444.942 806.12 459.802Z" fill="#FA4A1B"/><path id="Shape" fill-rule="evenodd" clip-rule="evenodd" d="M713.27 467.512C713.994 467.972 714.832 468.218 715.69 468.222H715.85L806.27 464.302C807.545 464.249 808.738 463.657 809.55 462.672C819.89 450.102 833.31 435.412 849.45 419.002C850.211 418.228 850.665 417.205 850.73 416.122C852.421 388.04 851.416 359.861 847.73 331.972C847.616 331.136 847.27 330.349 846.73 329.702C832.84 312.982 817.38 299.202 801.38 285.392C800.606 284.719 799.625 284.331 798.6 284.292C767.179 283.272 735.726 283.963 704.38 286.362C703.35 286.434 702.375 286.857 701.62 287.562C686.973 301.331 664.703 333.182 662.232 336.717C662.14 336.849 662.076 336.941 662.04 336.992C661.628 337.587 661.367 338.273 661.28 338.992C657.799 365.599 657.651 392.537 660.84 419.182C660.942 420.038 661.289 420.848 661.84 421.512C677.09 439.892 694.88 455.802 713.27 467.512ZM716.92 459.202C699.158 447.466 683.22 433.18 669.62 416.802V416.762C666.751 391.666 666.925 366.315 670.14 341.262C673.87 335.942 693.53 308.182 706.73 295.262C736.674 293.016 766.716 292.348 796.73 293.262C811.65 306.192 826.11 319.152 839.02 334.492C842.419 360.824 843.389 387.412 841.92 413.922C826.75 429.372 813.98 443.322 803.92 455.432L716.92 459.202Z" fill="#F6F6F6"/><path id="Path_3" d="M712.67 376.003C710.84 372.943 709.11 370.003 708.57 366.913C707.817 361.518 710.583 356.242 715.45 353.793C716.308 353.449 716.906 352.659 717.005 351.74C717.103 350.82 716.687 349.922 715.921 349.403C715.156 348.884 714.167 348.831 713.35 349.263C706.423 352.651 702.493 360.138 703.64 367.763C704.34 371.823 706.39 375.253 708.37 378.573L709.04 379.693C710.95 382.913 712.69 386.373 712.54 389.773C712.42 392.563 710.3 395.703 707.67 395.713C706.289 395.713 705.17 396.832 705.17 398.213C705.17 399.594 706.289 400.713 707.67 400.713V400.713C713.27 400.713 717.28 395.153 717.52 389.993C717.73 385.293 715.63 380.993 713.33 377.143L712.67 376.003Z" fill="#F6F6F6"/><path id="Path_4" d="M752.35 350.192C744.03 349.146 735.634 348.839 727.26 349.272C725.879 349.344 724.818 350.522 724.89 351.902C724.962 353.283 726.139 354.344 727.52 354.272C731.76 354.052 736.013 354.032 740.28 354.212C738.69 369.542 737.78 385.102 737.56 400.492C737.56 401.852 738.641 402.965 740 403.002V403.002C741.369 403.003 742.484 401.901 742.5 400.532C742.71 385.222 743.63 369.732 745.22 354.532C747.37 354.692 749.53 354.912 751.67 355.182H751.98C753.361 355.268 754.55 354.218 754.635 352.837C754.721 351.457 753.671 350.268 752.29 350.182L752.35 350.192Z" fill="#F6F6F6"/><path id="Shape_2" fill-rule="evenodd" clip-rule="evenodd" d="M761.88 364.63C764.65 361.43 768.55 360.84 772.55 363C777.47 365.65 778.74 373.15 777.82 379.4C776.83 386.02 773.58 390.68 769.32 391.55C768.869 391.64 768.41 391.687 767.95 391.69C764.82 391.69 762.08 389.55 760.45 387.33C756.53 382.01 757.29 369.91 761.88 364.63ZM768.32 386.66C770.37 386.23 772.24 382.95 772.87 378.66C773.62 373.57 772.44 368.62 770.18 367.41C767.73 366.09 766.51 366.92 765.65 367.92C762.38 371.68 762.15 381.22 764.48 384.38C765.45 385.66 767.02 386.93 768.32 386.66Z" fill="#F6F6F6"/><path id="Shape_3" fill-rule="evenodd" clip-rule="evenodd" d="M790.916 349.393C793.864 349.473 797.212 349.564 800.34 350.943C803.54 352.343 806.75 355.633 806.67 359.823C806.64 363.343 804.23 366.733 800.52 368.463C798.138 369.467 795.593 370.03 793.01 370.123L792.6 396.123C792.578 397.488 791.465 398.583 790.1 398.583C789.437 398.572 788.805 398.299 788.344 397.823C787.882 397.346 787.629 396.706 787.64 396.043L788.34 351.853C788.35 351.184 788.628 350.547 789.11 350.083C789.589 349.614 790.24 349.364 790.91 349.393L790.916 349.393ZM793.13 365.123C794.958 365.04 796.758 364.64 798.45 363.943V363.903C800 363.173 801.67 361.663 801.69 359.773C801.71 357.883 799.95 356.253 798.3 355.523C796.703 354.904 795.012 354.566 793.3 354.523L793.13 365.123Z" fill="#F6F6F6"/><path id="Path_5" d="M825.409 905H685.229C683.849 905 682.729 903.881 682.729 902.5C682.729 901.119 683.849 900 685.229 900H825.409C826.79 900 827.909 901.119 827.909 902.5C827.909 903.881 826.79 905 825.409 905Z" fill="#1B1812"/></g></g></g></svg>