<svg width="64" height="64" viewBox="0 0 64 64" fill="none" xmlns="http://www.w3.org/2000/svg">
<path d="M29.9104 3.39441L26.2085 10.798L24.657 6.14428L19.125 8.91016V11.4258L23.3428 9.31703L25.7915 16.6629L30.0899 8.06666L36.0896 18.0667L40.5031 9.24003L44.875 11.4259V8.91028L39.4969 6.22141L35.9101 13.3944L29.9104 3.39441ZM11.125 8.85566V14.6057H16.875V8.85566H11.125ZM47.125 8.85566V14.6057H52.875V8.85566H47.125ZM9.125 16.8557V54.6057H20.875V40.6057H43.125V54.6057H54.875V16.8557H44.8784L40.8784 32.8557H23.1216L19.1216 16.8557H9.125ZM21.7534 18.1057L22.3159 20.3557H41.6841L42.2466 18.1057H21.7534ZM22.8159 22.3557L23.3784 24.6057H40.6216L41.1841 22.3557H22.8159ZM48.875 25.7307C50.5875 25.7307 52 27.1432 52 28.8557C52 30.5682 50.5875 31.9807 48.875 31.9807C47.1625 31.9807 45.75 30.5682 45.75 28.8557C45.75 27.1432 47.1625 25.7307 48.875 25.7307ZM6.875 25.8327L3.125 28.3327V46.6057H6.875V25.8327ZM23.8784 26.6057L24.4409 28.8557H39.5591L40.1216 26.6057H23.8784ZM48.875 33.7307C50.5875 33.7307 52 35.1432 52 36.8557C52 38.5682 50.5875 39.9807 48.875 39.9807C47.1625 39.9807 45.75 38.5682 45.75 36.8557C45.75 35.1432 47.1625 33.7307 48.875 33.7307ZM57.125 40.8557V46.6057H60.875V40.8557H57.125ZM48.875 41.7307C50.5875 41.7307 52 43.1432 52 44.8557C52 46.5682 50.5875 47.9807 48.875 47.9807C47.1625 47.9807 45.75 46.5682 45.75 44.8557C45.75 43.1432 47.1625 41.7307 48.875 41.7307ZM23.125 42.8557V48.6057H25.3048L28 43.215L32.3084 51.8314L33.5339 50.6057H40.875V42.8557H23.125ZM28 48.2465L26.6952 50.8557H23.125V56.6057H40.875V52.8557H34.4661L31.6919 55.6298L28 48.2465ZM57.125 48.8557V54.6057H60.875V48.8557H57.125ZM8.375 56.8557L3.375 60.6057H16.875V56.8557H8.375ZM47.125 56.8557V60.6057H60.625L55.625 56.8557H47.125Z" fill="black"/>
</svg>
