<svg width="27" height="26" viewBox="0 0 27 26" fill="none" xmlns="http://www.w3.org/2000/svg">
<path d="M15.92 1.01C15.72 0.42 15.16 0 14.5 0H3.5C2.84 0 2.29 0.42 2.08 1.01L0.11 6.68C0.0399999 6.89 0 7.11 0 7.34V14.5C0 15.33 0.67 16 1.5 16C2.33 16 3 15.33 3 14.5V14H10L12.5 11.5H18C17.1124 11.5 18.82 11.5 18 11.5V7.34C18 7.12 17.96 6.89 17.89 6.68L15.92 1.01ZM3.5 11C2.67 11 2 10.33 2 9.5C2 8.67 2.67 8 3.5 8C4.33 8 5 8.67 5 9.5C5 10.33 4.33 11 3.5 11ZM14.5 11C13.67 11 13 10.33 13 9.5C13 8.67 13.67 8 14.5 8C15.33 8 16 8.67 16 9.5C16 10.33 15.33 11 14.5 11ZM2 6L3.27 2.18C3.41 1.78 3.79 1.5 4.22 1.5H13.78C14.21 1.5 14.59 1.78 14.73 2.18L16 6H2Z" fill="white"/>
<path d="M24.92 11.01C24.72 10.42 24.16 10 23.5 10H12.5C11.84 10 11.29 10.42 11.08 11.01L9.11 16.68C9.04 16.89 9 17.11 9 17.34V24.5C9 25.33 9.67 26 10.5 26C11.33 26 12 25.33 12 24.5V24H24V24.5C24 25.32 24.67 26 25.5 26C26.32 26 27 25.33 27 24.5V17.34C27 17.12 26.96 16.89 26.89 16.68L24.92 11.01ZM12.5 21C11.67 21 11 20.33 11 19.5C11 18.67 11.67 18 12.5 18C13.33 18 14 18.67 14 19.5C14 20.33 13.33 21 12.5 21ZM23.5 21C22.67 21 22 20.33 22 19.5C22 18.67 22.67 18 23.5 18C24.33 18 25 18.67 25 19.5C25 20.33 24.33 21 23.5 21ZM11 16L12.27 12.18C12.41 11.78 12.79 11.5 13.22 11.5H22.78C23.21 11.5 23.59 11.78 23.73 12.18L25 16H11Z" fill="white"/>
</svg>
