<svg viewBox="565.5 71.85950413223145 409.49999999999994 835.1239669421489" fill="none" xmlns="http://www.w3.org/2000/svg" xmlns:xlink="http://www.w3.org/1999/xlink" overflow="visible" width="409.49999999999994px" height="835.1239669421489px"><g id="Master/Stickers/Traffic Light"><g id="traffic light"><g id="signs"><rect id="Rectangle" x="668.75" y="145.18" width="5" height="21.82" rx="2.5" fill="#1B1812"/><path id="Path" d="M680.88 166.841C679.529 166.836 678.423 165.762 678.38 164.411L678 149.621C677.979 148.959 678.222 148.315 678.676 147.833C679.13 147.351 679.758 147.069 680.42 147.051H680.5C681.852 147.05 682.958 148.129 682.99 149.481L683.41 164.271C683.429 164.934 683.184 165.577 682.728 166.059C682.272 166.541 681.643 166.822 680.98 166.841H680.88Z" fill="#1B1812"/><path id="Path_2" d="M664.21 89.3107C663.936 88.7074 663.432 88.2384 662.811 88.0075C662.19 87.7766 661.502 87.803 660.9 88.0807C653.976 91.432 647.454 95.5584 641.46 100.381C640.756 100.972 640.433 101.901 640.619 102.801C640.805 103.702 641.47 104.427 642.35 104.691C646.923 106.059 651.644 106.872 656.41 107.111H656.53C657.734 107.112 658.766 106.252 658.982 105.068C659.198 103.884 658.536 102.715 657.41 102.291L660.64 93.7807C661.45 93.3607 662.25 92.9607 662.98 92.6207C664.233 92.0451 664.783 90.5645 664.21 89.3107V89.3107Z" fill="#FA4A1B"/><path id="Path_3" d="M703.391 124.26C697.621 118.69 691.441 115.48 684.971 114.71C684.971 111.77 685.061 106.71 685.191 103.4C685.441 97.1298 683.441 91.3998 679.721 87.7998C675.081 83.2598 667.721 82.4098 662.871 85.7998C658.021 89.1898 656.971 95.2398 656.431 100.72C655.801 107.09 655.431 113.55 655.311 119.95C655.161 127.86 655.721 136.02 660.761 142.07C665.041 147.17 672.651 150.29 682.761 151.07V151.07C684.591 151.21 686.431 151.28 688.241 151.28C695.179 151.283 702.086 150.362 708.781 148.54C709.958 148.178 710.846 147.205 711.101 146C712.201 141.54 708.191 128.9 703.391 124.26Z" fill="#4A5D70"/><path id="Path_4" d="M693.87 137.101C686.87 137.101 679.61 135.321 675.03 131.361C673.987 130.455 673.875 128.875 674.78 127.831C675.686 126.787 677.267 126.675 678.31 127.581C684.43 132.891 697.21 133.251 704.84 130.251C706.127 129.746 707.58 130.379 708.085 131.666C708.591 132.953 707.957 134.406 706.67 134.911C702.571 136.409 698.234 137.152 693.87 137.101V137.101Z" fill="#1B1812"/><path id="Path_5" d="M668 102.159C666.648 102.159 665.543 101.08 665.51 99.7287L665.44 97.4187C665.402 96.0379 666.49 94.8873 667.87 94.8487C669.251 94.81 670.402 95.8979 670.44 97.2787L670.5 99.5887C670.522 100.251 670.279 100.894 669.825 101.377C669.37 101.859 668.743 102.14 668.08 102.159H668Z" fill="#1B1812"/><path id="Path_6" d="M936.161 590.732C934.831 577.272 926.631 577.392 917.941 577.532C916.611 577.532 915.201 577.532 913.731 577.532H912.261C905.771 577.422 897.691 577.272 895.261 586.532C892.831 595.792 893.261 628.922 895.781 632.012C897.531 634.152 900.161 635.012 902.491 635.482C907.088 636.505 911.781 637.031 916.491 637.052C919.845 637.055 923.193 636.748 926.491 636.132C932.504 634.959 936.883 629.747 937.001 623.622C937.241 610.002 936.461 593.832 936.161 590.732Z" fill="#A3B6B7"/><path id="Path_7" d="M931 704.08H919.13C914.26 558.08 915.65 410.25 923.32 264.47C924.08 249.94 925.13 230.02 914.55 213.37C898.41 187.95 865.3 186.69 847.55 186.02C826.55 185.22 785.82 186.08 785.41 186.09C784.748 186.103 784.119 186.38 783.661 186.858C783.203 187.337 782.954 187.978 782.97 188.64L783.49 213.43C783.544 214.799 784.67 215.881 786.04 215.88H786.1C790.27 215.79 827.45 215.07 846.42 215.79C867.59 216.59 883 219.2 889.42 229.34C894.49 237.34 894.32 248.77 893.58 262.91C885.89 409.21 884.48 557.53 889.33 704.08H872.46C868.07 704.08 864.62 708.68 864.62 714.56V884.56C864.62 890.43 868.07 895.03 872.46 895.03H931C935.39 895.03 938.84 890.43 938.84 884.56V714.56C938.85 708.68 935.4 704.08 931 704.08Z" fill="#D2DCD0"/><path id="Path_8" d="M936.33 674.78C929.83 668.31 921.88 667.36 914.28 666.95C904.39 666.42 894.36 666.31 884.45 666.64C877.99 666.85 870.68 667.64 865.45 674.64C858.45 684.1 855.8 703.9 856.86 718.56C856.954 719.866 858.041 720.878 859.35 720.88H943.04C944.199 720.886 945.208 720.089 945.47 718.96C949.16 703.59 945 683.37 936.33 674.78Z" fill="#A3B6B7"/><path id="Shape" fill-rule="evenodd" clip-rule="evenodd" d="M902.431 821.14H920.331L920.371 821.18C922.017 821.183 923.595 820.527 924.754 819.359C925.913 818.19 926.557 816.606 926.541 814.96C926.441 803.96 926.371 793.04 926.311 781.96L926.31 781.784C926.25 770.762 926.19 759.692 926.081 748.75C926.055 745.429 923.401 742.727 920.081 742.64L902.341 742.05C900.688 741.994 899.082 742.604 897.884 743.744C896.686 744.884 895.997 746.457 895.971 748.11C895.82 757.696 895.944 767.854 896.065 777.751C896.08 779.036 896.096 780.316 896.111 781.59C896.126 782.862 896.141 784.138 896.157 785.417C896.277 795.298 896.4 805.373 896.241 814.89C896.213 816.534 896.847 818.12 898.001 819.29C899.168 820.478 900.765 821.145 902.431 821.14ZM901.331 747.36C901.547 747.156 901.833 747.042 902.131 747.04L902.171 747.03L919.911 747.62C920.54 747.637 921.041 748.151 921.041 748.78C921.141 759.88 921.217 770.94 921.271 781.96C921.324 792.98 921.401 803.98 921.501 814.96C921.503 815.267 921.385 815.561 921.171 815.78C920.949 816.005 920.646 816.131 920.331 816.13H902.431C902.107 816.135 901.795 816.004 901.571 815.77C901.351 815.559 901.232 815.265 901.241 814.96C901.409 804.859 901.272 794.131 901.139 783.727C901.129 782.986 901.12 782.247 901.111 781.51C901.101 780.731 901.091 779.949 901.081 779.166C900.948 768.81 900.813 758.184 900.971 748.18C900.974 747.869 901.104 747.573 901.331 747.36Z" fill="#1B1812"/><path id="Path_9" d="M791.81 177.881C787.52 165.041 772.49 163.061 759.88 162.781C710.41 161.661 660.26 164.511 611.75 167.281C604.55 167.691 594.68 168.281 587.75 173.631C578.62 180.701 578.75 191.101 578.88 199.451C578.88 200.451 578.88 201.381 578.88 202.321C578.88 211.691 579.26 220.661 583.88 227.491C591.01 238.001 603.34 238.181 614.23 238.331C615.33 238.331 616.44 238.331 617.53 238.391C628.71 238.651 640.08 238.661 651.07 238.671C656.64 238.671 662.21 238.671 667.77 238.721L770.11 239.401H771.56C775.46 239.401 780.01 239.201 783.91 237.141C788.83 234.551 792.3 229.201 793.43 222.451C796 207.311 794.67 186.441 791.81 177.881Z" fill="#A3B6B7"/><path id="Path_10" d="M608.09 229.889V229.889C607.427 229.884 606.792 229.613 606.328 229.138C605.865 228.663 605.61 228.023 605.62 227.359L606.2 177.599C606.222 176.232 607.334 175.134 608.7 175.129V175.129C609.363 175.137 609.996 175.408 610.459 175.882C610.923 176.357 611.178 176.996 611.17 177.659L610.58 227.419C610.569 228.786 609.458 229.889 608.09 229.889V229.889Z" fill="#1B1812"/><ellipse id="Oval" cx="645.841" cy="200.96" rx="21.03" ry="23.21" fill="#FA4A1B"/><path id="Shape_2" fill-rule="evenodd" clip-rule="evenodd" d="M622.311 200.96C622.311 215.14 632.841 226.68 645.841 226.68C658.811 226.68 669.371 215.14 669.371 200.96C669.371 186.78 658.821 175.25 645.841 175.25C632.861 175.25 622.311 186.78 622.311 200.96ZM627.311 200.96C627.311 189.54 635.621 180.25 645.841 180.25C656.061 180.25 664.371 189.54 664.371 200.96C664.371 212.38 656.061 221.68 645.841 221.68C635.621 221.68 627.311 212.38 627.311 200.96Z" fill="#1B1812"/><path id="Path_11" d="M626.591 191.61C637.851 185.79 653.651 185.13 665.281 192.09C662.121 183.67 654.611 177.75 645.841 177.75C637.241 177.75 629.851 183.45 626.591 191.61Z" fill="#1B1812"/><path id="Shape_3" fill-rule="evenodd" clip-rule="evenodd" d="M663.99 194.24C664.382 194.468 664.827 194.589 665.28 194.59V194.63C666.101 194.63 666.869 194.228 667.336 193.553C667.803 192.879 667.909 192.018 667.62 191.25C663.98 181.51 655.43 175.25 645.84 175.25C636.48 175.25 628.01 181.31 624.27 190.69C623.888 191.659 624.146 192.762 624.918 193.461C625.69 194.16 626.815 194.307 627.74 193.83C638.99 188.02 653.88 188.24 663.99 194.24ZM659.22 186.62C654.898 185.224 650.382 184.522 645.84 184.54C641.348 184.537 636.88 185.198 632.58 186.5C635.867 182.519 640.767 180.224 645.929 180.248C651.091 180.271 655.97 182.61 659.22 186.62Z" fill="#1B1812"/><ellipse id="Oval_2" cx="701.161" cy="200.96" rx="21.03" ry="23.21" fill="#FFE055"/><path id="Shape_4" fill-rule="evenodd" clip-rule="evenodd" d="M677.631 200.96C677.631 215.14 688.161 226.68 701.161 226.68C714.141 226.68 724.701 215.22 724.701 201C724.701 186.78 714.131 175.25 701.161 175.25C688.191 175.25 677.631 186.78 677.631 200.96ZM682.631 200.96C682.631 189.54 690.951 180.25 701.161 180.25C711.381 180.25 719.701 189.54 719.701 200.96C719.701 212.38 711.371 221.68 701.161 221.68C690.951 221.68 682.631 212.38 682.631 200.96Z" fill="#1B1812"/><path id="Path_12" d="M681.91 191.61C693.18 185.79 708.98 185.13 720.6 192.09C717.44 183.67 709.93 177.75 701.16 177.75C692.56 177.75 685.17 183.45 681.91 191.61Z" fill="#1B1812"/><path id="Shape_5" fill-rule="evenodd" clip-rule="evenodd" d="M719.32 194.24C719.709 194.467 720.151 194.587 720.6 194.59C721.18 194.599 721.745 194.409 722.2 194.05C723.023 193.373 723.321 192.245 722.94 191.25C719.31 181.51 710.76 175.25 701.16 175.25C691.8 175.25 683.34 181.31 679.59 190.69C679.208 191.659 679.467 192.762 680.239 193.461C681.011 194.16 682.135 194.307 683.06 193.83C694.32 188.02 709.21 188.24 719.32 194.24ZM714.54 186.62C710.218 185.224 705.702 184.522 701.16 184.54C696.671 184.538 692.207 185.198 687.91 186.5C691.195 182.52 696.093 180.225 701.254 180.248C706.414 180.271 711.292 182.61 714.54 186.62Z" fill="#1B1812"/><ellipse id="Oval_3" cx="756.49" cy="200.96" rx="21.03" ry="23.21" fill="#5DB36D"/><path id="Shape_6" fill-rule="evenodd" clip-rule="evenodd" d="M732.96 200.96C732.96 215.14 743.49 226.68 756.49 226.68C769.47 226.68 780 215.22 780 201C780 186.78 769.47 175.25 756.49 175.25C743.51 175.25 732.96 186.78 732.96 200.96ZM737.96 200.96C737.96 189.54 746.27 180.25 756.49 180.25C766.71 180.25 775 189.62 775 201C775 212.38 766.71 221.68 756.49 221.68C746.27 221.68 737.96 212.38 737.96 200.96Z" fill="#1B1812"/><path id="Path_13" d="M737.24 191.61C748.5 185.79 764.3 185.13 775.93 192.09C772.77 183.67 765.26 177.75 756.49 177.75C747.89 177.75 740.5 183.45 737.24 191.61Z" fill="#1B1812"/><path id="Shape_7" fill-rule="evenodd" clip-rule="evenodd" d="M774.641 194.24C775.033 194.467 775.477 194.587 775.931 194.59V194.63C776.751 194.63 777.519 194.228 777.986 193.553C778.453 192.879 778.559 192.018 778.271 191.25C774.631 181.51 766.081 175.25 756.491 175.25C747.131 175.25 738.661 181.31 734.921 190.69C734.539 191.659 734.797 192.762 735.569 193.461C736.341 194.16 737.465 194.307 738.391 193.83C749.641 188.02 764.541 188.24 774.641 194.24ZM769.871 186.62C765.548 185.224 761.032 184.522 756.491 184.54C751.998 184.537 747.53 185.198 743.231 186.5C746.517 182.519 751.417 180.224 756.579 180.248C761.741 180.271 766.62 182.61 769.871 186.62Z" fill="#1B1812"/><path id="Path_14" d="M959.22 896H676.67C675.289 896 674.17 894.881 674.17 893.5C674.17 892.119 675.289 891 676.67 891H959.22C960.601 891 961.72 892.119 961.72 893.5C961.72 894.881 960.601 896 959.22 896Z" fill="#1B1812"/></g></g></g></svg>